<svg xmlns="http://www.w3.org/2000/svg" xmlns:xlink="http://www.w3.org/1999/xlink" width="500" zoomAndPan="magnify" viewBox="0 0 375 374.999991" height="500" preserveAspectRatio="xMidYMid meet" version="1.0"><defs><g/><clipPath id="ce9acb1ace"><path d="M 37.214844 37.214844 L 337.5 37.214844 L 337.5 337.5 L 37.214844 337.5 Z M 37.214844 37.214844 " clip-rule="nonzero"/></clipPath><clipPath id="07286c60fb"><path d="M 187.359375 37.214844 C 104.4375 37.214844 37.214844 104.4375 37.214844 187.359375 C 37.214844 270.277344 104.4375 337.5 187.359375 337.5 C 270.277344 337.5 337.5 270.277344 337.5 187.359375 C 337.5 104.4375 270.277344 37.214844 187.359375 37.214844 Z M 187.359375 37.214844 " clip-rule="nonzero"/></clipPath><clipPath id="1e9eb8907b"><path d="M 0.214844 0.214844 L 300.5 0.214844 L 300.5 300.5 L 0.214844 300.5 Z M 0.214844 0.214844 " clip-rule="nonzero"/></clipPath><clipPath id="da56f76caa"><path d="M 150.359375 0.214844 C 67.4375 0.214844 0.214844 67.4375 0.214844 150.359375 C 0.214844 233.277344 67.4375 300.5 150.359375 300.5 C 233.277344 300.5 300.5 233.277344 300.5 150.359375 C 300.5 67.4375 233.277344 0.214844 150.359375 0.214844 Z M 150.359375 0.214844 " clip-rule="nonzero"/></clipPath><clipPath id="7a9856c83a"><rect x="0" width="301" y="0" height="301"/></clipPath><clipPath id="cefb8fe361"><path d="M 49.445312 49.445312 L 325.257812 49.445312 L 325.257812 325.257812 L 49.445312 325.257812 Z M 49.445312 49.445312 " clip-rule="nonzero"/></clipPath><clipPath id="ecbc82d01f"><path d="M 187.351562 49.445312 C 111.1875 49.445312 49.445312 111.1875 49.445312 187.351562 C 49.445312 263.515625 111.1875 325.257812 187.351562 325.257812 C 263.515625 325.257812 325.257812 263.515625 325.257812 187.351562 C 325.257812 111.1875 263.515625 49.445312 187.351562 49.445312 Z M 187.351562 49.445312 " clip-rule="nonzero"/></clipPath><clipPath id="c4b3a6f271"><path d="M 97.875 96.28125 L 280.027344 96.28125 L 280.027344 278.433594 L 97.875 278.433594 Z M 97.875 96.28125 " clip-rule="nonzero"/></clipPath><clipPath id="aba90e0819"><path d="M 188.949219 96.28125 C 138.648438 96.28125 97.875 137.058594 97.875 187.359375 C 97.875 237.65625 138.648438 278.433594 188.949219 278.433594 C 239.25 278.433594 280.027344 237.65625 280.027344 187.359375 C 280.027344 137.058594 239.25 96.28125 188.949219 96.28125 Z M 188.949219 96.28125 " clip-rule="nonzero"/></clipPath><clipPath id="fae800bab3"><path d="M 0.875 0.28125 L 183.027344 0.28125 L 183.027344 182.433594 L 0.875 182.433594 Z M 0.875 0.28125 " clip-rule="nonzero"/></clipPath><clipPath id="caae09316b"><path d="M 91.949219 0.28125 C 41.648438 0.28125 0.875 41.058594 0.875 91.359375 C 0.875 141.65625 41.648438 182.433594 91.949219 182.433594 C 142.25 182.433594 183.027344 141.65625 183.027344 91.359375 C 183.027344 41.058594 142.25 0.28125 91.949219 0.28125 Z M 91.949219 0.28125 " clip-rule="nonzero"/></clipPath><clipPath id="f99c85569f"><rect x="0" width="184" y="0" height="183"/></clipPath><clipPath id="7d0a56ae27"><path d="M 102.675781 101.085938 L 275.175781 101.085938 L 275.175781 273.585938 L 102.675781 273.585938 Z M 102.675781 101.085938 " clip-rule="nonzero"/></clipPath><clipPath id="9f5d008f5f"><path d="M 188.945312 101.085938 C 141.300781 101.085938 102.675781 139.707031 102.675781 187.351562 C 102.675781 234.996094 141.300781 273.621094 188.945312 273.621094 C 236.589844 273.621094 275.210938 234.996094 275.210938 187.351562 C 275.210938 139.707031 236.589844 101.085938 188.945312 101.085938 Z M 188.945312 101.085938 " clip-rule="nonzero"/></clipPath><clipPath id="6f5cdf39ed"><path d="M 196 145 L 252.742188 145 L 252.742188 175 L 196 175 Z M 196 145 " clip-rule="nonzero"/></clipPath><clipPath id="85ff608800"><path d="M 125.242188 228 L 130 228 L 130 233 L 125.242188 233 Z M 125.242188 228 " clip-rule="nonzero"/></clipPath><clipPath id="4ed17fba76"><rect x="0" width="187" y="0" height="63"/></clipPath></defs><g clip-path="url(#ce9acb1ace)"><g clip-path="url(#07286c60fb)"><g transform="matrix(1, 0, 0, 1, 37, 37)"><g clip-path="url(#7a9856c83a)"><g clip-path="url(#1e9eb8907b)"><g clip-path="url(#da56f76caa)"><path fill="#5ab7ca" d="M 0.214844 0.214844 L 300.5 0.214844 L 300.5 300.5 L 0.214844 300.5 Z M 0.214844 0.214844 " fill-opacity="1" fill-rule="nonzero"/></g></g></g></g></g></g><g clip-path="url(#cefb8fe361)"><g clip-path="url(#ecbc82d01f)"><path stroke-linecap="butt" transform="matrix(0.75, 0, 0, 0.75, 49.445586, 49.445582)" fill="none" stroke-linejoin="miter" d="M 183.874647 -0.000358737 C 82.322557 -0.000358737 -0.000364737 82.322563 -0.000364737 183.874653 C -0.000364737 285.426743 82.322557 367.749665 183.874647 367.749665 C 285.426737 367.749665 367.749659 285.426743 367.749659 183.874653 C 367.749659 82.322563 285.426737 -0.000358737 183.874647 -0.000358737 Z M 183.874647 -0.000358737 " stroke="#e4cf90" stroke-width="10" stroke-opacity="1" stroke-miterlimit="4"/></g></g><g clip-path="url(#c4b3a6f271)"><g clip-path="url(#aba90e0819)"><g transform="matrix(1, 0, 0, 1, 97, 96)"><g clip-path="url(#f99c85569f)"><g clip-path="url(#fae800bab3)"><g clip-path="url(#caae09316b)"><path fill="#e4cf90" d="M 0.875 0.28125 L 183.027344 0.28125 L 183.027344 182.433594 L 0.875 182.433594 Z M 0.875 0.28125 " fill-opacity="1" fill-rule="nonzero"/></g></g></g></g></g></g><g clip-path="url(#7d0a56ae27)"><g clip-path="url(#9f5d008f5f)"><path stroke-linecap="butt" transform="matrix(0.75, 0, 0, 0.75, 102.67735, 101.085404)" fill="none" stroke-linejoin="miter" d="M 115.023958 0.000711651 C 51.497912 0.000711651 -0.00209134 51.495507 -0.00209134 115.021553 C -0.00209134 178.547598 51.497912 230.047602 115.023958 230.047602 C 178.550004 230.047602 230.044799 178.547598 230.044799 115.021553 C 230.044799 51.495507 178.550004 0.000711651 115.023958 0.000711651 Z M 115.023958 0.000711651 " stroke="#1b5072" stroke-width="8" stroke-opacity="1" stroke-miterlimit="4"/></g></g><path fill="#1b5072" d="M 186.296875 163.003906 C 187.5 163.425781 188.78125 163.703125 189.417969 164.914062 C 192.382812 168.558594 192.414062 173.269531 194.207031 177.472656 C 194.628906 178.667969 195.140625 179.832031 195.515625 181.039062 C 196.359375 184.992188 192.695312 187.257812 189.992188 183.734375 C 189.664062 185.011719 190.210938 186.628906 188.640625 187.449219 C 192.023438 192.417969 191.328125 198.546875 193.210938 203.964844 C 193.367188 203.988281 193.4375 204.023438 193.476562 204.003906 C 195.109375 203.046875 196.191406 203.527344 196.460938 205.410156 C 196.847656 208.15625 196.207031 210.535156 193.722656 212.105469 C 191.785156 213.082031 189.519531 215.324219 187.277344 214.039062 C 184.300781 212.25 184.367188 200.394531 182.808594 196.828125 C 182.089844 199.511719 181.480469 201.996094 180.757812 204.445312 C 180.046875 206.871094 180.191406 209.5625 178.589844 211.824219 C 179.171875 212.640625 179.722656 214.023438 178.738281 214.753906 C 176.824219 216.316406 173.808594 218.832031 172.039062 215.742188 C 168.753906 217.734375 167.15625 215.496094 165.808594 212.566406 C 164.617188 213.214844 164.136719 213.054688 163.628906 211.789062 C 162.550781 208.847656 161.554688 205.449219 162.378906 202.351562 C 162.980469 201.179688 164.207031 201.054688 164.976562 202.132812 C 165.765625 204.746094 167.808594 211.890625 170.214844 213.171875 C 170.785156 210.332031 168.355469 207.878906 168.046875 205.121094 C 167.667969 202.765625 166.449219 200.835938 165.28125 198.859375 C 162.621094 193.566406 157.1875 197.75 153.292969 194.84375 C 148.554688 199.414062 146.355469 205.132812 145.472656 211.480469 C 149.222656 208.9375 147.71875 207.285156 148.945312 203.53125 C 149.199219 201.664062 152.304688 200.265625 152.554688 202.875 C 152.582031 203.183594 152.566406 203.527344 152.449219 203.808594 C 151.199219 206.636719 151.351562 209.75 151.179688 212.746094 C 154.707031 214.683594 158.4375 213.769531 162.226562 213.492188 C 163.335938 213.550781 164.957031 213.019531 165.808594 213.867188 C 166.542969 217.378906 155.558594 217.742188 153.207031 217.554688 C 155.679688 226.148438 155.257812 228.210938 152.621094 236.683594 C 153.390625 237.324219 154.128906 237.933594 154.742188 238.445312 C 155.441406 233.34375 156.855469 228.179688 157.054688 222.753906 C 156.140625 222.292969 154.570312 221.511719 154.714844 220.152344 C 154.921875 218.910156 157.820312 219.300781 158.863281 218.964844 C 160.914062 218.730469 164.375 221.089844 160.511719 221.746094 C 161.769531 225.800781 162.175781 229.882812 162.375 234.109375 C 165.167969 230.910156 164.445312 224.628906 163.324219 220.78125 C 162.929688 219.613281 162.945312 218.386719 163.480469 217.226562 C 163.992188 215.785156 166.089844 216.117188 166.167969 217.617188 C 166.699219 222.140625 167.976562 226.777344 166.800781 231.292969 C 168.75 231.183594 169.628906 230.976562 170.09375 233.316406 C 171.164062 237.605469 166.945312 239.734375 163.878906 241.585938 C 161.902344 242.910156 159.582031 240.621094 159.996094 238.492188 C 159.875 236.785156 159.320312 235.070312 159.269531 233.34375 C 159.179688 233.324219 159.089844 233.304688 159 233.285156 C 158.03125 235.792969 158.191406 238.757812 156.441406 240.902344 C 156.226562 241.960938 156.703125 243.011719 155.457031 243.683594 C 150.207031 247.011719 147.992188 238.152344 151.875 240.101562 C 152.585938 240.660156 153.375 241.035156 154.289062 241.167969 C 153.679688 239.597656 152.136719 239.460938 150.949219 238.765625 C 150.796875 238.992188 150.652344 239.210938 150.34375 239.675781 C 148.589844 236.191406 149.792969 232.425781 150.851562 228.953125 C 152.996094 225.003906 149.039062 221.355469 151.210938 217.347656 C 148.050781 216.066406 149.660156 214.964844 148.277344 213.433594 C 146.304688 214.742188 146.296875 213.457031 145.558594 214.039062 C 145.027344 214.511719 144.46875 214.503906 143.886719 214.15625 C 141.820312 212.925781 141.714844 212.289062 141.953125 210.484375 C 142.332031 207.035156 143.628906 204.003906 145.453125 201.101562 C 146.535156 198.089844 148.398438 195.628906 150.8125 193.578125 C 151.375 193.097656 151.460938 192.695312 151.171875 192.046875 C 150.296875 190.222656 150.8125 187.808594 152.464844 186.652344 C 154.625 185.585938 154.589844 183.035156 156.191406 181.46875 C 158.605469 179.105469 160.414062 183.347656 162.796875 183.824219 C 164.984375 184.75 165.890625 186.855469 165.46875 189.625 C 163.578125 195.808594 167.863281 191.71875 170.625 201.816406 C 170.878906 202.769531 170.757812 203.824219 171.476562 204.8125 C 172.214844 201.039062 174.546875 197.433594 173.792969 193.570312 C 173.480469 191.667969 172.398438 189.300781 173.796875 187.628906 C 171.289062 185.460938 173.742188 183.761719 172.304688 183.078125 C 171.851562 183.960938 171.164062 184.613281 170.167969 183.984375 C 168.332031 182.980469 167.871094 182.140625 168.097656 180.058594 C 168.425781 175.363281 168.9375 170.761719 171.304688 166.589844 C 172.5625 164.1875 174.300781 162.25 176.980469 161.238281 C 173.183594 160.722656 175.0625 155.109375 175.882812 152.730469 C 176.6875 150.105469 181.425781 146.746094 181.859375 151.433594 C 183.433594 151.203125 184.03125 149.753906 185.703125 150.960938 C 189.417969 153.324219 189.855469 160.378906 186.296875 163.007812 Z M 180.027344 192.816406 C 178.582031 192.328125 176.710938 190.414062 178.96875 189.539062 C 180.3125 188.859375 186.054688 189.273438 183.765625 191.660156 C 187.527344 197.324219 186.816406 204.464844 188.644531 210.804688 C 190.757812 210.371094 193.324219 208.484375 193.371094 207.320312 C 189.945312 210.449219 190.003906 205.4375 189.605469 203.152344 C 189.007812 199.28125 188.457031 195.402344 187.035156 191.710938 C 186.550781 190.445312 185.914062 189.164062 186.617188 187.675781 C 185.421875 188.695312 184.128906 188.652344 182.894531 188.125 C 180.46875 187.011719 178.019531 187.710938 175.457031 187.574219 C 176.710938 189.332031 176.640625 191.3125 177.160156 193.125 C 177.710938 195.046875 177.550781 196.90625 176.9375 198.8125 C 176.027344 201.632812 175.265625 204.503906 174.464844 207.359375 C 174.28125 208.425781 175.984375 208.703125 176.507812 209.210938 C 177.675781 203.757812 178.847656 198.304688 180.027344 192.816406 Z M 191.839844 180.710938 C 191.855469 180.699219 191.867188 180.6875 191.882812 180.675781 C 191.277344 178.964844 187.21875 164.566406 185.300781 165.703125 C 184.570312 166.414062 182.886719 166.757812 183.144531 168.015625 C 184.59375 175.382812 183.855469 182.820312 174.734375 183.136719 C 174.699219 183.210938 174.667969 183.285156 174.636719 183.359375 C 176.191406 184.652344 178.984375 183.898438 180.949219 184.328125 C 182.121094 184.171875 186.929688 185.855469 186.988281 184.328125 C 187.433594 180.5 186.21875 178.207031 184.535156 174.90625 C 184.261719 174.164062 184.558594 173.515625 185.257812 173.15625 C 187.8125 171.929688 190.71875 178.925781 191.839844 180.710938 Z M 172.542969 172.019531 C 171.882812 174.019531 171.714844 176.988281 172.128906 178.644531 C 172.410156 179.769531 173.136719 180.277344 174.3125 180.164062 C 176.148438 179.964844 177.980469 179.664062 179.457031 178.40625 C 181.710938 175.683594 180.335938 171.035156 179.882812 167.824219 C 179.078125 166.804688 175.585938 167.210938 174.039062 166.875 C 173.609375 168.078125 173.152344 169.359375 172.710938 170.589844 C 174.625 170.707031 176.46875 170.261719 178.1875 170.925781 C 179.171875 171.480469 179.121094 172.625 178.0625 172.984375 C 176.234375 173.109375 173.492188 174.335938 172.542969 172.019531 Z M 162.441406 236.117188 L 162.210938 236.335938 C 162.738281 236.734375 163.265625 237.136719 163.820312 237.558594 C 166.417969 235.875 166.9375 235.363281 166.96875 234.421875 C 164.632812 236.167969 163.636719 236.539062 162.441406 236.117188 Z M 174.042969 211.214844 C 173.777344 212.324219 174.074219 213.121094 175.195312 213.535156 C 175.863281 212.988281 176.542969 212.429688 177.183594 211.90625 C 176.117188 211.671875 175.09375 211.445312 174.042969 211.214844 Z M 180.136719 163.035156 C 179.707031 163.425781 179.382812 163.726562 179.042969 164.035156 C 179.953125 164.148438 181.042969 164.5625 181.949219 164.351562 C 182.449219 164.007812 183.125 163.699219 182.988281 162.929688 C 181.933594 163.710938 180.972656 163.574219 180.136719 163.035156 Z M 180.136719 163.035156 " fill-opacity="1" fill-rule="nonzero"/><path fill="#1b5072" d="M 216.9375 219.144531 C 215.144531 217.550781 216.308594 215.941406 214.769531 213.8125 C 214.128906 216.136719 214.398438 218.566406 213.121094 220.738281 C 214.578125 222.925781 212.632812 224.199219 210.890625 225.59375 C 208.714844 227.707031 206.011719 224.796875 206.800781 222.644531 C 207.398438 221.164062 205.289062 220.335938 206.214844 218.765625 C 206.3125 218.515625 206.226562 218.109375 206.078125 217.859375 C 205.121094 216.5 206.023438 214.914062 206.140625 213.429688 C 207.105469 209.226562 203.609375 207.839844 205.871094 203.253906 C 203.679688 202.699219 202.964844 201.714844 202.9375 199.191406 C 200.773438 199.175781 196.535156 199.714844 196.53125 196.574219 C 197.382812 191.746094 196.53125 186.28125 199.511719 182.113281 C 200.335938 180.621094 201.953125 180.234375 203.113281 179.148438 C 204.460938 177.621094 208.195312 173.515625 209.769531 176.59375 C 210.265625 177.570312 211.027344 177.117188 211.957031 177.199219 C 211.679688 176.859375 211.539062 176.53125 211.367188 176.511719 C 209.023438 176.089844 209.839844 172.15625 209.558594 170.378906 C 209.464844 169.097656 210.878906 168.957031 211.601562 168.167969 C 212.523438 166.757812 213.183594 167.589844 214.039062 166.308594 C 214.910156 165.238281 216.148438 165.210938 217.375 165.515625 C 222.359375 166.644531 224.808594 174.804688 220.808594 178.386719 C 221.859375 178.121094 223.007812 177.847656 223.730469 178.839844 C 225.613281 181.15625 227.058594 183.699219 227.128906 186.785156 C 227.167969 188.550781 227.808594 190.078125 228.605469 191.605469 C 232.777344 198.355469 227.992188 202.8125 222.992188 195.894531 C 222.84375 196.535156 222.9375 197.472656 222.628906 198.007812 C 221.378906 199.363281 222.445312 201.316406 221.445312 203.125 C 221.371094 203.097656 221.296875 203.070312 221.222656 203.046875 C 221.773438 205.382812 222.324219 207.722656 222.875 210.046875 C 228.507812 209.519531 222.785156 220.425781 221.507812 222.660156 C 218.671875 226.722656 216.292969 222.625 216.9375 219.144531 Z M 199.964844 196.105469 C 213.5625 194.40625 208.625 200.984375 211.632812 187.976562 C 211.988281 186.324219 211.558594 185.503906 209.925781 184.996094 C 207.792969 184.332031 205.632812 183.742188 203.480469 183.148438 C 201.90625 183.589844 200.972656 185.90625 200.8125 187.472656 C 200.636719 190.421875 200.34375 193.101562 199.964844 196.105469 Z M 226.160156 194.34375 C 224.234375 189.710938 223.707031 184.75 220.652344 180.558594 C 219.164062 183.410156 218.132812 186.410156 216.78125 189.320312 C 215.78125 191.59375 215.332031 194.148438 213.414062 195.953125 C 213.003906 197.992188 211.25 198.746094 209.421875 199.300781 C 214.660156 200.460938 214.808594 198.183594 218.988281 199.09375 C 220.960938 199.226562 219.636719 196.292969 219.824219 195.128906 C 219.675781 192.832031 219.5 190.535156 219.414062 188.234375 C 218.898438 185.011719 221.433594 182.714844 222.429688 186.890625 C 222.71875 189.84375 224.382812 192.113281 226.160156 194.34375 Z M 211.089844 218.445312 C 211.667969 214.886719 212.230469 211.433594 212.796875 207.976562 C 205.128906 205 215.304688 202.730469 217.730469 205.707031 C 217.371094 206.035156 216.929688 206.355469 216.609375 206.699219 C 217.136719 209.109375 216.875 211.4375 218.144531 213.664062 C 218.460938 214.382812 218.761719 214.875 219.667969 214.839844 C 221.789062 215.578125 219.539062 217.070312 218.460938 217.484375 C 218.832031 218.140625 219.230469 218.851562 219.695312 219.675781 C 220.464844 218.09375 221.195312 216.578125 221.789062 215.355469 C 221.164062 214.480469 220.347656 213.859375 220.335938 213.222656 C 220.351562 209.570312 216.878906 206.1875 219.371094 202.710938 C 217.917969 202.429688 216.785156 201.929688 215.375 202.53125 C 213.035156 203.035156 210.414062 202.882812 208.078125 202.894531 C 208.746094 204.929688 208.140625 206.738281 209.285156 208.535156 C 210.941406 211.472656 209 214.820312 208.722656 217.980469 C 209.394531 218.113281 210.230469 218.273438 211.089844 218.445312 Z M 206.386719 180.21875 C 209.910156 181.589844 212.992188 181.542969 214.949219 185.027344 C 215.601562 183.597656 216.253906 182.167969 216.980469 180.574219 C 213.945312 180.660156 210.722656 181.691406 208.703125 178.699219 C 207.941406 179.199219 207.207031 179.679688 206.386719 180.21875 Z M 209.636719 222.109375 C 210.320312 221.605469 210.949219 221.140625 211.578125 220.675781 C 211.550781 220.640625 211.523438 220.609375 211.496094 220.574219 C 210.691406 220.777344 209.882812 220.984375 209.019531 221.203125 C 209.234375 221.515625 209.421875 221.789062 209.636719 222.109375 Z M 205.476562 199.003906 C 205.441406 199.117188 205.40625 199.230469 205.367188 199.34375 C 205.957031 199.851562 206.667969 199.46875 207.316406 199.546875 C 207.328125 199.472656 207.339844 199.394531 207.351562 199.320312 C 206.726562 199.214844 206.101562 199.109375 205.476562 199.003906 Z M 205.476562 199.003906 " fill-opacity="1" fill-rule="nonzero"/><g clip-path="url(#6f5cdf39ed)"><path fill="#1b5072" d="M 210.507812 156.644531 C 211.585938 156.609375 213.054688 157.308594 213.921875 156.464844 C 215.757812 153.285156 218.875 151.398438 221.230469 148.671875 C 225.308594 144.5625 227.488281 144.652344 232.167969 147.742188 C 233.890625 148.746094 235.101562 150.199219 236.050781 151.941406 C 236.847656 153.382812 238.390625 154.453125 239.222656 155.847656 C 240.398438 158.414062 242.171875 160.519531 244.078125 162.542969 C 245.71875 164.28125 247.335938 166.035156 249.359375 167.378906 C 250.746094 168.300781 251.574219 169.75 251.992188 171.335938 C 252.554688 173.078125 250.429688 175.394531 249.054688 173.507812 C 245.246094 167.988281 239.25 164.320312 236.4375 158.035156 C 235.511719 156.65625 233.976562 155.570312 233.140625 154.117188 C 232.253906 152.589844 231.125 151.402344 229.589844 150.554688 C 228.816406 150.210938 228.109375 149.175781 227.21875 149.261719 C 226.324219 149.703125 225.296875 150.042969 224.628906 150.730469 C 221.886719 153.554688 218.613281 155.867188 216.460938 159.273438 C 215.539062 160.730469 214.125 161.148438 212.453125 160.683594 C 210.339844 160.09375 208.5 160.460938 206.949219 162.136719 C 204.207031 165.011719 201.230469 167.660156 198.328125 170.371094 C 197.316406 171.492188 195.570312 170.140625 196.289062 168.847656 C 199.480469 164.671875 204.566406 155.777344 210.507812 156.644531 Z M 210.507812 156.644531 " fill-opacity="1" fill-rule="nonzero"/></g><path fill="#1b5072" d="M 141.390625 155.378906 C 145.992188 155.707031 149.726562 159.078125 151.921875 162.921875 C 152.914062 164.898438 154.742188 166.078125 156.328125 167.5 C 158.871094 170.011719 161.527344 172.511719 163.753906 175.304688 C 164.632812 176.480469 163.257812 177.492188 162.171875 176.988281 C 160.902344 176.308594 159.738281 175.292969 158.542969 174.519531 C 157.265625 174.371094 156.585938 173.425781 155.785156 172.59375 C 153.152344 169.964844 149.964844 167.90625 148.171875 164.527344 C 140.449219 153.875 135.808594 162.039062 131.445312 170.007812 C 130.523438 171.203125 130.847656 174.277344 129.003906 174.265625 C 128.132812 174.269531 127.28125 173.578125 127.140625 172.644531 C 127.929688 166.167969 134.351562 155.808594 141.390625 155.378906 Z M 141.390625 155.378906 " fill-opacity="1" fill-rule="nonzero"/><path fill="#1b5072" d="M 132.527344 226.214844 C 130.015625 230.902344 126.867188 223.910156 126.636719 221.355469 C 126.480469 220.457031 127.164062 219.574219 127.964844 219.359375 C 129.414062 218.941406 130.046875 220.714844 130.570312 221.949219 C 131.285156 220.445312 131.71875 215.253906 133.707031 215.539062 C 136.480469 216.28125 134.445312 219.507812 134.457031 221.425781 C 135.230469 220.476562 136.515625 218.585938 137.75 219.589844 C 138.496094 220.109375 138.816406 221.253906 138.335938 222.0625 C 137.46875 223.523438 136.554688 224.957031 135.613281 226.375 C 134.828125 227.636719 133.511719 226.910156 132.527344 226.214844 Z M 132.527344 226.214844 " fill-opacity="1" fill-rule="nonzero"/><path fill="#1b5072" d="M 233.996094 130.78125 C 233.445312 132.769531 232.921875 134.769531 232.320312 136.742188 C 231.386719 139.773438 227.726562 139.046875 228.445312 136.140625 C 230.019531 134.316406 229.585938 127.714844 232.050781 128.007812 C 233.121094 128.0625 233.890625 129.460938 233.773438 130.71875 C 233.847656 130.742188 233.921875 130.761719 233.996094 130.78125 Z M 233.996094 130.78125 " fill-opacity="1" fill-rule="nonzero"/><path fill="#1b5072" d="M 147.46875 183.410156 C 148.402344 182.601562 148.980469 181.035156 150.359375 181.664062 C 151.023438 182.050781 151.640625 183.265625 151.21875 183.820312 C 149.703125 185.46875 147.597656 189.519531 145.351562 186.285156 C 144.636719 184.796875 144.0625 183.222656 143.605469 181.632812 C 143.335938 180.699219 144.039062 179.714844 144.824219 179.507812 C 146.613281 179.183594 146.910156 181.992188 147.46875 183.410156 Z M 147.46875 183.410156 " fill-opacity="1" fill-rule="nonzero"/><path fill="#1b5072" d="M 134.21875 184.972656 C 135.285156 184.085938 136.054688 182.109375 137.582031 183.0625 C 138.273438 183.558594 138.644531 184.714844 138.179688 185.371094 C 137.195312 186.753906 136.160156 188.101562 135.0625 189.394531 C 132.585938 191.214844 131.210938 186.191406 130.910156 184.386719 C 130.898438 181.199219 133.878906 182.011719 134.21875 184.972656 Z M 134.21875 184.972656 " fill-opacity="1" fill-rule="nonzero"/><path fill="#1b5072" d="M 203.769531 137.730469 C 206.707031 138.332031 209.171875 139.839844 211.558594 141.589844 C 212.40625 142.058594 212.519531 143.3125 212.039062 144.007812 C 210.28125 145.816406 205.960938 141.265625 203.289062 141.125 C 201.28125 140.691406 201.890625 137.867188 203.769531 137.730469 Z M 203.769531 137.730469 " fill-opacity="1" fill-rule="nonzero"/><path fill="#1b5072" d="M 131.566406 202.664062 C 132.300781 201.757812 132.800781 200.089844 134.222656 200.625 C 134.882812 200.925781 135.421875 201.921875 135.078125 202.59375 C 133.648438 205.203125 132.164062 208.699219 129.449219 204.859375 C 128.765625 203.507812 128.289062 202.042969 127.847656 200.585938 C 127.511719 199.488281 127.835938 198.726562 128.503906 198.496094 C 130.453125 197.984375 130.863281 201.253906 131.566406 202.664062 Z M 131.566406 202.664062 " fill-opacity="1" fill-rule="nonzero"/><path fill="#1b5072" d="M 216.855469 131.957031 C 218.742188 133.246094 219.425781 136.039062 220.667969 137.945312 C 221.460938 139.246094 219.746094 140.921875 218.484375 139.980469 C 216.609375 138.699219 215.953125 136.230469 214.875 134.320312 C 214.347656 133.140625 215.300781 131.921875 216.855469 131.957031 Z M 216.855469 131.957031 " fill-opacity="1" fill-rule="nonzero"/><path fill="#1b5072" d="M 235.960938 140.761719 C 236.617188 139.089844 238.449219 137.855469 239.703125 136.585938 C 241.832031 134.703125 243.847656 138.035156 241.960938 139.554688 C 240.476562 140.566406 239.148438 143.566406 237.105469 142.808594 C 236.332031 142.425781 235.988281 141.769531 235.960938 140.761719 Z M 235.960938 140.761719 " fill-opacity="1" fill-rule="nonzero"/><path fill="#1b5072" d="M 205.421875 147.265625 C 208.820312 146.585938 209.675781 150.132812 206.894531 150.332031 C 205.683594 150.203125 204.046875 150.535156 203.070312 149.710938 C 201.558594 147.75 203.660156 146.933594 205.421875 147.230469 C 205.421875 147.242188 205.421875 147.253906 205.421875 147.265625 Z M 205.421875 147.265625 " fill-opacity="1" fill-rule="nonzero"/><path fill="#1b5072" d="M 139.53125 188.460938 C 140.941406 189.152344 141.480469 190.585938 141.832031 192.011719 C 141.988281 193.058594 140.800781 194.3125 139.828125 193.285156 C 138.566406 192.179688 137.074219 189.054688 139.53125 188.460938 Z M 139.53125 188.460938 " fill-opacity="1" fill-rule="nonzero"/><g clip-path="url(#85ff608800)"><path fill="#1b5072" d="M 128.140625 232.25 C 127.179688 232.230469 125.351562 230.335938 125.367188 229.375 C 125.933594 226.421875 131.496094 231.753906 128.140625 232.25 Z M 128.140625 232.25 " fill-opacity="1" fill-rule="nonzero"/></g><path fill="#1b5072" d="M 147.347656 243.054688 C 145.378906 244.113281 143.289062 243.105469 141.40625 242.40625 C 139.699219 240.3125 146.675781 242.191406 147.296875 242.6875 C 147.3125 242.808594 147.332031 242.933594 147.347656 243.054688 Z M 147.347656 243.054688 " fill-opacity="1" fill-rule="nonzero"/><path fill="#1b5072" d="M 183.40625 230.386719 C 181.71875 229.785156 179.25 229.988281 178.28125 228.707031 C 179.710938 228 181.417969 228.707031 182.960938 228.671875 C 183.503906 228.609375 184.082031 229.261719 184.15625 229.660156 C 184.160156 229.914062 183.648438 230.171875 183.410156 230.386719 Z M 183.40625 230.386719 " fill-opacity="1" fill-rule="nonzero"/><path fill="#1b5072" d="M 131.238281 190.003906 C 130.855469 192.734375 126.039062 188.65625 128.617188 187.78125 C 129.558594 187.601562 131.257812 189.039062 131.238281 190.003906 Z M 131.238281 190.003906 " fill-opacity="1" fill-rule="nonzero"/><path fill="#1b5072" d="M 136.351562 192.921875 C 137.574219 193.160156 139.234375 193.933594 138.757812 195.304688 C 137.851562 196.140625 136.652344 194.863281 135.839844 194.402344 C 135.445312 193.898438 135.660156 193.128906 136.351562 192.921875 Z M 136.351562 192.921875 " fill-opacity="1" fill-rule="nonzero"/><path fill="#1b5072" d="M 186.566406 226.015625 C 188.257812 226.5 190.148438 225.972656 191.09375 227.519531 C 190.730469 227.65625 190.335938 227.964844 190.015625 227.898438 C 188.660156 227.449219 186.910156 227.476562 185.921875 226.359375 C 186.175781 226.226562 186.429688 226.089844 186.566406 226.015625 Z M 186.566406 226.015625 " fill-opacity="1" fill-rule="nonzero"/><path fill="#1b5072" d="M 199.433594 223.40625 C 200.332031 223.472656 201.324219 223.296875 201.707031 224.359375 C 201.429688 224.503906 201.136719 224.796875 200.875 224.769531 C 199.574219 224.492188 197.949219 224.703125 196.851562 223.960938 C 197.476562 223.265625 198.550781 223.605469 199.433594 223.40625 Z M 199.433594 223.40625 " fill-opacity="1" fill-rule="nonzero"/><path fill="#1b5072" d="M 175.683594 178.320312 C 174.050781 178.660156 172.117188 175.980469 174.152344 175.378906 C 175.578125 175.21875 178.792969 174.726562 178.933594 176.792969 C 178.488281 178.066406 176.828125 178.101562 175.683594 178.320312 Z M 175.683594 178.320312 " fill-opacity="1" fill-rule="nonzero"/><path fill="#1b5072" d="M 203.871094 188.824219 C 197.023438 184.828125 208.898438 184.144531 210.058594 188.863281 C 208.214844 189.90625 207.003906 188.492188 206.4375 191.015625 C 205.402344 194.210938 201.964844 191.566406 203.871094 188.824219 Z M 203.871094 188.824219 " fill-opacity="1" fill-rule="nonzero"/><path fill="#1b5072" d="M 141.84375 133.632812 C 140.332031 131.730469 137.773438 134.652344 137.851562 136.410156 C 137.859375 136.828125 137.730469 137.277344 137.554688 137.660156 C 136.433594 139.277344 137.679688 141.019531 136.425781 141.867188 C 134.511719 142.589844 133.152344 140.136719 133.992188 138.417969 C 134.90625 136.96875 134.410156 135.238281 134.980469 133.753906 C 136.609375 131.21875 139.523438 128.542969 142.753906 129.988281 C 143.191406 130.15625 143.460938 130.203125 143.828125 129.921875 C 145.875 128.066406 148.011719 130.390625 150.308594 130.417969 C 151.667969 130.582031 152.234375 130.980469 152.714844 132.261719 C 153.496094 133.785156 154.34375 135.210938 155.054688 136.816406 C 158.160156 134.441406 158.132812 137.128906 159.8125 136.324219 C 161.050781 135.441406 162.636719 134.765625 164.046875 135.726562 C 166.929688 136.769531 168.230469 139.417969 169.609375 141.941406 C 170.214844 142.925781 170.207031 143.472656 169.414062 144.507812 C 172.765625 146.867188 167.9375 149.691406 165.441406 148.535156 C 162.878906 148.0625 160.21875 147.695312 157.628906 147.398438 C 156.125 147.882812 154.679688 146.945312 153.253906 147.074219 C 152.445312 147.585938 151.609375 147.429688 150.742188 147.339844 C 149.226562 147.183594 147.921875 148.539062 146.476562 147.546875 C 144.882812 146.582031 143.203125 145.941406 141.441406 146.902344 C 139.574219 147.109375 137.265625 148.1875 135.847656 146.40625 C 135.132812 145.351562 133.214844 144.023438 134.347656 142.6875 C 136.117188 141.175781 137.324219 144.832031 139.054688 144.167969 C 145.71875 141.09375 145.296875 145.050781 151.453125 143.769531 C 151.710938 142.855469 151.996094 141.675781 152.320312 140.652344 C 151.605469 139.507812 152.1875 138.035156 151.28125 136.898438 C 150.375 135.949219 150.195312 134.277344 149.042969 133.578125 C 144.480469 131.519531 145.5 134.398438 141.824219 133.632812 Z M 168.136719 144.707031 C 165.492188 143.785156 165.621094 140.417969 163.101562 139.324219 C 162.433594 138.96875 162.019531 138.9375 161.4375 139.371094 C 157.882812 141.855469 156.984375 136.558594 154.640625 143.628906 C 157.808594 143.714844 160.757812 144.019531 163.867188 144.453125 C 165.375 144.367188 166.773438 145.707031 168.136719 144.707031 Z M 168.136719 144.707031 " fill-opacity="1" fill-rule="nonzero"/><g transform="matrix(1, 0, 0, 1, 94, 59)"><g clip-path="url(#4ed17fba76)"><g fill="#e4cf90" fill-opacity="1"><g transform="translate(16.600643, 57.505185)"><g><path d="M -5.066406 -15.726562 L 5.3125 -5.269531 L 3.339844 -3.3125 L -7.039062 -13.769531 L -10.261719 -10.574219 L -11.921875 -12.246094 L -3.519531 -20.585938 L -1.859375 -18.910156 Z M -5.066406 -15.726562 "/></g></g></g><g fill="#e4cf90" fill-opacity="1"><g transform="translate(29.448227, 45.153237)"><g><path d="M -7.820312 -15.3125 L -5.53125 -16.820312 L 0.179688 -8.15625 C 1.027344 -6.867188 1.960938 -6.097656 2.980469 -5.84375 C 4 -5.585938 5.101562 -5.847656 6.285156 -6.628906 C 7.460938 -7.402344 8.136719 -8.308594 8.304688 -9.347656 C 8.472656 -10.386719 8.132812 -11.550781 7.285156 -12.835938 L 1.578125 -21.503906 L 3.898438 -23.03125 L 9.746094 -14.148438 C 11.019531 -12.21875 11.484375 -10.453125 11.140625 -8.851562 C 10.796875 -7.253906 9.640625 -5.804688 7.679688 -4.511719 C 5.714844 -3.21875 3.9375 -2.730469 2.339844 -3.050781 C 0.742188 -3.367188 -0.695312 -4.496094 -1.972656 -6.429688 Z M -7.820312 -15.3125 "/></g></g></g><g fill="#e4cf90" fill-opacity="1"><g transform="translate(49.645667, 33.019784)"><g/></g></g><g fill="#e4cf90" fill-opacity="1"><g transform="translate(61.867613, 28.04354)"><g><path d="M 1.898438 -0.488281 L -2.351562 -17.042969 L 6.886719 -19.414062 L 7.472656 -17.128906 L 0.925781 -15.449219 L 1.992188 -11.296875 L 8.539062 -12.980469 L 9.144531 -10.617188 L 2.597656 -8.9375 L 3.972656 -3.585938 L 10.519531 -5.269531 L 11.136719 -2.859375 Z M 1.898438 -0.488281 "/></g></g></g><g fill="#e4cf90" fill-opacity="1"><g transform="translate(79.619987, 23.658466)"><g><path d="M 13.203125 -6.605469 L 14.914062 -4.902344 C 15.410156 -5.554688 15.769531 -6.222656 15.984375 -6.910156 C 16.199219 -7.601562 16.292969 -8.34375 16.265625 -9.136719 C 16.234375 -10.007812 16.050781 -10.820312 15.714844 -11.582031 C 15.378906 -12.339844 14.902344 -13.007812 14.292969 -13.582031 C 13.671875 -14.167969 12.972656 -14.609375 12.199219 -14.910156 C 11.425781 -15.207031 10.625 -15.34375 9.800781 -15.3125 C 8.96875 -15.28125 8.175781 -15.089844 7.425781 -14.734375 C 6.675781 -14.378906 6.015625 -13.886719 5.449219 -13.261719 C 4.878906 -12.640625 4.453125 -11.9375 4.171875 -11.15625 C 3.886719 -10.375 3.761719 -9.550781 3.792969 -8.679688 C 3.859375 -6.890625 4.519531 -5.40625 5.773438 -4.222656 C 7.027344 -3.042969 8.550781 -2.484375 10.339844 -2.550781 C 10.820312 -2.570312 11.28125 -2.640625 11.714844 -2.761719 C 12.152344 -2.882812 12.582031 -3.0625 13.007812 -3.304688 L 9.832031 -6.480469 Z M 16.808594 -2.941406 L 20.578125 0.847656 L 17.265625 0.96875 L 14.949219 -1.367188 C 14.203125 -0.925781 13.441406 -0.589844 12.660156 -0.359375 C 11.882812 -0.128906 11.066406 0.00390625 10.210938 0.0351562 C 9.050781 0.078125 7.910156 -0.109375 6.78125 -0.527344 C 5.648438 -0.945312 4.65625 -1.550781 3.792969 -2.335938 C 2.898438 -3.144531 2.203125 -4.078125 1.710938 -5.144531 C 1.214844 -6.207031 0.945312 -7.351562 0.902344 -8.574219 C 0.855469 -9.792969 1.042969 -10.953125 1.457031 -12.050781 C 1.871094 -13.148438 2.496094 -14.132812 3.328125 -15.003906 C 4.152344 -15.875 5.113281 -16.554688 6.203125 -17.042969 C 7.296875 -17.53125 8.464844 -17.796875 9.707031 -17.84375 C 10.945312 -17.886719 12.121094 -17.707031 13.242188 -17.300781 C 14.363281 -16.894531 15.367188 -16.285156 16.253906 -15.476562 C 17.148438 -14.664062 17.84375 -13.722656 18.34375 -12.65625 C 18.84375 -11.59375 19.113281 -10.453125 19.15625 -9.242188 C 19.203125 -8.058594 19.023438 -6.929688 18.621094 -5.851562 C 18.222656 -4.773438 17.617188 -3.804688 16.808594 -2.941406 Z M 16.808594 -2.941406 "/></g></g></g><g fill="#e4cf90" fill-opacity="1"><g transform="translate(105.675775, 23.513868)"><g><path d="M 5.265625 -16.371094 L 7.953125 -15.820312 L 5.882812 -5.652344 C 5.574219 -4.140625 5.691406 -2.9375 6.234375 -2.035156 C 6.777344 -1.136719 7.742188 -0.542969 9.132812 -0.261719 C 10.511719 0.0195312 11.628906 -0.148438 12.480469 -0.765625 C 13.332031 -1.378906 13.914062 -2.445312 14.21875 -3.953125 L 16.292969 -14.125 L 19.011719 -13.570312 L 16.890625 -3.148438 C 16.429688 -0.882812 15.511719 0.695312 14.140625 1.585938 C 12.765625 2.480469 10.929688 2.691406 8.625 2.222656 C 6.324219 1.753906 4.71875 0.839844 3.808594 -0.511719 C 2.902344 -1.863281 2.679688 -3.675781 3.140625 -5.949219 Z M 5.265625 -16.371094 "/></g></g></g><g fill="#e4cf90" fill-opacity="1"><g transform="translate(128.558506, 29.181304)"><g><path d="M 8.144531 -15.160156 L 10.726562 -14.140625 L 4.453125 1.757812 L 1.867188 0.738281 Z M 8.144531 -15.160156 "/></g></g></g><g fill="#e4cf90" fill-opacity="1"><g transform="translate(140.38984, 34.102512)"><g><path d="M 9.105469 -6.199219 L 9.722656 -5.839844 C 11.054688 -5.066406 12.023438 -4.691406 12.636719 -4.722656 C 13.25 -4.75 13.769531 -5.132812 14.195312 -5.867188 C 14.65625 -6.652344 14.742188 -7.34375 14.457031 -7.945312 C 14.171875 -8.542969 13.394531 -9.214844 12.125 -9.953125 L 11.507812 -10.3125 Z M 7.808594 -4.324219 L 3.941406 2.300781 L 1.695312 0.988281 L 10.308594 -13.769531 L 13.9375 -11.652344 C 15.015625 -11.023438 15.769531 -10.503906 16.210938 -10.089844 C 16.648438 -9.675781 16.976562 -9.226562 17.199219 -8.738281 C 17.460938 -8.125 17.554688 -7.449219 17.476562 -6.714844 C 17.398438 -5.980469 17.15625 -5.265625 16.75 -4.566406 C 16.339844 -3.867188 15.832031 -3.296875 15.226562 -2.859375 C 14.617188 -2.421875 13.984375 -2.167969 13.324219 -2.101562 C 12.792969 -2.054688 12.238281 -2.121094 11.664062 -2.300781 C 11.089844 -2.484375 10.265625 -2.890625 9.191406 -3.515625 L 8.714844 -3.792969 Z M 7.808594 -4.324219 "/></g></g></g><g fill="#e4cf90" fill-opacity="1"><g transform="translate(156.097173, 43.463519)"><g><path d="M 17.972656 4.957031 C 18.558594 4.320312 18.996094 3.609375 19.292969 2.824219 C 19.585938 2.039062 19.722656 1.222656 19.695312 0.375 C 19.675781 -0.457031 19.496094 -1.25 19.15625 -2 C 18.816406 -2.75 18.339844 -3.410156 17.71875 -3.980469 C 17.101562 -4.546875 16.402344 -4.972656 15.628906 -5.25 C 14.855469 -5.527344 14.042969 -5.644531 13.199219 -5.597656 C 12.355469 -5.558594 11.558594 -5.355469 10.800781 -4.992188 C 10.046875 -4.628906 9.375 -4.128906 8.785156 -3.484375 C 8.199219 -2.851562 7.761719 -2.144531 7.46875 -1.363281 C 7.175781 -0.585938 7.042969 0.226562 7.066406 1.074219 C 7.09375 1.917969 7.273438 2.714844 7.617188 3.460938 C 7.957031 4.207031 8.4375 4.867188 9.0625 5.441406 C 9.675781 6.003906 10.367188 6.421875 11.136719 6.695312 C 11.902344 6.96875 12.714844 7.085938 13.566406 7.042969 C 14.414062 6.996094 15.214844 6.796875 15.96875 6.4375 C 16.726562 6.082031 17.394531 5.585938 17.972656 4.957031 Z M 20.105469 6.917969 C 19.285156 7.808594 18.339844 8.5 17.273438 8.988281 C 16.203125 9.480469 15.0625 9.742188 13.847656 9.773438 C 12.625 9.804688 11.457031 9.613281 10.335938 9.195312 C 9.21875 8.78125 8.210938 8.164062 7.316406 7.339844 C 6.410156 6.507812 5.703125 5.546875 5.1875 4.457031 C 4.671875 3.367188 4.382812 2.222656 4.324219 1.023438 C 4.253906 -0.191406 4.417969 -1.347656 4.8125 -2.441406 C 5.207031 -3.539062 5.820312 -4.539062 6.652344 -5.445312 C 7.480469 -6.34375 8.425781 -7.039062 9.488281 -7.53125 C 10.554688 -8.023438 11.695312 -8.289062 12.917969 -8.328125 C 14.132812 -8.363281 15.296875 -8.171875 16.410156 -7.75 C 17.523438 -7.328125 18.539062 -6.699219 19.449219 -5.863281 C 20.355469 -5.03125 21.0625 -4.078125 21.574219 -3.007812 C 22.082031 -1.933594 22.375 -0.792969 22.441406 0.421875 C 22.5 1.648438 22.328125 2.816406 21.929688 3.921875 C 21.527344 5.03125 20.921875 6.027344 20.105469 6.917969 Z M 20.105469 6.917969 "/></g></g></g></g></g></svg>