<svg xmlns="http://www.w3.org/2000/svg" xmlns:xlink="http://www.w3.org/1999/xlink" width="250" zoomAndPan="magnify" viewBox="0 0 187.5 187.499992" height="250" preserveAspectRatio="xMidYMid meet" version="1.0"><defs><g/><clipPath id="6ad5cdad13"><path d="M 18.558594 18.558594 L 168.300781 18.558594 L 168.300781 168.300781 L 18.558594 168.300781 Z M 18.558594 18.558594 " clip-rule="nonzero"/></clipPath><clipPath id="9b74588adb"><path d="M 93.429688 18.558594 C 52.078125 18.558594 18.558594 52.078125 18.558594 93.429688 C 18.558594 134.78125 52.078125 168.300781 93.429688 168.300781 C 134.78125 168.300781 168.300781 134.78125 168.300781 93.429688 C 168.300781 52.078125 134.78125 18.558594 93.429688 18.558594 Z M 93.429688 18.558594 " clip-rule="nonzero"/></clipPath><clipPath id="dc1a6070f7"><path d="M 0.558594 0.558594 L 150.300781 0.558594 L 150.300781 150.300781 L 0.558594 150.300781 Z M 0.558594 0.558594 " clip-rule="nonzero"/></clipPath><clipPath id="50f2933b23"><path d="M 75.429688 0.558594 C 34.078125 0.558594 0.558594 34.078125 0.558594 75.429688 C 0.558594 116.78125 34.078125 150.300781 75.429688 150.300781 C 116.78125 150.300781 150.300781 116.78125 150.300781 75.429688 C 150.300781 34.078125 116.78125 0.558594 75.429688 0.558594 Z M 75.429688 0.558594 " clip-rule="nonzero"/></clipPath><clipPath id="c9df6c70a1"><rect x="0" width="151" y="0" height="151"/></clipPath><clipPath id="6444c85515"><path d="M 24.65625 24.65625 L 162.195312 24.65625 L 162.195312 162.195312 L 24.65625 162.195312 Z M 24.65625 24.65625 " clip-rule="nonzero"/></clipPath><clipPath id="7c91e3ea51"><path d="M 93.425781 24.65625 C 55.445312 24.65625 24.65625 55.445312 24.65625 93.425781 C 24.65625 131.40625 55.445312 162.195312 93.425781 162.195312 C 131.40625 162.195312 162.195312 131.40625 162.195312 93.425781 C 162.195312 55.445312 131.40625 24.65625 93.425781 24.65625 Z M 93.425781 24.65625 " clip-rule="nonzero"/></clipPath><clipPath id="2c7dda0213"><path d="M 48.804688 48.082031 L 139.640625 48.082031 L 139.640625 138.917969 L 48.804688 138.917969 Z M 48.804688 48.082031 " clip-rule="nonzero"/></clipPath><clipPath id="375b3c9d3b"><path d="M 94.222656 48.082031 C 69.140625 48.082031 48.804688 68.417969 48.804688 93.5 C 48.804688 118.582031 69.140625 138.917969 94.222656 138.917969 C 119.304688 138.917969 139.640625 118.582031 139.640625 93.5 C 139.640625 68.417969 119.304688 48.082031 94.222656 48.082031 Z M 94.222656 48.082031 " clip-rule="nonzero"/></clipPath><clipPath id="a1c2c67410"><path d="M 0.804688 0.0820312 L 91.640625 0.0820312 L 91.640625 90.917969 L 0.804688 90.917969 Z M 0.804688 0.0820312 " clip-rule="nonzero"/></clipPath><clipPath id="60f79ccf32"><path d="M 46.222656 0.0820312 C 21.140625 0.0820312 0.804688 20.417969 0.804688 45.5 C 0.804688 70.582031 21.140625 90.917969 46.222656 90.917969 C 71.304688 90.917969 91.640625 70.582031 91.640625 45.5 C 91.640625 20.417969 71.304688 0.0820312 46.222656 0.0820312 Z M 46.222656 0.0820312 " clip-rule="nonzero"/></clipPath><clipPath id="98ad301fe2"><rect x="0" width="92" y="0" height="91"/></clipPath><clipPath id="6193958253"><rect x="0" width="74" y="0" height="25"/></clipPath><clipPath id="f8b89fbf6d"><path d="M 51.203125 50.480469 L 137.222656 50.480469 L 137.222656 136.5 L 51.203125 136.5 Z M 51.203125 50.480469 " clip-rule="nonzero"/></clipPath><clipPath id="c2531e84ee"><path d="M 94.21875 50.480469 C 70.460938 50.480469 51.203125 69.738281 51.203125 93.496094 C 51.203125 117.253906 70.460938 136.511719 94.21875 136.511719 C 117.976562 136.511719 137.234375 117.253906 137.234375 93.496094 C 137.234375 69.738281 117.976562 50.480469 94.21875 50.480469 Z M 94.21875 50.480469 " clip-rule="nonzero"/></clipPath><linearGradient x1="0.000000638717" gradientTransform="matrix(1.797119, 0, 0, 1.797119, -0.00000114785, -0.00000278811)" y1="32" x2="63.991303" gradientUnits="userSpaceOnUse" y2="32" id="d5d66f4554"><stop stop-opacity="1" stop-color="rgb(0%, 29.019165%, 67.83905%)" offset="0"/><stop stop-opacity="1" stop-color="rgb(0.309753%, 29.071045%, 67.926025%)" offset="0.00390625"/><stop stop-opacity="1" stop-color="rgb(0.621033%, 29.122925%, 68.014526%)" offset="0.0078125"/><stop stop-opacity="1" stop-color="rgb(0.932312%, 29.174805%, 68.101501%)" offset="0.0117188"/><stop stop-opacity="1" stop-color="rgb(1.243591%, 29.22821%, 68.188477%)" offset="0.015625"/><stop stop-opacity="1" stop-color="rgb(1.553345%, 29.28009%, 68.275452%)" offset="0.0195312"/><stop stop-opacity="1" stop-color="rgb(1.864624%, 29.33197%, 68.363953%)" offset="0.0234375"/><stop stop-opacity="1" stop-color="rgb(2.175903%, 29.38385%, 68.450928%)" offset="0.0273438"/><stop stop-opacity="1" stop-color="rgb(2.487183%, 29.43573%, 68.537903%)" offset="0.03125"/><stop stop-opacity="1" stop-color="rgb(2.796936%, 29.48761%, 68.624878%)" offset="0.0351562"/><stop stop-opacity="1" stop-color="rgb(3.108215%, 29.53949%, 68.711853%)" offset="0.0390625"/><stop stop-opacity="1" stop-color="rgb(3.419495%, 29.59137%, 68.798828%)" offset="0.0429688"/><stop stop-opacity="1" stop-color="rgb(3.730774%, 29.64325%, 68.887329%)" offset="0.046875"/><stop stop-opacity="1" stop-color="rgb(4.040527%, 29.695129%, 68.974304%)" offset="0.0507812"/><stop stop-opacity="1" stop-color="rgb(4.351807%, 29.748535%, 69.061279%)" offset="0.0546875"/><stop stop-opacity="1" stop-color="rgb(4.663086%, 29.800415%, 69.148254%)" offset="0.0585938"/><stop stop-opacity="1" stop-color="rgb(4.974365%, 29.852295%, 69.236755%)" offset="0.0625"/><stop stop-opacity="1" stop-color="rgb(5.284119%, 29.904175%, 69.32373%)" offset="0.0664062"/><stop stop-opacity="1" stop-color="rgb(5.595398%, 29.956055%, 69.410706%)" offset="0.0703125"/><stop stop-opacity="1" stop-color="rgb(5.906677%, 30.007935%, 69.497681%)" offset="0.0742188"/><stop stop-opacity="1" stop-color="rgb(6.217957%, 30.059814%, 69.586182%)" offset="0.078125"/><stop stop-opacity="1" stop-color="rgb(6.529236%, 30.111694%, 69.673157%)" offset="0.0820312"/><stop stop-opacity="1" stop-color="rgb(6.840515%, 30.1651%, 69.760132%)" offset="0.0859375"/><stop stop-opacity="1" stop-color="rgb(7.150269%, 30.21698%, 69.847107%)" offset="0.0898438"/><stop stop-opacity="1" stop-color="rgb(7.461548%, 30.26886%, 69.935608%)" offset="0.09375"/><stop stop-opacity="1" stop-color="rgb(7.772827%, 30.32074%, 70.022583%)" offset="0.0976562"/><stop stop-opacity="1" stop-color="rgb(8.084106%, 30.37262%, 70.109558%)" offset="0.101562"/><stop stop-opacity="1" stop-color="rgb(8.39386%, 30.4245%, 70.196533%)" offset="0.105469"/><stop stop-opacity="1" stop-color="rgb(8.705139%, 30.476379%, 70.285034%)" offset="0.109375"/><stop stop-opacity="1" stop-color="rgb(9.016418%, 30.528259%, 70.372009%)" offset="0.113281"/><stop stop-opacity="1" stop-color="rgb(9.327698%, 30.581665%, 70.458984%)" offset="0.117188"/><stop stop-opacity="1" stop-color="rgb(9.637451%, 30.633545%, 70.545959%)" offset="0.121094"/><stop stop-opacity="1" stop-color="rgb(9.94873%, 30.685425%, 70.63446%)" offset="0.125"/><stop stop-opacity="1" stop-color="rgb(10.26001%, 30.737305%, 70.721436%)" offset="0.128906"/><stop stop-opacity="1" stop-color="rgb(10.571289%, 30.789185%, 70.808411%)" offset="0.132812"/><stop stop-opacity="1" stop-color="rgb(10.881042%, 30.841064%, 70.895386%)" offset="0.136719"/><stop stop-opacity="1" stop-color="rgb(11.192322%, 30.892944%, 70.983887%)" offset="0.140625"/><stop stop-opacity="1" stop-color="rgb(11.503601%, 30.944824%, 71.070862%)" offset="0.144531"/><stop stop-opacity="1" stop-color="rgb(11.81488%, 30.99823%, 71.157837%)" offset="0.148438"/><stop stop-opacity="1" stop-color="rgb(12.124634%, 31.05011%, 71.244812%)" offset="0.152344"/><stop stop-opacity="1" stop-color="rgb(12.435913%, 31.10199%, 71.331787%)" offset="0.15625"/><stop stop-opacity="1" stop-color="rgb(12.747192%, 31.15387%, 71.418762%)" offset="0.160156"/><stop stop-opacity="1" stop-color="rgb(13.058472%, 31.20575%, 71.507263%)" offset="0.164062"/><stop stop-opacity="1" stop-color="rgb(13.369751%, 31.257629%, 71.594238%)" offset="0.167969"/><stop stop-opacity="1" stop-color="rgb(13.68103%, 31.309509%, 71.681213%)" offset="0.171875"/><stop stop-opacity="1" stop-color="rgb(13.990784%, 31.361389%, 71.768188%)" offset="0.175781"/><stop stop-opacity="1" stop-color="rgb(14.302063%, 31.414795%, 71.856689%)" offset="0.179688"/><stop stop-opacity="1" stop-color="rgb(14.613342%, 31.466675%, 71.943665%)" offset="0.183594"/><stop stop-opacity="1" stop-color="rgb(14.924622%, 31.518555%, 72.03064%)" offset="0.1875"/><stop stop-opacity="1" stop-color="rgb(15.234375%, 31.570435%, 72.117615%)" offset="0.191406"/><stop stop-opacity="1" stop-color="rgb(15.545654%, 31.622314%, 72.206116%)" offset="0.195312"/><stop stop-opacity="1" stop-color="rgb(15.856934%, 31.674194%, 72.293091%)" offset="0.199219"/><stop stop-opacity="1" stop-color="rgb(16.168213%, 31.726074%, 72.380066%)" offset="0.203125"/><stop stop-opacity="1" stop-color="rgb(16.477966%, 31.777954%, 72.467041%)" offset="0.207031"/><stop stop-opacity="1" stop-color="rgb(16.789246%, 31.83136%, 72.555542%)" offset="0.210938"/><stop stop-opacity="1" stop-color="rgb(17.100525%, 31.88324%, 72.642517%)" offset="0.214844"/><stop stop-opacity="1" stop-color="rgb(17.411804%, 31.93512%, 72.729492%)" offset="0.21875"/><stop stop-opacity="1" stop-color="rgb(17.721558%, 31.987%, 72.816467%)" offset="0.222656"/><stop stop-opacity="1" stop-color="rgb(18.032837%, 32.038879%, 72.904968%)" offset="0.226562"/><stop stop-opacity="1" stop-color="rgb(18.344116%, 32.090759%, 72.991943%)" offset="0.230469"/><stop stop-opacity="1" stop-color="rgb(18.655396%, 32.142639%, 73.078918%)" offset="0.234375"/><stop stop-opacity="1" stop-color="rgb(18.965149%, 32.194519%, 73.165894%)" offset="0.238281"/><stop stop-opacity="1" stop-color="rgb(19.276428%, 32.246399%, 73.254395%)" offset="0.242187"/><stop stop-opacity="1" stop-color="rgb(19.587708%, 32.298279%, 73.34137%)" offset="0.246094"/><stop stop-opacity="1" stop-color="rgb(19.898987%, 32.351685%, 73.428345%)" offset="0.25"/><stop stop-opacity="1" stop-color="rgb(20.210266%, 32.403564%, 73.51532%)" offset="0.253906"/><stop stop-opacity="1" stop-color="rgb(20.521545%, 32.455444%, 73.603821%)" offset="0.257812"/><stop stop-opacity="1" stop-color="rgb(20.831299%, 32.507324%, 73.690796%)" offset="0.261719"/><stop stop-opacity="1" stop-color="rgb(21.142578%, 32.559204%, 73.777771%)" offset="0.265625"/><stop stop-opacity="1" stop-color="rgb(21.453857%, 32.611084%, 73.864746%)" offset="0.269531"/><stop stop-opacity="1" stop-color="rgb(21.765137%, 32.662964%, 73.951721%)" offset="0.273438"/><stop stop-opacity="1" stop-color="rgb(22.07489%, 32.714844%, 74.038696%)" offset="0.277344"/><stop stop-opacity="1" stop-color="rgb(22.386169%, 32.76825%, 74.127197%)" offset="0.28125"/><stop stop-opacity="1" stop-color="rgb(22.697449%, 32.820129%, 74.214172%)" offset="0.285156"/><stop stop-opacity="1" stop-color="rgb(23.008728%, 32.872009%, 74.301147%)" offset="0.289062"/><stop stop-opacity="1" stop-color="rgb(23.318481%, 32.923889%, 74.388123%)" offset="0.292969"/><stop stop-opacity="1" stop-color="rgb(23.629761%, 32.975769%, 74.476624%)" offset="0.296875"/><stop stop-opacity="1" stop-color="rgb(23.94104%, 33.027649%, 74.563599%)" offset="0.300781"/><stop stop-opacity="1" stop-color="rgb(24.252319%, 33.079529%, 74.650574%)" offset="0.304688"/><stop stop-opacity="1" stop-color="rgb(24.562073%, 33.131409%, 74.737549%)" offset="0.308594"/><stop stop-opacity="1" stop-color="rgb(24.873352%, 33.184814%, 74.82605%)" offset="0.3125"/><stop stop-opacity="1" stop-color="rgb(25.184631%, 33.236694%, 74.913025%)" offset="0.316406"/><stop stop-opacity="1" stop-color="rgb(25.495911%, 33.288574%, 75%)" offset="0.320312"/><stop stop-opacity="1" stop-color="rgb(25.80719%, 33.340454%, 75.086975%)" offset="0.324219"/><stop stop-opacity="1" stop-color="rgb(26.118469%, 33.392334%, 75.175476%)" offset="0.328125"/><stop stop-opacity="1" stop-color="rgb(26.428223%, 33.444214%, 75.262451%)" offset="0.332031"/><stop stop-opacity="1" stop-color="rgb(26.739502%, 33.496094%, 75.349426%)" offset="0.335938"/><stop stop-opacity="1" stop-color="rgb(27.050781%, 33.547974%, 75.436401%)" offset="0.339844"/><stop stop-opacity="1" stop-color="rgb(27.362061%, 33.601379%, 75.524902%)" offset="0.34375"/><stop stop-opacity="1" stop-color="rgb(27.671814%, 33.653259%, 75.611877%)" offset="0.347656"/><stop stop-opacity="1" stop-color="rgb(27.983093%, 33.705139%, 75.698853%)" offset="0.351562"/><stop stop-opacity="1" stop-color="rgb(28.294373%, 33.757019%, 75.785828%)" offset="0.355469"/><stop stop-opacity="1" stop-color="rgb(28.605652%, 33.808899%, 75.874329%)" offset="0.359375"/><stop stop-opacity="1" stop-color="rgb(28.915405%, 33.860779%, 75.961304%)" offset="0.363281"/><stop stop-opacity="1" stop-color="rgb(29.226685%, 33.912659%, 76.048279%)" offset="0.367188"/><stop stop-opacity="1" stop-color="rgb(29.537964%, 33.964539%, 76.135254%)" offset="0.371094"/><stop stop-opacity="1" stop-color="rgb(29.849243%, 34.017944%, 76.223755%)" offset="0.375"/><stop stop-opacity="1" stop-color="rgb(30.158997%, 34.069824%, 76.31073%)" offset="0.378906"/><stop stop-opacity="1" stop-color="rgb(30.470276%, 34.121704%, 76.397705%)" offset="0.382812"/><stop stop-opacity="1" stop-color="rgb(30.781555%, 34.173584%, 76.48468%)" offset="0.386719"/><stop stop-opacity="1" stop-color="rgb(31.092834%, 34.225464%, 76.573181%)" offset="0.390625"/><stop stop-opacity="1" stop-color="rgb(31.402588%, 34.277344%, 76.660156%)" offset="0.394531"/><stop stop-opacity="1" stop-color="rgb(31.713867%, 34.329224%, 76.747131%)" offset="0.398438"/><stop stop-opacity="1" stop-color="rgb(32.025146%, 34.381104%, 76.834106%)" offset="0.402344"/><stop stop-opacity="1" stop-color="rgb(32.336426%, 34.434509%, 76.921082%)" offset="0.40625"/><stop stop-opacity="1" stop-color="rgb(32.647705%, 34.486389%, 77.008057%)" offset="0.410156"/><stop stop-opacity="1" stop-color="rgb(32.958984%, 34.538269%, 77.096558%)" offset="0.414062"/><stop stop-opacity="1" stop-color="rgb(33.268738%, 34.590149%, 77.183533%)" offset="0.417969"/><stop stop-opacity="1" stop-color="rgb(33.580017%, 34.642029%, 77.270508%)" offset="0.421875"/><stop stop-opacity="1" stop-color="rgb(33.891296%, 34.693909%, 77.357483%)" offset="0.425781"/><stop stop-opacity="1" stop-color="rgb(34.202576%, 34.745789%, 77.445984%)" offset="0.429688"/><stop stop-opacity="1" stop-color="rgb(34.512329%, 34.797668%, 77.532959%)" offset="0.433594"/><stop stop-opacity="1" stop-color="rgb(34.823608%, 34.851074%, 77.619934%)" offset="0.4375"/><stop stop-opacity="1" stop-color="rgb(35.134888%, 34.902954%, 77.706909%)" offset="0.441406"/><stop stop-opacity="1" stop-color="rgb(35.446167%, 34.954834%, 77.79541%)" offset="0.445312"/><stop stop-opacity="1" stop-color="rgb(35.75592%, 35.006714%, 77.882385%)" offset="0.449219"/><stop stop-opacity="1" stop-color="rgb(36.0672%, 35.058594%, 77.96936%)" offset="0.453125"/><stop stop-opacity="1" stop-color="rgb(36.378479%, 35.110474%, 78.056335%)" offset="0.457031"/><stop stop-opacity="1" stop-color="rgb(36.689758%, 35.162354%, 78.144836%)" offset="0.460938"/><stop stop-opacity="1" stop-color="rgb(36.999512%, 35.214233%, 78.231812%)" offset="0.464844"/><stop stop-opacity="1" stop-color="rgb(37.310791%, 35.266113%, 78.318787%)" offset="0.46875"/><stop stop-opacity="1" stop-color="rgb(37.62207%, 35.317993%, 78.405762%)" offset="0.472656"/><stop stop-opacity="1" stop-color="rgb(37.93335%, 35.371399%, 78.494263%)" offset="0.476562"/><stop stop-opacity="1" stop-color="rgb(38.243103%, 35.423279%, 78.581238%)" offset="0.480469"/><stop stop-opacity="1" stop-color="rgb(38.554382%, 35.475159%, 78.668213%)" offset="0.484375"/><stop stop-opacity="1" stop-color="rgb(38.865662%, 35.527039%, 78.755188%)" offset="0.488281"/><stop stop-opacity="1" stop-color="rgb(39.176941%, 35.578918%, 78.843689%)" offset="0.492188"/><stop stop-opacity="1" stop-color="rgb(39.48822%, 35.630798%, 78.930664%)" offset="0.496094"/><stop stop-opacity="1" stop-color="rgb(39.7995%, 35.682678%, 79.017639%)" offset="0.5"/><stop stop-opacity="1" stop-color="rgb(40.109253%, 35.734558%, 79.104614%)" offset="0.503906"/><stop stop-opacity="1" stop-color="rgb(40.420532%, 35.787964%, 79.193115%)" offset="0.507812"/><stop stop-opacity="1" stop-color="rgb(40.731812%, 35.839844%, 79.28009%)" offset="0.511719"/><stop stop-opacity="1" stop-color="rgb(41.043091%, 35.891724%, 79.367065%)" offset="0.515625"/><stop stop-opacity="1" stop-color="rgb(41.352844%, 35.943604%, 79.454041%)" offset="0.519531"/><stop stop-opacity="1" stop-color="rgb(41.664124%, 35.995483%, 79.541016%)" offset="0.523438"/><stop stop-opacity="1" stop-color="rgb(41.975403%, 36.047363%, 79.627991%)" offset="0.527344"/><stop stop-opacity="1" stop-color="rgb(42.286682%, 36.099243%, 79.716492%)" offset="0.53125"/><stop stop-opacity="1" stop-color="rgb(42.596436%, 36.151123%, 79.803467%)" offset="0.535156"/><stop stop-opacity="1" stop-color="rgb(42.907715%, 36.204529%, 79.890442%)" offset="0.539062"/><stop stop-opacity="1" stop-color="rgb(43.218994%, 36.256409%, 79.977417%)" offset="0.542969"/><stop stop-opacity="1" stop-color="rgb(43.530273%, 36.308289%, 80.065918%)" offset="0.546875"/><stop stop-opacity="1" stop-color="rgb(43.840027%, 36.360168%, 80.152893%)" offset="0.550781"/><stop stop-opacity="1" stop-color="rgb(44.151306%, 36.412048%, 80.239868%)" offset="0.554687"/><stop stop-opacity="1" stop-color="rgb(44.462585%, 36.463928%, 80.326843%)" offset="0.558594"/><stop stop-opacity="1" stop-color="rgb(44.773865%, 36.515808%, 80.415344%)" offset="0.5625"/><stop stop-opacity="1" stop-color="rgb(45.083618%, 36.567688%, 80.502319%)" offset="0.566406"/><stop stop-opacity="1" stop-color="rgb(45.394897%, 36.621094%, 80.589294%)" offset="0.570312"/><stop stop-opacity="1" stop-color="rgb(45.706177%, 36.672974%, 80.67627%)" offset="0.574219"/><stop stop-opacity="1" stop-color="rgb(46.017456%, 36.724854%, 80.764771%)" offset="0.578125"/><stop stop-opacity="1" stop-color="rgb(46.328735%, 36.776733%, 80.851746%)" offset="0.582031"/><stop stop-opacity="1" stop-color="rgb(46.640015%, 36.828613%, 80.938721%)" offset="0.585937"/><stop stop-opacity="1" stop-color="rgb(46.949768%, 36.880493%, 81.025696%)" offset="0.589844"/><stop stop-opacity="1" stop-color="rgb(47.261047%, 36.932373%, 81.114197%)" offset="0.59375"/><stop stop-opacity="1" stop-color="rgb(47.572327%, 36.984253%, 81.201172%)" offset="0.597656"/><stop stop-opacity="1" stop-color="rgb(47.883606%, 37.037659%, 81.288147%)" offset="0.601562"/><stop stop-opacity="1" stop-color="rgb(48.193359%, 37.089539%, 81.375122%)" offset="0.605469"/><stop stop-opacity="1" stop-color="rgb(48.504639%, 37.141418%, 81.463623%)" offset="0.609375"/><stop stop-opacity="1" stop-color="rgb(48.815918%, 37.193298%, 81.550598%)" offset="0.613281"/><stop stop-opacity="1" stop-color="rgb(49.127197%, 37.245178%, 81.637573%)" offset="0.617188"/><stop stop-opacity="1" stop-color="rgb(49.436951%, 37.297058%, 81.724548%)" offset="0.621094"/><stop stop-opacity="1" stop-color="rgb(49.74823%, 37.348938%, 81.813049%)" offset="0.625"/><stop stop-opacity="1" stop-color="rgb(50.059509%, 37.400818%, 81.900024%)" offset="0.628906"/><stop stop-opacity="1" stop-color="rgb(50.370789%, 37.454224%, 81.987%)" offset="0.632812"/><stop stop-opacity="1" stop-color="rgb(50.680542%, 37.506104%, 82.073975%)" offset="0.636719"/><stop stop-opacity="1" stop-color="rgb(50.991821%, 37.557983%, 82.16095%)" offset="0.640625"/><stop stop-opacity="1" stop-color="rgb(51.303101%, 37.609863%, 82.247925%)" offset="0.644531"/><stop stop-opacity="1" stop-color="rgb(51.61438%, 37.661743%, 82.336426%)" offset="0.648438"/><stop stop-opacity="1" stop-color="rgb(51.925659%, 37.713623%, 82.423401%)" offset="0.652344"/><stop stop-opacity="1" stop-color="rgb(52.236938%, 37.765503%, 82.510376%)" offset="0.65625"/><stop stop-opacity="1" stop-color="rgb(52.546692%, 37.817383%, 82.597351%)" offset="0.660156"/><stop stop-opacity="1" stop-color="rgb(52.857971%, 37.869263%, 82.685852%)" offset="0.664063"/><stop stop-opacity="1" stop-color="rgb(53.16925%, 37.921143%, 82.772827%)" offset="0.667969"/><stop stop-opacity="1" stop-color="rgb(53.48053%, 37.974548%, 82.859802%)" offset="0.671875"/><stop stop-opacity="1" stop-color="rgb(53.790283%, 38.026428%, 82.946777%)" offset="0.675781"/><stop stop-opacity="1" stop-color="rgb(54.101562%, 38.078308%, 83.035278%)" offset="0.679688"/><stop stop-opacity="1" stop-color="rgb(54.412842%, 38.130188%, 83.122253%)" offset="0.683594"/><stop stop-opacity="1" stop-color="rgb(54.724121%, 38.182068%, 83.209229%)" offset="0.6875"/><stop stop-opacity="1" stop-color="rgb(55.033875%, 38.233948%, 83.296204%)" offset="0.691406"/><stop stop-opacity="1" stop-color="rgb(55.345154%, 38.285828%, 83.384705%)" offset="0.695312"/><stop stop-opacity="1" stop-color="rgb(55.656433%, 38.337708%, 83.47168%)" offset="0.699219"/><stop stop-opacity="1" stop-color="rgb(55.967712%, 38.391113%, 83.558655%)" offset="0.703125"/><stop stop-opacity="1" stop-color="rgb(56.277466%, 38.442993%, 83.64563%)" offset="0.707031"/><stop stop-opacity="1" stop-color="rgb(56.588745%, 38.494873%, 83.734131%)" offset="0.710937"/><stop stop-opacity="1" stop-color="rgb(56.900024%, 38.546753%, 83.821106%)" offset="0.714844"/><stop stop-opacity="1" stop-color="rgb(57.211304%, 38.598633%, 83.908081%)" offset="0.71875"/><stop stop-opacity="1" stop-color="rgb(57.521057%, 38.650513%, 83.995056%)" offset="0.722656"/><stop stop-opacity="1" stop-color="rgb(57.832336%, 38.702393%, 84.083557%)" offset="0.726562"/><stop stop-opacity="1" stop-color="rgb(58.143616%, 38.754272%, 84.170532%)" offset="0.730469"/><stop stop-opacity="1" stop-color="rgb(58.454895%, 38.807678%, 84.257507%)" offset="0.734375"/><stop stop-opacity="1" stop-color="rgb(58.766174%, 38.859558%, 84.344482%)" offset="0.738281"/><stop stop-opacity="1" stop-color="rgb(59.077454%, 38.911438%, 84.432983%)" offset="0.742188"/><stop stop-opacity="1" stop-color="rgb(59.387207%, 38.963318%, 84.519958%)" offset="0.746094"/><stop stop-opacity="1" stop-color="rgb(59.698486%, 39.015198%, 84.606934%)" offset="0.75"/><stop stop-opacity="1" stop-color="rgb(60.009766%, 39.067078%, 84.693909%)" offset="0.753906"/><stop stop-opacity="1" stop-color="rgb(60.321045%, 39.118958%, 84.780884%)" offset="0.757812"/><stop stop-opacity="1" stop-color="rgb(60.630798%, 39.170837%, 84.867859%)" offset="0.761719"/><stop stop-opacity="1" stop-color="rgb(60.942078%, 39.224243%, 84.95636%)" offset="0.765625"/><stop stop-opacity="1" stop-color="rgb(61.253357%, 39.276123%, 85.043335%)" offset="0.769531"/><stop stop-opacity="1" stop-color="rgb(61.564636%, 39.328003%, 85.13031%)" offset="0.773438"/><stop stop-opacity="1" stop-color="rgb(61.87439%, 39.379883%, 85.217285%)" offset="0.777344"/><stop stop-opacity="1" stop-color="rgb(62.185669%, 39.431763%, 85.305786%)" offset="0.78125"/><stop stop-opacity="1" stop-color="rgb(62.496948%, 39.483643%, 85.392761%)" offset="0.785156"/><stop stop-opacity="1" stop-color="rgb(62.808228%, 39.535522%, 85.479736%)" offset="0.789063"/><stop stop-opacity="1" stop-color="rgb(63.117981%, 39.587402%, 85.566711%)" offset="0.792969"/><stop stop-opacity="1" stop-color="rgb(63.42926%, 39.640808%, 85.655212%)" offset="0.796875"/><stop stop-opacity="1" stop-color="rgb(63.74054%, 39.692688%, 85.742188%)" offset="0.800781"/><stop stop-opacity="1" stop-color="rgb(64.051819%, 39.744568%, 85.829163%)" offset="0.804688"/><stop stop-opacity="1" stop-color="rgb(64.361572%, 39.796448%, 85.916138%)" offset="0.808594"/><stop stop-opacity="1" stop-color="rgb(64.672852%, 39.848328%, 86.004639%)" offset="0.8125"/><stop stop-opacity="1" stop-color="rgb(64.984131%, 39.900208%, 86.091614%)" offset="0.816406"/><stop stop-opacity="1" stop-color="rgb(65.29541%, 39.952087%, 86.178589%)" offset="0.820313"/><stop stop-opacity="1" stop-color="rgb(65.606689%, 40.003967%, 86.265564%)" offset="0.824219"/><stop stop-opacity="1" stop-color="rgb(65.917969%, 40.057373%, 86.354065%)" offset="0.828125"/><stop stop-opacity="1" stop-color="rgb(66.227722%, 40.109253%, 86.44104%)" offset="0.832031"/><stop stop-opacity="1" stop-color="rgb(66.539001%, 40.161133%, 86.528015%)" offset="0.835938"/><stop stop-opacity="1" stop-color="rgb(66.850281%, 40.213013%, 86.61499%)" offset="0.839844"/><stop stop-opacity="1" stop-color="rgb(67.16156%, 40.264893%, 86.703491%)" offset="0.84375"/><stop stop-opacity="1" stop-color="rgb(67.471313%, 40.316772%, 86.790466%)" offset="0.847656"/><stop stop-opacity="1" stop-color="rgb(67.782593%, 40.368652%, 86.877441%)" offset="0.851562"/><stop stop-opacity="1" stop-color="rgb(68.093872%, 40.420532%, 86.964417%)" offset="0.855469"/><stop stop-opacity="1" stop-color="rgb(68.405151%, 40.472412%, 87.052917%)" offset="0.859375"/><stop stop-opacity="1" stop-color="rgb(68.714905%, 40.524292%, 87.139893%)" offset="0.863281"/><stop stop-opacity="1" stop-color="rgb(69.026184%, 40.577698%, 87.226868%)" offset="0.867187"/><stop stop-opacity="1" stop-color="rgb(69.337463%, 40.629578%, 87.313843%)" offset="0.871094"/><stop stop-opacity="1" stop-color="rgb(69.648743%, 40.681458%, 87.400818%)" offset="0.875"/><stop stop-opacity="1" stop-color="rgb(69.958496%, 40.733337%, 87.487793%)" offset="0.878906"/><stop stop-opacity="1" stop-color="rgb(70.269775%, 40.785217%, 87.576294%)" offset="0.882812"/><stop stop-opacity="1" stop-color="rgb(70.581055%, 40.837097%, 87.663269%)" offset="0.886719"/><stop stop-opacity="1" stop-color="rgb(70.892334%, 40.888977%, 87.750244%)" offset="0.890625"/><stop stop-opacity="1" stop-color="rgb(71.202087%, 40.940857%, 87.837219%)" offset="0.894531"/><stop stop-opacity="1" stop-color="rgb(71.513367%, 40.994263%, 87.92572%)" offset="0.898437"/><stop stop-opacity="1" stop-color="rgb(71.824646%, 41.046143%, 88.012695%)" offset="0.902344"/><stop stop-opacity="1" stop-color="rgb(72.135925%, 41.098022%, 88.09967%)" offset="0.90625"/><stop stop-opacity="1" stop-color="rgb(72.447205%, 41.149902%, 88.186646%)" offset="0.910156"/><stop stop-opacity="1" stop-color="rgb(72.758484%, 41.201782%, 88.275146%)" offset="0.914062"/><stop stop-opacity="1" stop-color="rgb(73.068237%, 41.253662%, 88.362122%)" offset="0.917969"/><stop stop-opacity="1" stop-color="rgb(73.379517%, 41.305542%, 88.449097%)" offset="0.921875"/><stop stop-opacity="1" stop-color="rgb(73.690796%, 41.357422%, 88.536072%)" offset="0.925781"/><stop stop-opacity="1" stop-color="rgb(74.002075%, 41.410828%, 88.624573%)" offset="0.929688"/><stop stop-opacity="1" stop-color="rgb(74.311829%, 41.462708%, 88.711548%)" offset="0.933594"/><stop stop-opacity="1" stop-color="rgb(74.623108%, 41.514587%, 88.798523%)" offset="0.9375"/><stop stop-opacity="1" stop-color="rgb(74.934387%, 41.566467%, 88.885498%)" offset="0.941406"/><stop stop-opacity="1" stop-color="rgb(75.245667%, 41.618347%, 88.973999%)" offset="0.945312"/><stop stop-opacity="1" stop-color="rgb(75.55542%, 41.670227%, 89.060974%)" offset="0.949219"/><stop stop-opacity="1" stop-color="rgb(75.866699%, 41.722107%, 89.147949%)" offset="0.953125"/><stop stop-opacity="1" stop-color="rgb(76.177979%, 41.773987%, 89.234924%)" offset="0.957031"/><stop stop-opacity="1" stop-color="rgb(76.489258%, 41.827393%, 89.323425%)" offset="0.960938"/><stop stop-opacity="1" stop-color="rgb(76.799011%, 41.879272%, 89.4104%)" offset="0.964844"/><stop stop-opacity="1" stop-color="rgb(77.110291%, 41.931152%, 89.497375%)" offset="0.96875"/><stop stop-opacity="1" stop-color="rgb(77.42157%, 41.983032%, 89.584351%)" offset="0.972656"/><stop stop-opacity="1" stop-color="rgb(77.732849%, 42.034912%, 89.672852%)" offset="0.976563"/><stop stop-opacity="1" stop-color="rgb(78.044128%, 42.086792%, 89.759827%)" offset="0.980469"/><stop stop-opacity="1" stop-color="rgb(78.355408%, 42.138672%, 89.846802%)" offset="0.984375"/><stop stop-opacity="1" stop-color="rgb(78.665161%, 42.190552%, 89.933777%)" offset="0.988281"/><stop stop-opacity="1" stop-color="rgb(78.97644%, 42.243958%, 90.022278%)" offset="0.992188"/><stop stop-opacity="1" stop-color="rgb(79.28772%, 42.295837%, 90.109253%)" offset="0.996094"/><stop stop-opacity="1" stop-color="rgb(79.598999%, 42.347717%, 90.196228%)" offset="1"/></linearGradient><clipPath id="ebe597c701"><path d="M 63.855469 68.644531 L 124.382812 68.644531 L 124.382812 118.011719 L 63.855469 118.011719 Z M 63.855469 68.644531 " clip-rule="nonzero"/></clipPath></defs><g clip-path="url(#6ad5cdad13)"><g clip-path="url(#9b74588adb)"><g transform="matrix(1, 0, 0, 1, 18, 18)"><g clip-path="url(#c9df6c70a1)"><g clip-path="url(#dc1a6070f7)"><g clip-path="url(#50f2933b23)"><path fill="#7ec5c8" d="M 0.558594 0.558594 L 150.300781 0.558594 L 150.300781 150.300781 L 0.558594 150.300781 Z M 0.558594 0.558594 " fill-opacity="1" fill-rule="nonzero"/></g></g></g></g></g></g><g clip-path="url(#6444c85515)"><g clip-path="url(#7c91e3ea51)"><path stroke-linecap="butt" transform="matrix(0.748005, 0, 0, 0.748005, 24.657042, 24.657058)" fill="none" stroke-linejoin="miter" d="M 91.936171 -0.00108063 C 41.1605 -0.00108063 -0.0010591 41.160478 -0.0010591 91.936149 C -0.0010591 142.71182 41.1605 183.873379 91.936171 183.873379 C 142.711842 183.873379 183.873401 142.71182 183.873401 91.936149 C 183.873401 41.160478 142.711842 -0.00108063 91.936171 -0.00108063 Z M 91.936171 -0.00108063 " stroke="#1b5072" stroke-width="4" stroke-opacity="1" stroke-miterlimit="4"/></g></g><g clip-path="url(#2c7dda0213)"><g clip-path="url(#375b3c9d3b)"><g transform="matrix(1, 0, 0, 1, 48, 48)"><g clip-path="url(#98ad301fe2)"><g clip-path="url(#a1c2c67410)"><g clip-path="url(#60f79ccf32)"><path fill="#fdabf3" d="M 0.804688 0.0820312 L 91.640625 0.0820312 L 91.640625 90.917969 L 0.804688 90.917969 Z M 0.804688 0.0820312 " fill-opacity="1" fill-rule="nonzero"/></g></g></g></g></g></g><g transform="matrix(1, 0, 0, 1, 57, 29)"><g clip-path="url(#6193958253)"><g fill="#c700a1" fill-opacity="1"><g transform="translate(6.255846, 21.623541)"><g><path d="M 2.679688 -6.660156 L 5.585938 -8.378906 C 5.617188 -8.328125 5.660156 -8.261719 5.714844 -8.171875 C 5.867188 -7.941406 5.964844 -7.785156 6.015625 -7.699219 C 6.625 -6.667969 6.804688 -5.691406 6.550781 -4.769531 C 6.300781 -3.847656 5.636719 -3.070312 4.558594 -2.433594 C 3.957031 -2.078125 3.371094 -1.851562 2.792969 -1.75 C 2.21875 -1.648438 1.648438 -1.667969 1.082031 -1.816406 C 0.527344 -1.964844 0.0117188 -2.222656 -0.453125 -2.59375 C -0.921875 -2.960938 -1.316406 -3.417969 -1.640625 -3.960938 C -1.96875 -4.515625 -2.175781 -5.082031 -2.265625 -5.660156 C -2.351562 -6.242188 -2.316406 -6.820312 -2.15625 -7.394531 C -2.007812 -7.957031 -1.746094 -8.472656 -1.375 -8.941406 C -1.003906 -9.410156 -0.542969 -9.804688 0.00390625 -10.128906 C 0.582031 -10.472656 1.164062 -10.671875 1.742188 -10.730469 C 2.324219 -10.789062 2.921875 -10.710938 3.535156 -10.488281 L 3.050781 -9.3125 C 2.632812 -9.457031 2.230469 -9.503906 1.835938 -9.460938 C 1.441406 -9.417969 1.054688 -9.28125 0.667969 -9.054688 C -0.125 -8.582031 -0.625 -7.945312 -0.824219 -7.136719 C -1.027344 -6.332031 -0.886719 -5.519531 -0.402344 -4.707031 C 0.0859375 -3.878906 0.734375 -3.355469 1.542969 -3.136719 C 2.351562 -2.917969 3.15625 -3.042969 3.957031 -3.519531 C 4.640625 -3.921875 5.082031 -4.398438 5.285156 -4.945312 C 5.488281 -5.496094 5.425781 -6.042969 5.101562 -6.589844 L 5.039062 -6.695312 L 3.277344 -5.652344 Z M 2.679688 -6.660156 "/></g></g></g><g fill="#c700a1" fill-opacity="1"><g transform="translate(17.03462, 15.704172)"><g><path d="M 1.613281 -4.039062 L 3.875 -4.769531 L 2.445312 -6.351562 C 2.359375 -6.453125 2.265625 -6.574219 2.164062 -6.710938 C 2.0625 -6.847656 1.957031 -7 1.84375 -7.171875 C 1.855469 -6.980469 1.863281 -6.800781 1.863281 -6.628906 C 1.863281 -6.460938 1.855469 -6.304688 1.847656 -6.15625 Z M 6.289062 -2.03125 L 4.695312 -3.820312 L 1.480469 -2.785156 L 1.214844 -0.390625 L -0.171875 0.0546875 L 1.03125 -9.644531 L 7.679688 -2.480469 Z M 6.289062 -2.03125 "/></g></g></g><g fill="#c700a1" fill-opacity="1"><g transform="translate(27.366711, 12.758707)"><g><path d="M 0.96875 -0.125 L -0.101562 -8.578125 L 1.273438 -8.753906 L 2.1875 -1.527344 L 5.261719 -1.917969 L 5.417969 -0.6875 Z M 0.96875 -0.125 "/></g></g></g><g fill="#c700a1" fill-opacity="1"><g transform="translate(35.840985, 11.90421)"><g><path d="M 0.976562 0.046875 L 1.367188 -8.46875 L 6.121094 -8.25 L 6.066406 -7.074219 L 2.699219 -7.230469 L 2.601562 -5.097656 L 5.96875 -4.941406 L 5.910156 -3.726562 L 2.542969 -3.878906 L 2.417969 -1.128906 L 5.785156 -0.976562 L 5.726562 0.265625 Z M 0.976562 0.046875 "/></g></g></g><g fill="#c700a1" fill-opacity="1"><g transform="translate(45.036064, 12.574234)"><g><path d="M 3.40625 -4.230469 L 3.652344 -4.171875 C 4.367188 -4.007812 4.859375 -3.980469 5.132812 -4.09375 C 5.40625 -4.203125 5.589844 -4.472656 5.6875 -4.894531 C 5.796875 -5.351562 5.746094 -5.703125 5.535156 -5.949219 C 5.328125 -6.195312 4.882812 -6.398438 4.203125 -6.554688 L 3.960938 -6.609375 Z M 3.078125 -3.199219 L 2.21875 0.515625 L 0.953125 0.222656 L 2.878906 -8.082031 L 4.761719 -7.644531 C 5.3125 -7.515625 5.734375 -7.382812 6.019531 -7.238281 C 6.308594 -7.097656 6.539062 -6.917969 6.71875 -6.699219 C 6.929688 -6.441406 7.066406 -6.136719 7.132812 -5.785156 C 7.199219 -5.4375 7.1875 -5.070312 7.101562 -4.695312 C 6.945312 -4.027344 6.664062 -3.542969 6.257812 -3.242188 C 5.847656 -2.941406 5.320312 -2.824219 4.675781 -2.894531 L 6.65625 1.542969 L 5.132812 1.191406 L 3.230469 -3.164062 Z M 3.078125 -3.199219 "/></g></g></g><g fill="#c700a1" fill-opacity="1"><g transform="translate(54.342599, 15.099276)"><g><path d="M 4.117188 -7.53125 L 5.398438 -7.011719 L 2.214844 0.890625 L 0.929688 0.375 Z M 4.117188 -7.53125 "/></g></g></g><g fill="#c700a1" fill-opacity="1"><g transform="translate(60.203674, 17.52555)"><g><path d="M 4.117188 -1.402344 L 6.140625 -0.164062 L 6.414062 -2.277344 C 6.433594 -2.410156 6.464844 -2.558594 6.5 -2.726562 C 6.539062 -2.890625 6.585938 -3.070312 6.644531 -3.269531 C 6.507812 -3.132812 6.375 -3.011719 6.246094 -2.902344 C 6.117188 -2.792969 5.992188 -2.695312 5.875 -2.605469 Z M 5.632812 3.449219 L 5.957031 1.074219 L 3.078125 -0.6875 L 1.085938 0.664062 L -0.152344 -0.09375 L 7.992188 -5.496094 L 6.878906 4.214844 Z M 5.632812 3.449219 "/></g></g></g></g></g><g clip-path="url(#f8b89fbf6d)"><g clip-path="url(#c2531e84ee)"><path stroke-linecap="butt" transform="matrix(0.748005, 0, 0, 0.748005, 51.202137, 50.479339)" fill="none" stroke-linejoin="miter" d="M 57.508437 0.00150987 C 25.746879 0.00150987 0.00132131 25.747068 0.00132131 57.508626 C 0.00132131 89.270184 25.746879 115.015742 57.508437 115.015742 C 89.269996 115.015742 115.015553 89.270184 115.015553 57.508626 C 115.015553 25.747068 89.269996 0.00150987 57.508437 0.00150987 Z M 57.508437 0.00150987 " stroke="url(#d5d66f4554)" stroke-width="3" stroke-miterlimit="4"/></g></g><g clip-path="url(#ebe597c701)"><path fill="#1b5072" d="M 67.585938 80.242188 C 67.585938 78.128906 69.304688 76.410156 71.417969 76.410156 L 85.144531 76.410156 L 87.6875 72.589844 C 87.757812 72.507812 87.980469 72.386719 88.066406 72.375 L 100.347656 72.375 C 100.457031 72.386719 100.671875 72.503906 100.730469 72.570312 L 103.292969 76.410156 L 117.019531 76.410156 C 119.132812 76.410156 120.851562 78.128906 120.851562 80.242188 L 120.851562 110.640625 C 120.851562 112.757812 119.132812 114.480469 117.019531 114.480469 L 71.417969 114.480469 C 69.304688 114.480469 67.585938 112.757812 67.585938 110.640625 Z M 71.417969 118.210938 L 117.019531 118.210938 C 121.191406 118.210938 124.582031 114.816406 124.582031 110.640625 L 124.582031 80.242188 C 124.582031 76.070312 121.191406 72.679688 117.019531 72.679688 L 105.289062 72.679688 L 103.835938 70.503906 C 103.125 69.425781 101.664062 68.644531 100.371094 68.644531 L 88.066406 68.644531 C 86.753906 68.644531 85.328125 69.40625 84.597656 70.5 L 83.144531 72.679688 L 71.417969 72.679688 C 67.246094 72.679688 63.855469 76.070312 63.855469 80.242188 L 63.855469 110.640625 C 63.855469 114.816406 67.246094 118.210938 71.417969 118.210938 " fill-opacity="1" fill-rule="nonzero"/></g><path fill="#1b5072" d="M 94.21875 82.679688 C 101.257812 82.679688 106.984375 88.40625 106.984375 95.445312 C 106.984375 102.480469 101.257812 108.207031 94.21875 108.207031 C 87.179688 108.207031 81.453125 102.480469 81.453125 95.445312 C 81.453125 88.40625 87.179688 82.679688 94.21875 82.679688 Z M 94.21875 111.9375 C 103.3125 111.9375 110.714844 104.539062 110.714844 95.445312 C 110.714844 86.347656 103.3125 78.949219 94.21875 78.949219 C 85.121094 78.949219 77.722656 86.347656 77.722656 95.445312 C 77.722656 104.539062 85.121094 111.9375 94.21875 111.9375 " fill-opacity="1" fill-rule="nonzero"/><path fill="#c700a1" d="M 94.21875 104.390625 C 99.160156 104.390625 103.167969 100.386719 103.167969 95.445312 C 103.167969 90.5 99.160156 86.496094 94.21875 86.496094 C 89.277344 86.496094 85.269531 90.5 85.269531 95.445312 C 85.269531 100.386719 89.277344 104.390625 94.21875 104.390625 " fill-opacity="1" fill-rule="nonzero"/><path fill="#1b5072" d="M 74.5625 80.496094 C 75.648438 80.496094 76.53125 81.378906 76.53125 82.460938 C 76.53125 83.546875 75.648438 84.429688 74.5625 84.429688 C 73.476562 84.429688 72.597656 83.546875 72.597656 82.460938 C 72.597656 81.378906 73.476562 80.496094 74.5625 80.496094 Z M 74.5625 86.917969 C 77.019531 86.917969 79.019531 84.917969 79.019531 82.460938 C 79.019531 80.007812 77.019531 78.007812 74.5625 78.007812 C 72.105469 78.007812 70.109375 80.007812 70.109375 82.460938 C 70.109375 84.917969 72.105469 86.917969 74.5625 86.917969 " fill-opacity="1" fill-rule="nonzero"/></svg>