<svg xmlns="http://www.w3.org/2000/svg" xmlns:xlink="http://www.w3.org/1999/xlink" width="250" zoomAndPan="magnify" viewBox="0 0 187.5 187.499992" height="250" preserveAspectRatio="xMidYMid meet" version="1.0"><defs><g/><clipPath id="771e3c42aa"><path d="M 18.558594 18.558594 L 168.300781 18.558594 L 168.300781 168.300781 L 18.558594 168.300781 Z M 18.558594 18.558594 " clip-rule="nonzero"/></clipPath><clipPath id="2b6e5db9ff"><path d="M 93.429688 18.558594 C 52.078125 18.558594 18.558594 52.078125 18.558594 93.429688 C 18.558594 134.78125 52.078125 168.300781 93.429688 168.300781 C 134.78125 168.300781 168.300781 134.78125 168.300781 93.429688 C 168.300781 52.078125 134.78125 18.558594 93.429688 18.558594 Z M 93.429688 18.558594 " clip-rule="nonzero"/></clipPath><clipPath id="e0e03fbba3"><path d="M 0.558594 0.558594 L 150.300781 0.558594 L 150.300781 150.300781 L 0.558594 150.300781 Z M 0.558594 0.558594 " clip-rule="nonzero"/></clipPath><clipPath id="990c32cbe2"><path d="M 75.429688 0.558594 C 34.078125 0.558594 0.558594 34.078125 0.558594 75.429688 C 0.558594 116.78125 34.078125 150.300781 75.429688 150.300781 C 116.78125 150.300781 150.300781 116.78125 150.300781 75.429688 C 150.300781 34.078125 116.78125 0.558594 75.429688 0.558594 Z M 75.429688 0.558594 " clip-rule="nonzero"/></clipPath><clipPath id="98d70f859f"><rect x="0" width="151" y="0" height="151"/></clipPath><clipPath id="16267f932a"><path d="M 24.65625 24.65625 L 162.195312 24.65625 L 162.195312 162.195312 L 24.65625 162.195312 Z M 24.65625 24.65625 " clip-rule="nonzero"/></clipPath><clipPath id="6f016c9fae"><path d="M 93.425781 24.65625 C 55.445312 24.65625 24.65625 55.445312 24.65625 93.425781 C 24.65625 131.40625 55.445312 162.195312 93.425781 162.195312 C 131.40625 162.195312 162.195312 131.40625 162.195312 93.425781 C 162.195312 55.445312 131.40625 24.65625 93.425781 24.65625 Z M 93.425781 24.65625 " clip-rule="nonzero"/></clipPath><linearGradient x1="-0.000000292427" gradientTransform="matrix(2.873047, 0, 0, 2.873047, 0.000000840155, -0.00000182651)" y1="32" x2="63.999996" gradientUnits="userSpaceOnUse" y2="32" id="f1c5d06197"><stop stop-opacity="1" stop-color="rgb(100%, 96.859741%, 67.83905%)" offset="0"/><stop stop-opacity="1" stop-color="rgb(100%, 96.739197%, 67.955017%)" offset="0.0078125"/><stop stop-opacity="1" stop-color="rgb(100%, 96.499634%, 68.188477%)" offset="0.015625"/><stop stop-opacity="1" stop-color="rgb(100%, 96.261597%, 68.42041%)" offset="0.0234375"/><stop stop-opacity="1" stop-color="rgb(100%, 96.022034%, 68.65387%)" offset="0.03125"/><stop stop-opacity="1" stop-color="rgb(100%, 95.783997%, 68.887329%)" offset="0.0390625"/><stop stop-opacity="1" stop-color="rgb(100%, 95.544434%, 69.119263%)" offset="0.046875"/><stop stop-opacity="1" stop-color="rgb(100%, 95.304871%, 69.352722%)" offset="0.0546875"/><stop stop-opacity="1" stop-color="rgb(100%, 95.066833%, 69.586182%)" offset="0.0625"/><stop stop-opacity="1" stop-color="rgb(100%, 94.827271%, 69.818115%)" offset="0.0703125"/><stop stop-opacity="1" stop-color="rgb(100%, 94.587708%, 70.051575%)" offset="0.078125"/><stop stop-opacity="1" stop-color="rgb(100%, 94.34967%, 70.283508%)" offset="0.0859375"/><stop stop-opacity="1" stop-color="rgb(100%, 94.110107%, 70.516968%)" offset="0.09375"/><stop stop-opacity="1" stop-color="rgb(100%, 93.87207%, 70.750427%)" offset="0.101563"/><stop stop-opacity="1" stop-color="rgb(100%, 93.632507%, 70.982361%)" offset="0.109375"/><stop stop-opacity="1" stop-color="rgb(100%, 93.392944%, 71.21582%)" offset="0.117187"/><stop stop-opacity="1" stop-color="rgb(100%, 93.154907%, 71.44928%)" offset="0.125"/><stop stop-opacity="1" stop-color="rgb(100%, 92.915344%, 71.681213%)" offset="0.132812"/><stop stop-opacity="1" stop-color="rgb(100%, 92.675781%, 71.914673%)" offset="0.140625"/><stop stop-opacity="1" stop-color="rgb(100%, 92.437744%, 72.146606%)" offset="0.148438"/><stop stop-opacity="1" stop-color="rgb(100%, 92.198181%, 72.380066%)" offset="0.15625"/><stop stop-opacity="1" stop-color="rgb(100%, 91.960144%, 72.613525%)" offset="0.164062"/><stop stop-opacity="1" stop-color="rgb(100%, 91.720581%, 72.845459%)" offset="0.171875"/><stop stop-opacity="1" stop-color="rgb(100%, 91.481018%, 73.078918%)" offset="0.179688"/><stop stop-opacity="1" stop-color="rgb(100%, 91.242981%, 73.312378%)" offset="0.1875"/><stop stop-opacity="1" stop-color="rgb(100%, 91.003418%, 73.544312%)" offset="0.195312"/><stop stop-opacity="1" stop-color="rgb(100%, 90.765381%, 73.777771%)" offset="0.203125"/><stop stop-opacity="1" stop-color="rgb(100%, 90.525818%, 74.009705%)" offset="0.210938"/><stop stop-opacity="1" stop-color="rgb(100%, 90.286255%, 74.243164%)" offset="0.21875"/><stop stop-opacity="1" stop-color="rgb(100%, 90.048218%, 74.476624%)" offset="0.226562"/><stop stop-opacity="1" stop-color="rgb(100%, 89.808655%, 74.708557%)" offset="0.234375"/><stop stop-opacity="1" stop-color="rgb(100%, 89.569092%, 74.942017%)" offset="0.242188"/><stop stop-opacity="1" stop-color="rgb(100%, 89.331055%, 75.175476%)" offset="0.25"/><stop stop-opacity="1" stop-color="rgb(100%, 89.091492%, 75.40741%)" offset="0.257812"/><stop stop-opacity="1" stop-color="rgb(100%, 88.853455%, 75.640869%)" offset="0.265625"/><stop stop-opacity="1" stop-color="rgb(100%, 88.613892%, 75.872803%)" offset="0.273438"/><stop stop-opacity="1" stop-color="rgb(100%, 88.374329%, 76.106262%)" offset="0.28125"/><stop stop-opacity="1" stop-color="rgb(100%, 88.136292%, 76.339722%)" offset="0.289063"/><stop stop-opacity="1" stop-color="rgb(100%, 87.896729%, 76.571655%)" offset="0.296875"/><stop stop-opacity="1" stop-color="rgb(100%, 87.657166%, 76.805115%)" offset="0.304688"/><stop stop-opacity="1" stop-color="rgb(100%, 87.419128%, 77.038574%)" offset="0.3125"/><stop stop-opacity="1" stop-color="rgb(100%, 87.179565%, 77.270508%)" offset="0.320312"/><stop stop-opacity="1" stop-color="rgb(100%, 86.941528%, 77.503967%)" offset="0.328125"/><stop stop-opacity="1" stop-color="rgb(100%, 86.701965%, 77.735901%)" offset="0.335937"/><stop stop-opacity="1" stop-color="rgb(100%, 86.462402%, 77.96936%)" offset="0.34375"/><stop stop-opacity="1" stop-color="rgb(100%, 86.224365%, 78.20282%)" offset="0.351562"/><stop stop-opacity="1" stop-color="rgb(100%, 85.984802%, 78.434753%)" offset="0.359375"/><stop stop-opacity="1" stop-color="rgb(100%, 85.745239%, 78.668213%)" offset="0.367188"/><stop stop-opacity="1" stop-color="rgb(100%, 85.507202%, 78.901672%)" offset="0.375"/><stop stop-opacity="1" stop-color="rgb(100%, 85.267639%, 79.133606%)" offset="0.382812"/><stop stop-opacity="1" stop-color="rgb(100%, 85.029602%, 79.367065%)" offset="0.390625"/><stop stop-opacity="1" stop-color="rgb(100%, 84.790039%, 79.598999%)" offset="0.398438"/><stop stop-opacity="1" stop-color="rgb(100%, 84.550476%, 79.832458%)" offset="0.40625"/><stop stop-opacity="1" stop-color="rgb(100%, 84.312439%, 80.065918%)" offset="0.414063"/><stop stop-opacity="1" stop-color="rgb(100%, 84.072876%, 80.297852%)" offset="0.421875"/><stop stop-opacity="1" stop-color="rgb(100%, 83.834839%, 80.531311%)" offset="0.429688"/><stop stop-opacity="1" stop-color="rgb(100%, 83.595276%, 80.764771%)" offset="0.4375"/><stop stop-opacity="1" stop-color="rgb(100%, 83.355713%, 80.996704%)" offset="0.445312"/><stop stop-opacity="1" stop-color="rgb(100%, 83.117676%, 81.230164%)" offset="0.453125"/><stop stop-opacity="1" stop-color="rgb(100%, 82.878113%, 81.462097%)" offset="0.460937"/><stop stop-opacity="1" stop-color="rgb(100%, 82.63855%, 81.695557%)" offset="0.46875"/><stop stop-opacity="1" stop-color="rgb(100%, 82.400513%, 81.929016%)" offset="0.476562"/><stop stop-opacity="1" stop-color="rgb(100%, 82.16095%, 82.16095%)" offset="0.484375"/><stop stop-opacity="1" stop-color="rgb(100%, 81.922913%, 82.394409%)" offset="0.492188"/><stop stop-opacity="1" stop-color="rgb(100%, 81.68335%, 82.627869%)" offset="0.5"/><stop stop-opacity="1" stop-color="rgb(100%, 81.443787%, 82.859802%)" offset="0.507812"/><stop stop-opacity="1" stop-color="rgb(100%, 81.20575%, 83.093262%)" offset="0.515625"/><stop stop-opacity="1" stop-color="rgb(100%, 80.966187%, 83.326721%)" offset="0.523438"/><stop stop-opacity="1" stop-color="rgb(100%, 80.726624%, 83.558655%)" offset="0.53125"/><stop stop-opacity="1" stop-color="rgb(100%, 80.488586%, 83.792114%)" offset="0.539062"/><stop stop-opacity="1" stop-color="rgb(100%, 80.249023%, 84.024048%)" offset="0.546875"/><stop stop-opacity="1" stop-color="rgb(100%, 80.010986%, 84.257507%)" offset="0.554688"/><stop stop-opacity="1" stop-color="rgb(100%, 79.771423%, 84.490967%)" offset="0.5625"/><stop stop-opacity="1" stop-color="rgb(100%, 79.53186%, 84.7229%)" offset="0.570313"/><stop stop-opacity="1" stop-color="rgb(100%, 79.293823%, 84.95636%)" offset="0.578125"/><stop stop-opacity="1" stop-color="rgb(100%, 79.05426%, 85.189819%)" offset="0.585938"/><stop stop-opacity="1" stop-color="rgb(100%, 78.814697%, 85.421753%)" offset="0.59375"/><stop stop-opacity="1" stop-color="rgb(100%, 78.57666%, 85.655212%)" offset="0.601563"/><stop stop-opacity="1" stop-color="rgb(100%, 78.337097%, 85.887146%)" offset="0.609375"/><stop stop-opacity="1" stop-color="rgb(100%, 78.09906%, 86.120605%)" offset="0.617188"/><stop stop-opacity="1" stop-color="rgb(100%, 77.859497%, 86.354065%)" offset="0.625"/><stop stop-opacity="1" stop-color="rgb(100%, 77.619934%, 86.585999%)" offset="0.632812"/><stop stop-opacity="1" stop-color="rgb(100%, 77.381897%, 86.819458%)" offset="0.640625"/><stop stop-opacity="1" stop-color="rgb(100%, 77.142334%, 87.052917%)" offset="0.648437"/><stop stop-opacity="1" stop-color="rgb(100%, 76.904297%, 87.284851%)" offset="0.65625"/><stop stop-opacity="1" stop-color="rgb(100%, 76.664734%, 87.518311%)" offset="0.664062"/><stop stop-opacity="1" stop-color="rgb(100%, 76.425171%, 87.750244%)" offset="0.671875"/><stop stop-opacity="1" stop-color="rgb(100%, 76.187134%, 87.983704%)" offset="0.679687"/><stop stop-opacity="1" stop-color="rgb(100%, 75.947571%, 88.217163%)" offset="0.6875"/><stop stop-opacity="1" stop-color="rgb(100%, 75.708008%, 88.449097%)" offset="0.695312"/><stop stop-opacity="1" stop-color="rgb(100%, 75.469971%, 88.682556%)" offset="0.703125"/><stop stop-opacity="1" stop-color="rgb(100%, 75.230408%, 88.916016%)" offset="0.710938"/><stop stop-opacity="1" stop-color="rgb(100%, 74.992371%, 89.147949%)" offset="0.71875"/><stop stop-opacity="1" stop-color="rgb(100%, 74.752808%, 89.381409%)" offset="0.726562"/><stop stop-opacity="1" stop-color="rgb(100%, 74.513245%, 89.613342%)" offset="0.734375"/><stop stop-opacity="1" stop-color="rgb(100%, 74.275208%, 89.846802%)" offset="0.742188"/><stop stop-opacity="1" stop-color="rgb(100%, 74.035645%, 90.080261%)" offset="0.75"/><stop stop-opacity="1" stop-color="rgb(100%, 73.796082%, 90.312195%)" offset="0.757812"/><stop stop-opacity="1" stop-color="rgb(100%, 73.558044%, 90.545654%)" offset="0.765625"/><stop stop-opacity="1" stop-color="rgb(100%, 73.318481%, 90.779114%)" offset="0.773438"/><stop stop-opacity="1" stop-color="rgb(100%, 73.080444%, 91.011047%)" offset="0.78125"/><stop stop-opacity="1" stop-color="rgb(100%, 72.840881%, 91.244507%)" offset="0.789062"/><stop stop-opacity="1" stop-color="rgb(100%, 72.601318%, 91.47644%)" offset="0.796875"/><stop stop-opacity="1" stop-color="rgb(100%, 72.363281%, 91.7099%)" offset="0.804688"/><stop stop-opacity="1" stop-color="rgb(100%, 72.123718%, 91.943359%)" offset="0.8125"/><stop stop-opacity="1" stop-color="rgb(100%, 71.884155%, 92.175293%)" offset="0.820313"/><stop stop-opacity="1" stop-color="rgb(100%, 71.646118%, 92.408752%)" offset="0.828125"/><stop stop-opacity="1" stop-color="rgb(100%, 71.406555%, 92.642212%)" offset="0.835938"/><stop stop-opacity="1" stop-color="rgb(100%, 71.168518%, 92.874146%)" offset="0.84375"/><stop stop-opacity="1" stop-color="rgb(100%, 70.928955%, 93.107605%)" offset="0.851563"/><stop stop-opacity="1" stop-color="rgb(100%, 70.689392%, 93.339539%)" offset="0.859375"/><stop stop-opacity="1" stop-color="rgb(100%, 70.451355%, 93.572998%)" offset="0.867188"/><stop stop-opacity="1" stop-color="rgb(100%, 70.211792%, 93.806458%)" offset="0.875"/><stop stop-opacity="1" stop-color="rgb(100%, 69.973755%, 94.038391%)" offset="0.882812"/><stop stop-opacity="1" stop-color="rgb(100%, 69.734192%, 94.271851%)" offset="0.890625"/><stop stop-opacity="1" stop-color="rgb(100%, 69.494629%, 94.50531%)" offset="0.898437"/><stop stop-opacity="1" stop-color="rgb(100%, 69.256592%, 94.737244%)" offset="0.90625"/><stop stop-opacity="1" stop-color="rgb(100%, 69.017029%, 94.970703%)" offset="0.914062"/><stop stop-opacity="1" stop-color="rgb(100%, 68.777466%, 95.204163%)" offset="0.921875"/><stop stop-opacity="1" stop-color="rgb(100%, 68.539429%, 95.436096%)" offset="0.929687"/><stop stop-opacity="1" stop-color="rgb(100%, 68.299866%, 95.669556%)" offset="0.9375"/><stop stop-opacity="1" stop-color="rgb(100%, 68.061829%, 95.901489%)" offset="0.945312"/><stop stop-opacity="1" stop-color="rgb(100%, 67.822266%, 96.134949%)" offset="0.953125"/><stop stop-opacity="1" stop-color="rgb(100%, 67.582703%, 96.368408%)" offset="0.960938"/><stop stop-opacity="1" stop-color="rgb(100%, 67.344666%, 96.600342%)" offset="0.96875"/><stop stop-opacity="1" stop-color="rgb(100%, 67.105103%, 96.833801%)" offset="0.976562"/><stop stop-opacity="1" stop-color="rgb(100%, 66.86554%, 97.067261%)" offset="0.984375"/><stop stop-opacity="1" stop-color="rgb(100%, 66.627502%, 97.299194%)" offset="0.992188"/><stop stop-opacity="1" stop-color="rgb(100%, 66.387939%, 97.532654%)" offset="1"/></linearGradient><clipPath id="280cd6deda"><path d="M 48.804688 48.082031 L 139.640625 48.082031 L 139.640625 138.917969 L 48.804688 138.917969 Z M 48.804688 48.082031 " clip-rule="nonzero"/></clipPath><clipPath id="6a1a804440"><path d="M 94.222656 48.082031 C 69.140625 48.082031 48.804688 68.417969 48.804688 93.5 C 48.804688 118.582031 69.140625 138.917969 94.222656 138.917969 C 119.304688 138.917969 139.640625 118.582031 139.640625 93.5 C 139.640625 68.417969 119.304688 48.082031 94.222656 48.082031 Z M 94.222656 48.082031 " clip-rule="nonzero"/></clipPath><clipPath id="a200e979ab"><path d="M 0.804688 0.0820312 L 91.640625 0.0820312 L 91.640625 90.917969 L 0.804688 90.917969 Z M 0.804688 0.0820312 " clip-rule="nonzero"/></clipPath><clipPath id="f8e6e02eb2"><path d="M 46.222656 0.0820312 C 21.140625 0.0820312 0.804688 20.417969 0.804688 45.5 C 0.804688 70.582031 21.140625 90.917969 46.222656 90.917969 C 71.304688 90.917969 91.640625 70.582031 91.640625 45.5 C 91.640625 20.417969 71.304688 0.0820312 46.222656 0.0820312 Z M 46.222656 0.0820312 " clip-rule="nonzero"/></clipPath><clipPath id="d962a3f739"><rect x="0" width="92" y="0" height="91"/></clipPath><clipPath id="cef4320788"><rect x="0" width="72" y="0" height="24"/></clipPath><clipPath id="f32d105a0b"><path d="M 51.203125 50.480469 L 137.222656 50.480469 L 137.222656 136.5 L 51.203125 136.5 Z M 51.203125 50.480469 " clip-rule="nonzero"/></clipPath><clipPath id="91ad2be54d"><path d="M 94.21875 50.480469 C 70.460938 50.480469 51.203125 69.738281 51.203125 93.496094 C 51.203125 117.253906 70.460938 136.511719 94.21875 136.511719 C 117.976562 136.511719 137.234375 117.253906 137.234375 93.496094 C 137.234375 69.738281 117.976562 50.480469 94.21875 50.480469 Z M 94.21875 50.480469 " clip-rule="nonzero"/></clipPath><clipPath id="8d4fab6fec"><path d="M 65.171875 56.171875 L 122 56.171875 L 122 130.972656 L 65.171875 130.972656 Z M 65.171875 56.171875 " clip-rule="nonzero"/></clipPath></defs><g clip-path="url(#771e3c42aa)"><g clip-path="url(#2b6e5db9ff)"><g transform="matrix(1, 0, 0, 1, 18, 18)"><g clip-path="url(#98d70f859f)"><g clip-path="url(#e0e03fbba3)"><g clip-path="url(#990c32cbe2)"><path fill="#214e6b" d="M 0.558594 0.558594 L 150.300781 0.558594 L 150.300781 150.300781 L 0.558594 150.300781 Z M 0.558594 0.558594 " fill-opacity="1" fill-rule="nonzero"/></g></g></g></g></g></g><g clip-path="url(#16267f932a)"><g clip-path="url(#6f016c9fae)"><path stroke-linecap="butt" transform="matrix(0.748005, 0, 0, 0.748005, 24.657042, 24.657038)" fill="none" stroke-linejoin="miter" d="M 91.936171 -0.00105375 C 41.1605 -0.00105375 -0.0010591 41.160505 -0.0010591 91.936176 C -0.0010591 142.711847 41.1605 183.873406 91.936171 183.873406 C 142.711842 183.873406 183.873401 142.711847 183.873401 91.936176 C 183.873401 41.160505 142.711842 -0.00105375 91.936171 -0.00105375 Z M 91.936171 -0.00105375 " stroke="url(#f1c5d06197)" stroke-width="4" stroke-miterlimit="4"/></g></g><g clip-path="url(#280cd6deda)"><g clip-path="url(#6a1a804440)"><g transform="matrix(1, 0, 0, 1, 48, 48)"><g clip-path="url(#d962a3f739)"><g clip-path="url(#a200e979ab)"><g clip-path="url(#f8e6e02eb2)"><path fill="#f3f6c8" d="M 0.804688 0.0820312 L 91.640625 0.0820312 L 91.640625 90.917969 L 0.804688 90.917969 Z M 0.804688 0.0820312 " fill-opacity="1" fill-rule="nonzero"/></g></g></g></g></g></g><g transform="matrix(1, 0, 0, 1, 58, 29)"><g clip-path="url(#cef4320788)"><g fill="#f3f6c8" fill-opacity="1"><g transform="translate(6.075842, 21.151555)"><g><path d="M 0.832031 -0.511719 L -3.644531 -7.765625 L -2.464844 -8.492188 L 1.359375 -2.296875 L 3.996094 -3.921875 L 4.648438 -2.867188 Z M 0.832031 -0.511719 "/></g></g></g><g fill="#f3f6c8" fill-opacity="1"><g transform="translate(13.252546, 16.776512)"><g><path d="M 6.351562 -6.789062 C 6.207031 -7.195312 5.992188 -7.554688 5.714844 -7.867188 C 5.433594 -8.179688 5.105469 -8.425781 4.726562 -8.613281 C 4.355469 -8.796875 3.964844 -8.902344 3.550781 -8.925781 C 3.140625 -8.949219 2.738281 -8.890625 2.34375 -8.746094 C 1.949219 -8.605469 1.601562 -8.394531 1.300781 -8.117188 C 0.996094 -7.839844 0.757812 -7.507812 0.582031 -7.125 C 0.40625 -6.742188 0.3125 -6.34375 0.296875 -5.925781 C 0.28125 -5.507812 0.347656 -5.097656 0.492188 -4.6875 C 0.640625 -4.28125 0.851562 -3.925781 1.125 -3.613281 C 1.402344 -3.304688 1.730469 -3.058594 2.109375 -2.875 C 2.488281 -2.6875 2.882812 -2.585938 3.292969 -2.5625 C 3.699219 -2.539062 4.101562 -2.597656 4.5 -2.742188 C 4.890625 -2.882812 5.238281 -3.089844 5.535156 -3.367188 C 5.835938 -3.644531 6.074219 -3.976562 6.253906 -4.359375 C 6.425781 -4.746094 6.523438 -5.144531 6.542969 -5.5625 C 6.558594 -5.980469 6.496094 -6.386719 6.351562 -6.789062 Z M 7.710938 -7.277344 C 7.914062 -6.707031 8 -6.132812 7.96875 -5.546875 C 7.9375 -4.960938 7.789062 -4.398438 7.523438 -3.851562 C 7.253906 -3.304688 6.898438 -2.832031 6.453125 -2.4375 C 6.011719 -2.039062 5.507812 -1.734375 4.9375 -1.53125 C 4.359375 -1.324219 3.769531 -1.234375 3.167969 -1.257812 C 2.570312 -1.285156 1.996094 -1.421875 1.453125 -1.671875 C 0.902344 -1.921875 0.429688 -2.261719 0.0351562 -2.691406 C -0.355469 -3.117188 -0.65625 -3.621094 -0.863281 -4.199219 C -1.070312 -4.773438 -1.160156 -5.351562 -1.128906 -5.933594 C -1.101562 -6.519531 -0.953125 -7.085938 -0.6875 -7.632812 C -0.421875 -8.179688 -0.0664062 -8.648438 0.378906 -9.042969 C 0.820312 -9.4375 1.332031 -9.738281 1.914062 -9.945312 C 2.492188 -10.15625 3.074219 -10.246094 3.667969 -10.222656 C 4.257812 -10.203125 4.832031 -10.066406 5.382812 -9.8125 C 5.9375 -9.554688 6.414062 -9.210938 6.808594 -8.777344 C 7.207031 -8.34375 7.507812 -7.84375 7.710938 -7.277344 Z M 7.710938 -7.277344 "/></g></g></g><g fill="#f3f6c8" fill-opacity="1"><g transform="translate(25.584255, 12.740181)"><g><path d="M 5.230469 -4.917969 L 8.589844 -5.257812 C 8.59375 -5.199219 8.605469 -5.117188 8.621094 -5.015625 C 8.660156 -4.742188 8.683594 -4.558594 8.695312 -4.460938 C 8.816406 -3.269531 8.566406 -2.304688 7.949219 -1.578125 C 7.332031 -0.847656 6.402344 -0.421875 5.160156 -0.292969 C 4.464844 -0.222656 3.835938 -0.261719 3.269531 -0.414062 C 2.703125 -0.5625 2.195312 -0.824219 1.746094 -1.195312 C 1.300781 -1.5625 0.945312 -2.011719 0.675781 -2.542969 C 0.40625 -3.074219 0.238281 -3.652344 0.175781 -4.285156 C 0.109375 -4.925781 0.160156 -5.527344 0.324219 -6.089844 C 0.484375 -6.652344 0.761719 -7.160156 1.148438 -7.617188 C 1.519531 -8.066406 1.972656 -8.421875 2.507812 -8.691406 C 3.042969 -8.960938 3.625 -9.125 4.257812 -9.191406 C 4.925781 -9.257812 5.539062 -9.195312 6.089844 -9.007812 C 6.640625 -8.816406 7.148438 -8.492188 7.613281 -8.03125 L 6.683594 -7.171875 C 6.363281 -7.472656 6.015625 -7.6875 5.640625 -7.816406 C 5.265625 -7.941406 4.855469 -7.980469 4.410156 -7.9375 C 3.492188 -7.84375 2.769531 -7.472656 2.25 -6.824219 C 1.726562 -6.175781 1.515625 -5.382812 1.609375 -4.441406 C 1.707031 -3.484375 2.078125 -2.734375 2.71875 -2.195312 C 3.359375 -1.660156 4.144531 -1.4375 5.070312 -1.53125 C 5.859375 -1.609375 6.457031 -1.855469 6.875 -2.269531 C 7.289062 -2.683594 7.464844 -3.207031 7.398438 -3.839844 L 7.386719 -3.960938 L 5.347656 -3.753906 Z M 5.230469 -4.917969 "/></g></g></g><g fill="#f3f6c8" fill-opacity="1"><g transform="translate(37.889821, 11.940927)"><g><path d="M 2.886719 -4.601562 L 3.136719 -4.574219 C 3.863281 -4.492188 4.359375 -4.523438 4.617188 -4.667969 C 4.875 -4.808594 5.027344 -5.097656 5.074219 -5.53125 C 5.125 -5.996094 5.035156 -6.339844 4.796875 -6.558594 C 4.5625 -6.777344 4.097656 -6.925781 3.402344 -7.003906 L 3.15625 -7.03125 Z M 2.679688 -3.539062 L 2.261719 0.25 L 0.972656 0.109375 L 1.910156 -8.363281 L 3.828125 -8.152344 C 4.394531 -8.089844 4.824219 -8.003906 5.128906 -7.894531 C 5.429688 -7.789062 5.683594 -7.636719 5.882812 -7.445312 C 6.121094 -7.210938 6.296875 -6.921875 6.402344 -6.582031 C 6.511719 -6.242188 6.542969 -5.882812 6.5 -5.496094 C 6.425781 -4.816406 6.203125 -4.304688 5.832031 -3.957031 C 5.460938 -3.609375 4.953125 -3.429688 4.304688 -3.425781 L 6.792969 0.75 L 5.238281 0.578125 L 2.835938 -3.523438 Z M 2.679688 -3.539062 "/></g></g></g><g fill="#f3f6c8" fill-opacity="1"><g transform="translate(47.259454, 13.079092)"><g><path d="M 9.199219 -1.355469 C 9.335938 -1.761719 9.394531 -2.175781 9.371094 -2.59375 C 9.347656 -3.011719 9.242188 -3.410156 9.0625 -3.792969 C 8.886719 -4.167969 8.644531 -4.492188 8.339844 -4.765625 C 8.03125 -5.039062 7.679688 -5.246094 7.285156 -5.378906 C 6.886719 -5.515625 6.484375 -5.570312 6.074219 -5.539062 C 5.664062 -5.511719 5.273438 -5.402344 4.894531 -5.210938 C 4.519531 -5.019531 4.195312 -4.769531 3.925781 -4.453125 C 3.652344 -4.132812 3.445312 -3.769531 3.308594 -3.359375 C 3.167969 -2.949219 3.109375 -2.539062 3.132812 -2.125 C 3.15625 -1.710938 3.257812 -1.3125 3.441406 -0.933594 C 3.621094 -0.550781 3.867188 -0.222656 4.171875 0.046875 C 4.476562 0.320312 4.828125 0.523438 5.230469 0.660156 C 5.621094 0.792969 6.023438 0.84375 6.429688 0.816406 C 6.832031 0.785156 7.226562 0.675781 7.605469 0.484375 C 7.984375 0.292969 8.308594 0.0390625 8.582031 -0.273438 C 8.855469 -0.589844 9.0625 -0.949219 9.199219 -1.355469 Z M 10.566406 -0.890625 C 10.371094 -0.316406 10.078125 0.191406 9.691406 0.628906 C 9.300781 1.066406 8.832031 1.414062 8.285156 1.675781 C 7.734375 1.933594 7.160156 2.082031 6.566406 2.117188 C 5.972656 2.152344 5.386719 2.074219 4.816406 1.878906 C 4.234375 1.679688 3.71875 1.382812 3.261719 0.988281 C 2.808594 0.597656 2.449219 0.132812 2.179688 -0.402344 C 1.902344 -0.941406 1.746094 -1.503906 1.703125 -2.082031 C 1.664062 -2.664062 1.742188 -3.242188 1.941406 -3.824219 C 2.136719 -4.398438 2.425781 -4.90625 2.816406 -5.34375 C 3.203125 -5.785156 3.667969 -6.132812 4.21875 -6.398438 C 4.765625 -6.660156 5.335938 -6.804688 5.929688 -6.835938 C 6.523438 -6.871094 7.109375 -6.785156 7.695312 -6.585938 C 8.277344 -6.390625 8.789062 -6.097656 9.238281 -5.710938 C 9.6875 -5.324219 10.050781 -4.863281 10.324219 -4.320312 C 10.597656 -3.773438 10.753906 -3.207031 10.792969 -2.621094 C 10.835938 -2.035156 10.757812 -1.457031 10.566406 -0.890625 Z M 10.566406 -0.890625 "/></g></g></g><g fill="#f3f6c8" fill-opacity="1"><g transform="translate(59.451481, 17.755813)"><g><path d="M 1.300781 -1.207031 L 2.511719 -1.070312 C 2.40625 -0.691406 2.421875 -0.34375 2.554688 -0.0273438 C 2.691406 0.289062 2.945312 0.558594 3.316406 0.78125 C 3.667969 0.996094 4.007812 1.066406 4.332031 0.996094 C 4.660156 0.925781 4.921875 0.726562 5.121094 0.398438 C 5.378906 -0.0273438 5.257812 -0.625 4.75 -1.390625 C 4.679688 -1.5 4.625 -1.585938 4.585938 -1.640625 C 4.019531 -2.519531 3.699219 -3.195312 3.625 -3.675781 C 3.546875 -4.152344 3.648438 -4.621094 3.925781 -5.082031 C 4.285156 -5.675781 4.78125 -6.035156 5.40625 -6.160156 C 6.03125 -6.28125 6.671875 -6.148438 7.328125 -5.75 C 7.863281 -5.425781 8.253906 -5.050781 8.488281 -4.621094 C 8.722656 -4.195312 8.792969 -3.746094 8.699219 -3.273438 L 7.484375 -3.355469 C 7.476562 -3.671875 7.417969 -3.9375 7.308594 -4.148438 C 7.199219 -4.363281 7.03125 -4.535156 6.804688 -4.671875 C 6.484375 -4.867188 6.183594 -4.9375 5.894531 -4.882812 C 5.605469 -4.832031 5.378906 -4.664062 5.207031 -4.386719 C 4.941406 -3.949219 5.105469 -3.289062 5.703125 -2.414062 C 5.746094 -2.347656 5.78125 -2.292969 5.808594 -2.253906 C 6.328125 -1.484375 6.625 -0.863281 6.703125 -0.382812 C 6.78125 0.0976562 6.675781 0.574219 6.386719 1.050781 C 5.96875 1.742188 5.417969 2.15625 4.738281 2.300781 C 4.058594 2.445312 3.347656 2.292969 2.605469 1.84375 C 1.984375 1.46875 1.5625 1.015625 1.339844 0.492188 C 1.117188 -0.0351562 1.101562 -0.601562 1.300781 -1.207031 Z M 1.300781 -1.207031 "/></g></g></g></g></g><g clip-path="url(#f32d105a0b)"><g clip-path="url(#91ad2be54d)"><path stroke-linecap="butt" transform="matrix(0.748005, 0, 0, 0.748005, 51.202137, 50.479368)" fill="none" stroke-linejoin="miter" d="M 57.508437 0.00147147 C 25.746879 0.00147147 0.00132131 25.747029 0.00132131 57.508587 C 0.00132131 89.270146 25.746879 115.015703 57.508437 115.015703 C 89.269996 115.015703 115.015553 89.270146 115.015553 57.508587 C 115.015553 25.747029 89.269996 0.00147147 57.508437 0.00147147 Z M 57.508437 0.00147147 " stroke="#1b5072" stroke-width="3" stroke-opacity="1" stroke-miterlimit="4"/></g></g><path fill="#214e6b" d="M 83.742188 85.171875 C 84.460938 85.867188 85.925781 87.269531 86.648438 87.964844 C 86.648438 87.964844 86.65625 87.976562 86.660156 87.976562 C 86.492188 89.015625 86.242188 90.636719 86.089844 91.636719 C 86.0625 91.828125 85.988281 92.269531 85.964844 92.449219 C 85.679688 94.085938 87.226562 95.53125 88.828125 95.140625 C 89.238281 95.058594 89.664062 94.773438 90.027344 94.582031 C 90.027344 94.582031 90.910156 94.089844 90.910156 94.089844 C 91.71875 93.644531 92.511719 93.140625 93.230469 92.550781 C 93.292969 92.5 93.386719 92.429688 93.375 92.414062 C 93.421875 92.308594 93.546875 92.199219 93.765625 92.164062 C 94.941406 93.140625 96.289062 94.039062 97.585938 94.878906 C 98.765625 95.582031 100.371094 94.976562 100.859375 93.703125 C 101.011719 93.332031 101.050781 92.921875 101.007812 92.535156 C 100.976562 92.269531 100.898438 91.816406 100.863281 91.554688 C 100.730469 90.675781 100.464844 88.90625 100.320312 87.984375 C 101.265625 87.078125 102.566406 85.839844 103.488281 84.945312 C 103.570312 84.871094 103.667969 84.769531 103.738281 84.6875 C 105.09375 83.171875 104.132812 80.726562 102.113281 80.515625 L 98.125 79.9375 C 98.125 79.9375 97.882812 79.902344 97.742188 79.882812 C 97.183594 78.753906 96.316406 77.011719 95.777344 75.921875 C 94.949219 74.085938 92.335938 73.941406 91.332031 75.695312 L 91.261719 75.816406 L 91.238281 75.859375 L 91.226562 75.890625 C 91.226562 75.890625 91.113281 76.113281 91.113281 76.113281 C 90.574219 77.207031 89.789062 78.789062 89.242188 79.894531 C 87.855469 80.101562 86.035156 80.355469 84.660156 80.566406 C 83.175781 80.820312 82.246094 82.464844 82.777344 83.882812 C 82.953125 84.40625 83.363281 84.808594 83.742188 85.171875 Z M 86.679688 87.863281 C 86.679688 87.859375 86.679688 87.859375 86.679688 87.855469 C 86.679688 87.851562 86.679688 87.855469 86.679688 87.863281 Z M 100.253906 88.046875 Z M 97.613281 79.867188 C 97.617188 79.867188 97.617188 79.867188 97.617188 79.867188 C 97.613281 79.863281 97.609375 79.863281 97.613281 79.867188 Z M 89.367188 79.878906 C 89.367188 79.878906 89.363281 79.878906 89.363281 79.878906 C 89.367188 79.878906 89.367188 79.878906 89.367188 79.878906 C 89.367188 79.878906 89.378906 79.875 89.367188 79.878906 Z M 89.367188 79.878906 " fill-opacity="1" fill-rule="nonzero"/><path fill="#214e6b" d="M 97.5625 65.617188 C 92.820312 64.65625 87.503906 65.515625 83.714844 68.605469 C 83.21875 69.015625 83.691406 69.8125 84.292969 69.5625 C 90.273438 66.988281 97.433594 66.835938 102.894531 70.621094 C 110.257812 75.511719 112.738281 85.484375 108.394531 93.207031 C 105.324219 98.871094 98.882812 102.386719 92.460938 101.933594 C 83.753906 101.550781 76.382812 93.855469 76.316406 85.136719 C 76.1875 81.886719 77.140625 78.714844 78.613281 75.832031 C 79.097656 74.851562 79.644531 73.890625 80.207031 72.890625 C 80.308594 72.710938 80.304688 72.480469 80.171875 72.300781 C 79.996094 72.054688 79.652344 72 79.40625 72.179688 C 78.429688 72.890625 77.589844 73.785156 76.875 74.769531 C 74.742188 77.765625 73.808594 81.519531 73.789062 85.171875 C 73.722656 92.625 78.363281 99.808594 85.144531 102.882812 C 94.40625 107.277344 105.878906 103.539062 110.808594 94.558594 C 117.316406 82.960938 110.644531 68.210938 97.5625 65.617188 Z M 97.5625 65.617188 " fill-opacity="1" fill-rule="nonzero"/><g clip-path="url(#8d4fab6fec)"><path fill="#214e6b" d="M 119.253906 85.917969 C 118.84375 84.777344 119.21875 83.789062 119.710938 82.714844 C 120.410156 81.160156 121.503906 79.46875 121.738281 77.648438 C 122.191406 73.886719 118.394531 72.585938 115.738281 71.152344 C 115.058594 70.757812 114.4375 70.40625 114.015625 69.765625 C 113.851562 69.496094 113.703125 69.148438 113.589844 68.75 C 113.21875 67.507812 113.089844 65.929688 112.753906 64.566406 C 112.34375 62.691406 111.324219 60.894531 109.292969 60.457031 C 108.136719 60.191406 107.058594 60.316406 105.96875 60.472656 C 104.972656 60.625 104.046875 60.835938 103.171875 60.9375 C 102.457031 61.011719 101.800781 61.0625 101.144531 60.855469 C 100.273438 60.542969 99.527344 59.859375 98.804688 59.226562 C 97.324219 57.945312 95.675781 56.113281 93.492188 56.175781 C 91.351562 56.035156 89.53125 57.816406 88.074219 59.125 C 87.359375 59.742188 86.640625 60.421875 85.792969 60.75 C 85.15625 60.964844 84.523438 60.933594 83.816406 60.878906 C 82.941406 60.800781 82.007812 60.617188 81.015625 60.472656 C 79.921875 60.328125 78.84375 60.199219 77.691406 60.46875 C 75.660156 60.898438 74.644531 62.707031 74.238281 64.566406 C 73.785156 66.300781 73.792969 68.277344 72.96875 69.769531 C 72.546875 70.410156 71.925781 70.761719 71.246094 71.160156 C 68.59375 72.582031 64.8125 73.90625 65.261719 77.644531 C 65.496094 79.464844 66.589844 81.152344 67.285156 82.707031 C 67.777344 83.785156 68.152344 84.777344 67.742188 85.921875 C 66.847656 88.664062 64.066406 91.683594 65.683594 94.734375 C 67.105469 97.226562 70.121094 97.785156 72.238281 99.386719 C 72.820312 99.824219 73.089844 100.347656 73.300781 101.085938 C 73.714844 102.53125 73.796875 104.230469 74.238281 105.789062 C 73.160156 107.492188 72.367188 109.316406 71.589844 111.144531 C 70.632812 113.34375 69.679688 115.546875 68.738281 117.753906 C 68.738281 117.753906 67.328125 121.066406 67.328125 121.066406 C 67.132812 121.554688 66.769531 122.234375 66.761719 122.769531 C 66.648438 124.210938 67.945312 125.507812 69.390625 125.394531 L 69.515625 125.386719 C 69.515625 125.386719 69.738281 125.375 69.738281 125.375 C 71.605469 125.265625 74.199219 125.078125 76.238281 124.941406 C 77.425781 126.304688 80.273438 129.558594 80.691406 130.054688 C 81.878906 131.511719 84.261719 131.15625 84.96875 129.414062 C 85.210938 128.828125 85.707031 127.632812 85.957031 127.039062 C 86.949219 124.652344 87.902344 122.25 88.796875 119.824219 C 89.347656 118.359375 89.914062 116.902344 89.929688 115.304688 C 89.464844 114.921875 89.035156 114.507812 88.640625 114.121094 C 87.703125 113.222656 86.675781 112.019531 85.589844 111.59375 C 84.457031 111.246094 82.910156 111.546875 81.617188 111.6875 C 80.414062 111.785156 78.964844 112.058594 77.738281 111.515625 C 77.289062 111.3125 76.847656 110.972656 76.613281 110.496094 C 76.410156 110.039062 76.757812 109.601562 77.246094 109.625 C 77.511719 109.605469 77.742188 109.585938 77.960938 109.5625 C 79.023438 109.757812 80.023438 109.644531 81.039062 109.519531 C 82.039062 109.382812 82.972656 109.203125 83.832031 109.132812 C 84.515625 109.085938 85.105469 109.058594 85.703125 109.28125 C 86.496094 109.621094 87.167969 110.308594 87.824219 110.9375 C 89.332031 112.414062 91.078125 114.4375 93.492188 114.449219 C 95.902344 114.4375 97.652344 112.414062 99.160156 110.941406 C 99.875 110.261719 100.574219 109.507812 101.484375 109.21875 C 102.015625 109.074219 102.542969 109.09375 103.148438 109.136719 C 104.5 109.25 106.054688 109.628906 107.527344 109.671875 C 107.957031 109.691406 108.371094 109.671875 108.773438 109.617188 C 109.074219 109.636719 109.382812 109.640625 109.722656 109.609375 C 110.253906 109.492188 110.683594 110.035156 110.378906 110.511719 C 109.542969 111.703125 107.894531 111.914062 106.570312 111.804688 C 105.4375 111.730469 104.214844 111.523438 103.152344 111.464844 C 102.558594 111.433594 101.914062 111.433594 101.398438 111.609375 C 100.3125 112.035156 99.289062 113.234375 98.351562 114.128906 C 97.925781 114.558594 97.46875 114.988281 96.984375 115.375 C 97.105469 117.472656 98.011719 119.25 98.671875 121.128906 C 99.410156 123.082031 100.1875 125.015625 100.984375 126.941406 C 101.285156 127.652344 101.765625 128.832031 102.066406 129.535156 C 102.824219 131.160156 105.089844 131.464844 106.246094 130.101562 C 106.691406 129.582031 109.546875 126.3125 110.746094 124.9375 C 112.988281 125.085938 115.730469 125.308594 117.832031 125.394531 C 119.390625 125.363281 120.5625 123.777344 120.140625 122.285156 C 120.074219 122.007812 119.757812 121.332031 119.652344 121.066406 C 118.285156 117.859375 116.777344 114.316406 115.394531 111.144531 C 114.613281 109.320312 113.824219 107.5 112.75 105.800781 C 113.195312 104.238281 113.277344 102.535156 113.691406 101.089844 C 113.90625 100.351562 114.171875 99.832031 114.753906 99.398438 C 116.871094 97.796875 119.890625 97.238281 121.316406 94.742188 C 122.9375 91.6875 120.152344 88.660156 119.253906 85.917969 Z M 116.617188 86.730469 C 117.0625 88.175781 117.898438 89.570312 118.46875 90.839844 C 118.769531 91.503906 119.054688 92.265625 119.015625 92.914062 C 118.878906 94.164062 116.796875 95.019531 115.738281 95.597656 C 114.6875 96.140625 113.597656 96.683594 112.675781 97.511719 C 110.644531 99.3125 110.742188 102.296875 110.183594 104.640625 C 109.792969 106.253906 109.382812 106.988281 107.609375 106.90625 C 105.390625 106.832031 103.039062 105.945312 100.734375 106.5625 C 99.320312 106.957031 98.207031 108.015625 97.222656 108.980469 C 96.519531 109.675781 95.875 110.355469 95.230469 110.875 C 94.695312 111.3125 94.109375 111.679688 93.492188 111.703125 C 92.132812 111.628906 90.8125 109.972656 89.753906 108.984375 C 88.769531 108.019531 87.660156 106.960938 86.242188 106.566406 C 83.941406 105.949219 81.589844 106.839844 79.375 106.914062 C 77.578125 107.003906 77.175781 106.230469 76.785156 104.644531 C 76.226562 102.296875 76.328125 99.320312 74.296875 97.523438 C 73.375 96.699219 72.285156 96.152344 71.234375 95.613281 C 70.1875 95.035156 68.082031 94.183594 67.949219 92.914062 C 67.898438 92.265625 68.191406 91.496094 68.5 90.832031 C 69.070312 89.5625 69.902344 88.171875 70.347656 86.726562 C 71.34375 83.859375 69.597656 81.410156 68.46875 78.988281 C 68.160156 78.320312 67.867188 77.550781 67.90625 76.890625 C 68.027344 75.886719 69.125 75.300781 69.972656 74.796875 C 71.777344 73.761719 74 72.988281 75.160156 71.105469 C 76.246094 69.226562 76.203125 67.09375 76.65625 65.132812 C 77.039062 63.453125 77.527344 62.644531 79.378906 62.71875 C 81.582031 62.769531 83.914062 63.652344 86.179688 63.015625 C 87.546875 62.613281 88.59375 61.554688 89.503906 60.574219 C 90.171875 59.847656 90.773438 59.125 91.414062 58.511719 C 92.015625 57.925781 92.671875 57.421875 93.492188 57.269531 C 95.183594 57.535156 96.382812 59.199219 97.578125 60.46875 C 98.390625 61.339844 99.242188 62.238281 100.390625 62.75 C 102.710938 63.703125 105.28125 62.769531 107.601562 62.730469 C 109.46875 62.648438 109.9375 63.488281 110.316406 65.136719 C 110.640625 66.578125 110.703125 67.921875 111.128906 69.464844 C 111.808594 72.054688 113.554688 72.996094 115.773438 74.144531 C 116.832031 74.738281 118.925781 75.601562 119.054688 76.890625 C 119.101562 77.546875 118.804688 78.3125 118.496094 78.980469 C 117.371094 81.402344 115.621094 83.863281 116.617188 86.730469 Z M 116.617188 86.730469 " fill-opacity="1" fill-rule="nonzero"/></g></svg>