<svg xmlns="http://www.w3.org/2000/svg" xmlns:xlink="http://www.w3.org/1999/xlink" width="500" zoomAndPan="magnify" viewBox="0 0 375 374.999991" height="500" preserveAspectRatio="xMidYMid meet" version="1.0"><defs><g/><clipPath id="4c8cd99481"><path d="M 37.214844 37.214844 L 337.5 37.214844 L 337.5 337.5 L 37.214844 337.5 Z M 37.214844 37.214844 " clip-rule="nonzero"/></clipPath><clipPath id="a9e3afc7c6"><path d="M 187.359375 37.214844 C 104.4375 37.214844 37.214844 104.4375 37.214844 187.355469 C 37.214844 270.277344 104.4375 337.5 187.359375 337.5 C 270.277344 337.5 337.5 270.277344 337.5 187.355469 C 337.5 104.4375 270.277344 37.214844 187.359375 37.214844 Z M 187.359375 37.214844 " clip-rule="nonzero"/></clipPath><clipPath id="de82509ed6"><path d="M 0.214844 0.214844 L 300.5 0.214844 L 300.5 300.5 L 0.214844 300.5 Z M 0.214844 0.214844 " clip-rule="nonzero"/></clipPath><clipPath id="ed7b8195ee"><path d="M 150.359375 0.214844 C 67.4375 0.214844 0.214844 67.4375 0.214844 150.355469 C 0.214844 233.277344 67.4375 300.5 150.359375 300.5 C 233.277344 300.5 300.5 233.277344 300.5 150.355469 C 300.5 67.4375 233.277344 0.214844 150.359375 0.214844 Z M 150.359375 0.214844 " clip-rule="nonzero"/></clipPath><clipPath id="295ebae92f"><rect x="0" width="301" y="0" height="301"/></clipPath><clipPath id="f5a7bc0bd7"><path d="M 49.445312 49.445312 L 325.257812 49.445312 L 325.257812 325.257812 L 49.445312 325.257812 Z M 49.445312 49.445312 " clip-rule="nonzero"/></clipPath><clipPath id="f7828cc047"><path d="M 187.351562 49.445312 C 111.1875 49.445312 49.445312 111.1875 49.445312 187.351562 C 49.445312 263.515625 111.1875 325.257812 187.351562 325.257812 C 263.515625 325.257812 325.257812 263.515625 325.257812 187.351562 C 325.257812 111.1875 263.515625 49.445312 187.351562 49.445312 Z M 187.351562 49.445312 " clip-rule="nonzero"/></clipPath><clipPath id="bc28806c93"><path d="M 97.875 96.28125 L 280.027344 96.28125 L 280.027344 278.433594 L 97.875 278.433594 Z M 97.875 96.28125 " clip-rule="nonzero"/></clipPath><clipPath id="291e04e078"><path d="M 188.949219 96.28125 C 138.648438 96.28125 97.875 137.058594 97.875 187.359375 C 97.875 237.65625 138.648438 278.433594 188.949219 278.433594 C 239.25 278.433594 280.027344 237.65625 280.027344 187.359375 C 280.027344 137.058594 239.25 96.28125 188.949219 96.28125 Z M 188.949219 96.28125 " clip-rule="nonzero"/></clipPath><clipPath id="221c395a73"><path d="M 0.875 0.28125 L 183.027344 0.28125 L 183.027344 182.433594 L 0.875 182.433594 Z M 0.875 0.28125 " clip-rule="nonzero"/></clipPath><clipPath id="5c36aefde3"><path d="M 91.949219 0.28125 C 41.648438 0.28125 0.875 41.058594 0.875 91.359375 C 0.875 141.65625 41.648438 182.433594 91.949219 182.433594 C 142.25 182.433594 183.027344 141.65625 183.027344 91.359375 C 183.027344 41.058594 142.25 0.28125 91.949219 0.28125 Z M 91.949219 0.28125 " clip-rule="nonzero"/></clipPath><clipPath id="7630df2cda"><rect x="0" width="184" y="0" height="183"/></clipPath><clipPath id="2e3a42de29"><path d="M 102.675781 101.085938 L 275.175781 101.085938 L 275.175781 273.585938 L 102.675781 273.585938 Z M 102.675781 101.085938 " clip-rule="nonzero"/></clipPath><clipPath id="c62a864248"><path d="M 188.945312 101.085938 C 141.300781 101.085938 102.675781 139.707031 102.675781 187.351562 C 102.675781 234.996094 141.300781 273.621094 188.945312 273.621094 C 236.589844 273.621094 275.210938 234.996094 275.210938 187.351562 C 275.210938 139.707031 236.589844 101.085938 188.945312 101.085938 Z M 188.945312 101.085938 " clip-rule="nonzero"/></clipPath><clipPath id="1340f235e6"><path d="M 124.496094 142 L 250.496094 142 L 250.496094 233.152344 L 124.496094 233.152344 Z M 124.496094 142 " clip-rule="nonzero"/></clipPath><clipPath id="59c6f6607c"><rect x="0" width="199" y="0" height="68"/></clipPath></defs><g clip-path="url(#4c8cd99481)"><g clip-path="url(#a9e3afc7c6)"><g transform="matrix(1, 0, 0, 1, 37, 37)"><g clip-path="url(#295ebae92f)"><g clip-path="url(#de82509ed6)"><g clip-path="url(#ed7b8195ee)"><path fill="#549437" d="M 0.214844 0.214844 L 300.5 0.214844 L 300.5 300.5 L 0.214844 300.5 Z M 0.214844 0.214844 " fill-opacity="1" fill-rule="nonzero"/></g></g></g></g></g></g><g clip-path="url(#f5a7bc0bd7)"><g clip-path="url(#f7828cc047)"><path stroke-linecap="butt" transform="matrix(0.75, 0, 0, 0.75, 49.445586, 49.445622)" fill="none" stroke-linejoin="miter" d="M 183.874647 -0.000413137 C 82.322557 -0.000413137 -0.000364737 82.322509 -0.000364737 183.874599 C -0.000364737 285.426689 82.322557 367.749611 183.874647 367.749611 C 285.426737 367.749611 367.749659 285.426689 367.749659 183.874599 C 367.749659 82.322509 285.426737 -0.000413137 183.874647 -0.000413137 Z M 183.874647 -0.000413137 " stroke="#e4cf90" stroke-width="4" stroke-opacity="1" stroke-miterlimit="4"/></g></g><g clip-path="url(#bc28806c93)"><g clip-path="url(#291e04e078)"><g transform="matrix(1, 0, 0, 1, 97, 96)"><g clip-path="url(#7630df2cda)"><g clip-path="url(#221c395a73)"><g clip-path="url(#5c36aefde3)"><path fill="#e4cf90" d="M 0.875 0.28125 L 183.027344 0.28125 L 183.027344 182.433594 L 0.875 182.433594 Z M 0.875 0.28125 " fill-opacity="1" fill-rule="nonzero"/></g></g></g></g></g></g><g clip-path="url(#2e3a42de29)"><g clip-path="url(#c62a864248)"><path stroke-linecap="butt" transform="matrix(0.75, 0, 0, 0.75, 102.67735, 101.085344)" fill="none" stroke-linejoin="miter" d="M 115.023958 0.000791651 C 51.497912 0.000791651 -0.00209134 51.495587 -0.00209134 115.021633 C -0.00209134 178.547678 51.497912 230.047682 115.023958 230.047682 C 178.550004 230.047682 230.044799 178.547678 230.044799 115.021633 C 230.044799 51.495587 178.550004 0.000791651 115.023958 0.000791651 Z M 115.023958 0.000791651 " stroke="#1b5072" stroke-width="3" stroke-opacity="1" stroke-miterlimit="4"/></g></g><path fill="#549437" d="M 187.410156 192.160156 L 161.386719 192.160156 L 158.511719 225.378906 L 136.722656 225.378906 L 125.667969 220.109375 L 131.195312 157.816406 L 184.519531 157.816406 Z M 187.410156 192.160156 " fill-opacity="1" fill-rule="nonzero"/><path fill="#f2b7ec" d="M 249.324219 221.535156 L 240.160156 225.902344 L 222.324219 225.902344 L 216.464844 192.160156 L 198.679688 192.160156 L 200.554688 169.910156 L 244.742188 169.910156 Z M 249.324219 221.535156 " fill-opacity="1" fill-rule="nonzero"/><path fill="#ea4e49" d="M 222.472656 226.777344 L 211.414062 232.046875 L 157.9375 232.046875 L 161.386719 192.160156 L 216.464844 192.160156 Z M 222.472656 226.777344 " fill-opacity="1" fill-rule="nonzero"/><g clip-path="url(#1340f235e6)"><path fill="#000000" d="M 249.917969 216.382812 C 249.554688 212.273438 249.1875 208.164062 248.824219 204.054688 C 248.382812 199.074219 247.9375 194.09375 247.5 189.109375 C 247.117188 184.820312 246.734375 180.53125 246.355469 176.238281 C 246.171875 174.160156 246.007812 172.074219 245.804688 169.996094 C 245.800781 169.96875 245.796875 169.9375 245.796875 169.910156 C 245.746094 169.34375 245.355469 168.859375 244.742188 168.859375 C 243.21875 168.859375 241.691406 168.859375 240.164062 168.859375 C 240.164062 168.859375 240.164062 168.859375 240.160156 168.859375 C 238.84375 168.859375 237.527344 168.859375 236.210938 168.859375 C 235.558594 168.859375 234.902344 168.859375 234.253906 168.859375 C 233.820312 164.035156 230.621094 159.816406 226.035156 158.117188 C 221.191406 156.324219 215.476562 157.867188 212.1875 161.847656 C 210.527344 163.851562 209.523438 166.285156 209.296875 168.859375 C 208.003906 168.859375 206.710938 168.859375 205.417969 168.859375 C 203.824219 168.859375 202.21875 168.804688 200.621094 168.859375 C 200.597656 168.859375 200.574219 168.859375 200.550781 168.859375 C 199.945312 168.859375 199.546875 169.34375 199.5 169.910156 C 199.289062 172.417969 199.074219 174.921875 198.867188 177.425781 C 198.53125 181.421875 198.195312 185.414062 197.859375 189.40625 C 197.8125 189.976562 197.761719 190.542969 197.714844 191.109375 C 196.519531 191.109375 195.324219 191.109375 194.128906 191.109375 C 192.210938 191.109375 190.289062 191.109375 188.367188 191.109375 C 188.304688 190.328125 188.238281 189.539062 188.167969 188.757812 C 187.9375 186.015625 187.710938 183.273438 187.476562 180.53125 C 187.199219 177.226562 186.921875 173.925781 186.644531 170.621094 C 186.402344 167.765625 186.164062 164.910156 185.921875 162.054688 C 185.800781 160.660156 185.703125 159.265625 185.570312 157.875 C 185.566406 157.855469 185.566406 157.835938 185.5625 157.816406 C 185.515625 157.25 185.121094 156.761719 184.511719 156.761719 C 182.925781 156.761719 181.339844 156.761719 179.753906 156.761719 C 177.757812 156.761719 175.757812 156.761719 173.757812 156.761719 C 173.320312 150.949219 169.492188 145.828125 163.976562 143.789062 C 158.183594 141.652344 151.367188 143.507812 147.449219 148.289062 C 145.46875 150.710938 144.28125 153.660156 144.050781 156.761719 C 143.566406 156.761719 143.085938 156.761719 142.605469 156.761719 C 140.675781 156.761719 138.734375 156.703125 136.808594 156.761719 C 136.78125 156.761719 136.75 156.761719 136.722656 156.761719 C 136.707031 156.761719 136.691406 156.769531 136.671875 156.769531 C 134.851562 156.769531 133.027344 156.769531 131.203125 156.769531 C 130.597656 156.769531 130.203125 157.25 130.152344 157.820312 C 130.101562 158.375 130.054688 158.929688 130.003906 159.488281 C 129.871094 161 129.734375 162.511719 129.601562 164.023438 C 129.402344 166.257812 129.203125 168.492188 129.003906 170.730469 C 128.761719 173.457031 128.523438 176.1875 128.277344 178.914062 C 128.011719 181.886719 127.75 184.859375 127.484375 187.832031 C 127.21875 190.847656 126.949219 193.863281 126.683594 196.878906 C 126.433594 199.691406 126.183594 202.503906 125.933594 205.316406 C 125.722656 207.691406 125.511719 210.070312 125.300781 212.449219 C 125.148438 214.15625 124.996094 215.867188 124.84375 217.578125 C 124.769531 218.386719 124.667969 219.199219 124.628906 220.007812 C 124.625 220.042969 124.621094 220.078125 124.617188 220.113281 C 124.585938 220.449219 124.835938 220.875 125.136719 221.023438 C 128.371094 222.5625 131.601562 224.105469 134.835938 225.640625 C 135.277344 225.855469 135.71875 226.0625 136.164062 226.273438 C 136.3125 226.371094 136.496094 226.433594 136.722656 226.433594 C 139.1875 226.433594 141.65625 226.433594 144.125 226.433594 C 148.019531 226.433594 151.917969 226.433594 155.816406 226.433594 C 156.332031 226.433594 156.855469 226.433594 157.371094 226.433594 C 157.351562 226.667969 157.332031 226.910156 157.3125 227.144531 C 157.171875 228.746094 156.941406 230.371094 156.894531 231.976562 C 156.894531 232 156.890625 232.023438 156.890625 232.046875 C 156.839844 232.613281 157.410156 233.097656 157.941406 233.097656 C 159.714844 233.097656 161.492188 233.097656 163.269531 233.097656 C 167.535156 233.097656 171.800781 233.097656 176.0625 233.097656 C 181.21875 233.097656 186.375 233.097656 191.53125 233.097656 C 195.964844 233.097656 200.394531 233.097656 204.828125 233.097656 C 206.992188 233.097656 209.167969 233.15625 211.332031 233.097656 C 211.363281 233.097656 211.394531 233.097656 211.421875 233.097656 C 211.664062 233.097656 211.863281 233.027344 212.019531 232.917969 C 215.226562 231.386719 218.4375 229.855469 221.644531 228.332031 C 222.097656 228.113281 222.546875 227.902344 223 227.683594 C 223.296875 227.542969 223.445312 227.257812 223.488281 226.953125 C 225.113281 226.953125 226.738281 226.953125 228.359375 226.953125 C 231.554688 226.953125 234.746094 226.953125 237.941406 226.953125 C 238.679688 226.953125 239.421875 226.953125 240.160156 226.953125 C 240.390625 226.953125 240.574219 226.890625 240.726562 226.789062 C 243.386719 225.519531 246.046875 224.253906 248.707031 222.988281 C 249.089844 222.808594 249.472656 222.625 249.855469 222.441406 C 250.160156 222.296875 250.40625 221.871094 250.375 221.53125 C 250.222656 219.816406 250.070312 218.097656 249.917969 216.382812 Z M 245.246094 187.386719 C 245.6875 192.371094 246.128906 197.351562 246.570312 202.335938 C 246.949219 206.625 247.332031 210.914062 247.710938 215.207031 C 247.835938 216.609375 247.960938 218.019531 248.085938 219.421875 C 248.132812 219.914062 248.152344 220.414062 248.199219 220.90625 C 245.871094 222.015625 243.542969 223.125 241.210938 224.234375 C 241.210938 222.933594 241.210938 221.632812 241.210938 220.328125 C 241.210938 215.871094 241.210938 211.417969 241.210938 206.960938 C 241.210938 201.570312 241.210938 196.175781 241.210938 190.785156 C 241.210938 186.125 241.210938 181.460938 241.210938 176.800781 C 241.210938 174.855469 241.25 172.90625 241.226562 170.960938 C 242.078125 170.960938 242.929688 170.960938 243.785156 170.960938 C 243.90625 172.328125 244.027344 173.691406 244.148438 175.058594 C 244.515625 179.171875 244.878906 183.277344 245.246094 187.386719 Z M 213.316406 163.808594 C 213.570312 163.449219 213.878906 163.082031 214.25 162.699219 C 214.605469 162.328125 215.066406 161.90625 215.421875 161.636719 C 216.1875 161.042969 217.277344 160.445312 218.132812 160.132812 C 218.671875 159.9375 219.21875 159.78125 219.777344 159.667969 C 220.335938 159.554688 220.730469 159.511719 221.351562 159.488281 C 222.535156 159.445312 223.480469 159.554688 224.589844 159.863281 C 226.652344 160.4375 228.441406 161.613281 229.847656 163.296875 C 230.488281 164.058594 231.191406 165.277344 231.535156 166.210938 C 231.871094 167.125 232.066406 167.96875 232.15625 168.859375 C 230.351562 168.859375 228.546875 168.859375 226.738281 168.859375 C 222.933594 168.859375 219.128906 168.859375 215.324219 168.859375 C 214.019531 168.859375 212.714844 168.859375 211.410156 168.859375 C 211.59375 167.050781 212.222656 165.355469 213.316406 163.808594 Z M 198.992188 193.214844 C 198.957031 195.863281 198.160156 198.371094 196.59375 200.578125 C 195.945312 201.492188 194.914062 202.566406 193.976562 203.28125 C 193.023438 204.007812 191.734375 204.722656 190.660156 205.113281 C 188.050781 206.0625 185.316406 206.167969 182.683594 205.417969 C 180.1875 204.707031 178.003906 203.265625 176.300781 201.226562 C 174.46875 199.027344 173.445312 196.117188 173.40625 193.214844 C 175 193.214844 176.597656 193.214844 178.195312 193.214844 C 181.257812 193.214844 184.320312 193.214844 187.382812 193.214844 C 187.390625 193.214844 187.398438 193.21875 187.40625 193.21875 C 187.421875 193.21875 187.4375 193.214844 187.453125 193.214844 C 189.117188 193.214844 190.78125 193.214844 192.449219 193.214844 C 194.628906 193.214844 196.8125 193.214844 198.992188 193.214844 Z M 148.511719 150.335938 C 149.15625 149.421875 150.191406 148.347656 151.125 147.632812 C 152.078125 146.90625 153.371094 146.191406 154.445312 145.800781 C 157.050781 144.851562 159.789062 144.746094 162.421875 145.496094 C 164.914062 146.207031 167.101562 147.648438 168.800781 149.6875 C 170.4375 151.652344 171.429688 154.179688 171.652344 156.761719 C 170.542969 156.761719 169.4375 156.761719 168.328125 156.761719 C 163.722656 156.761719 159.113281 156.761719 154.507812 156.761719 C 151.726562 156.761719 148.941406 156.761719 146.15625 156.761719 C 146.34375 154.460938 147.128906 152.28125 148.511719 150.335938 Z M 127.558594 219.851562 C 127.296875 219.726562 127.039062 219.601562 126.777344 219.476562 C 126.804688 219.132812 126.835938 218.792969 126.867188 218.445312 C 127.003906 216.933594 127.136719 215.421875 127.269531 213.910156 C 127.46875 211.675781 127.667969 209.441406 127.867188 207.203125 C 128.109375 204.476562 128.351562 201.746094 128.59375 199.019531 C 128.859375 196.046875 129.121094 193.074219 129.386719 190.101562 C 129.652344 187.085938 129.921875 184.070312 130.1875 181.054688 C 130.4375 178.242188 130.6875 175.429688 130.9375 172.617188 C 131.148438 170.242188 131.363281 167.863281 131.574219 165.484375 C 131.722656 163.773438 131.878906 162.066406 132.027344 160.355469 C 132.070312 159.863281 132.128906 159.367188 132.171875 158.871094 C 133.339844 158.871094 134.503906 158.871094 135.671875 158.871094 C 135.671875 159.125 135.671875 159.375 135.671875 159.625 C 135.671875 161.265625 135.671875 162.910156 135.671875 164.554688 C 135.671875 166.96875 135.671875 169.386719 135.671875 171.800781 C 135.671875 174.761719 135.671875 177.722656 135.671875 180.683594 C 135.671875 183.914062 135.671875 187.144531 135.671875 190.371094 C 135.671875 193.644531 135.671875 196.917969 135.671875 200.195312 C 135.671875 203.246094 135.671875 206.300781 135.671875 209.351562 C 135.671875 211.929688 135.671875 214.511719 135.671875 217.089844 C 135.671875 218.933594 135.671875 220.78125 135.671875 222.628906 C 135.671875 222.988281 135.664062 223.351562 135.660156 223.710938 C 132.957031 222.425781 130.257812 221.136719 127.558594 219.851562 Z M 151.109375 224.328125 C 147.210938 224.328125 143.3125 224.328125 139.417969 224.328125 C 138.871094 224.328125 138.324219 224.328125 137.773438 224.328125 C 137.773438 224.074219 137.773438 223.820312 137.773438 223.570312 C 137.773438 221.929688 137.773438 220.285156 137.773438 218.640625 C 137.773438 216.226562 137.773438 213.8125 137.773438 211.394531 C 137.773438 208.433594 137.773438 205.472656 137.773438 202.511719 C 137.773438 199.28125 137.773438 196.050781 137.773438 192.824219 C 137.773438 189.550781 137.773438 186.277344 137.773438 183 C 137.773438 179.949219 137.773438 176.894531 137.773438 173.84375 C 137.773438 171.265625 137.773438 168.683594 137.773438 166.105469 C 137.773438 164.261719 137.773438 162.414062 137.773438 160.566406 C 137.773438 160 137.78125 159.433594 137.78125 158.867188 C 139.015625 158.867188 140.25 158.867188 141.484375 158.867188 C 145.292969 158.867188 149.101562 158.867188 152.910156 158.867188 C 157.515625 158.867188 162.125 158.867188 166.730469 158.867188 C 170.699219 158.867188 174.667969 158.867188 178.632812 158.867188 C 179.945312 158.867188 181.257812 158.867188 182.570312 158.867188 C 182.894531 158.867188 183.222656 158.878906 183.554688 158.882812 C 183.621094 159.664062 183.683594 160.441406 183.75 161.222656 C 183.980469 163.964844 184.210938 166.707031 184.441406 169.449219 C 184.722656 172.75 184.996094 176.054688 185.277344 179.359375 C 185.519531 182.214844 185.757812 185.070312 186 187.925781 C 186.089844 188.988281 186.171875 190.050781 186.261719 191.109375 C 184.136719 191.109375 182.003906 191.109375 179.875 191.109375 C 175.742188 191.109375 171.609375 191.109375 167.480469 191.109375 C 165.480469 191.109375 163.46875 191.050781 161.46875 191.109375 C 161.441406 191.109375 161.414062 191.109375 161.390625 191.109375 C 160.785156 191.109375 160.386719 191.59375 160.335938 192.160156 C 160.222656 193.488281 160.109375 194.816406 159.992188 196.144531 C 159.71875 199.316406 159.445312 202.484375 159.171875 205.65625 C 158.839844 209.492188 158.507812 213.328125 158.175781 217.160156 C 157.96875 219.550781 157.761719 221.9375 157.554688 224.328125 C 155.40625 224.328125 153.257812 224.328125 151.109375 224.328125 Z M 206.09375 230.992188 C 201.832031 230.992188 197.5625 230.992188 193.300781 230.992188 C 188.144531 230.992188 182.988281 230.992188 177.832031 230.992188 C 173.398438 230.992188 168.96875 230.992188 164.535156 230.992188 C 163.058594 230.992188 161.582031 230.992188 160.105469 230.992188 C 159.769531 230.992188 159.425781 230.984375 159.085938 230.976562 C 159.167969 230.003906 159.253906 229.035156 159.335938 228.066406 C 159.609375 224.890625 159.886719 221.722656 160.160156 218.550781 C 160.492188 214.714844 160.824219 210.878906 161.15625 207.046875 C 161.441406 203.714844 161.730469 200.390625 162.019531 197.0625 C 162.109375 195.972656 162.207031 194.882812 162.300781 193.796875 C 162.316406 193.601562 162.335938 193.410156 162.359375 193.214844 C 163.683594 193.214844 165.007812 193.214844 166.332031 193.214844 C 167.988281 193.214844 169.644531 193.214844 171.300781 193.214844 C 171.378906 199.410156 175.316406 204.976562 181.125 207.125 C 186.921875 209.265625 193.738281 207.410156 197.65625 202.628906 C 199.835938 199.964844 201.054688 196.660156 201.09375 193.214844 C 202.347656 193.214844 203.597656 193.214844 204.84375 193.214844 C 206.523438 193.214844 208.214844 193.253906 209.898438 193.230469 C 209.910156 194.199219 209.921875 195.167969 209.933594 196.136719 C 209.96875 199.316406 210.011719 202.5 210.046875 205.679688 C 210.09375 209.511719 210.140625 213.34375 210.1875 217.175781 C 210.226562 220.492188 210.265625 223.804688 210.308594 227.117188 C 210.320312 228.40625 210.308594 229.699219 210.335938 230.992188 C 208.921875 230.992188 207.507812 230.992188 206.09375 230.992188 Z M 215.582031 193.210938 C 215.738281 194.101562 215.894531 194.996094 216.050781 195.886719 C 216.527344 198.636719 217.003906 201.386719 217.480469 204.132812 C 218.058594 207.472656 218.640625 210.8125 219.21875 214.152344 C 219.714844 217.027344 220.21875 219.902344 220.714844 222.777344 C 220.910156 223.898438 221.050781 225.054688 221.273438 226.183594 C 218.332031 227.585938 215.390625 228.988281 212.449219 230.386719 C 212.4375 229.613281 212.425781 228.839844 212.417969 228.066406 C 212.382812 224.886719 212.339844 221.703125 212.304688 218.523438 C 212.257812 214.691406 212.210938 210.859375 212.164062 207.027344 C 212.125 203.714844 212.085938 200.402344 212.042969 197.085938 C 212.03125 195.796875 212.042969 194.5 212.015625 193.210938 C 213.203125 193.210938 214.394531 193.210938 215.582031 193.210938 Z M 234.125 224.847656 C 230.929688 224.847656 227.738281 224.847656 224.542969 224.847656 C 224.09375 224.847656 223.648438 224.847656 223.199219 224.847656 C 223.09375 224.246094 222.988281 223.644531 222.886719 223.042969 C 222.40625 220.292969 221.933594 217.546875 221.453125 214.796875 C 220.875 211.460938 220.296875 208.121094 219.714844 204.78125 C 219.21875 201.90625 218.71875 199.03125 218.21875 196.15625 C 218.054688 195.199219 217.886719 194.246094 217.722656 193.289062 C 217.644531 192.839844 217.597656 192.378906 217.488281 191.9375 C 217.484375 191.917969 217.480469 191.898438 217.476562 191.878906 C 217.398438 191.429688 216.890625 191.105469 216.464844 191.105469 C 214.621094 191.105469 212.777344 191.105469 210.9375 191.105469 C 210.917969 191.105469 210.902344 191.109375 210.886719 191.109375 C 209.253906 191.109375 207.621094 191.109375 205.992188 191.109375 C 203.933594 191.109375 201.878906 191.109375 199.820312 191.109375 C 200 188.953125 200.183594 186.800781 200.363281 184.644531 C 200.699219 180.652344 201.035156 176.660156 201.371094 172.664062 C 201.421875 172.097656 201.46875 171.53125 201.515625 170.964844 C 202.507812 170.964844 203.503906 170.964844 204.5 170.964844 C 207.65625 170.964844 210.816406 170.964844 213.972656 170.964844 C 217.78125 170.964844 221.582031 170.964844 225.386719 170.964844 C 228.6875 170.964844 231.992188 170.964844 235.292969 170.964844 C 236.5625 170.964844 237.835938 170.992188 239.109375 170.980469 C 239.109375 172.480469 239.109375 173.976562 239.109375 175.476562 C 239.109375 179.933594 239.109375 184.390625 239.109375 188.847656 C 239.109375 194.238281 239.109375 199.632812 239.109375 205.023438 C 239.109375 209.683594 239.109375 214.347656 239.109375 219.007812 C 239.109375 220.953125 239.070312 222.902344 239.097656 224.847656 C 237.4375 224.847656 235.78125 224.847656 234.125 224.847656 Z M 234.125 224.847656 " fill-opacity="1" fill-rule="nonzero"/></g><g transform="matrix(1, 0, 0, 1, 88, 59)"><g clip-path="url(#59c6f6607c)"><g fill="#f7e7be" fill-opacity="1"><g transform="translate(17.561756, 63.533344)"><g><path d="M -4.390625 -10.105469 L -3.925781 -10.640625 C -2.914062 -11.804688 -2.363281 -12.6875 -2.28125 -13.296875 C -2.195312 -13.902344 -2.472656 -14.484375 -3.113281 -15.042969 C -3.800781 -15.640625 -4.464844 -15.855469 -5.105469 -15.6875 C -5.746094 -15.515625 -6.550781 -14.878906 -7.515625 -13.769531 L -7.984375 -13.230469 Z M -2.789062 -8.476562 L 2.996094 -3.441406 L 1.289062 -1.480469 L -11.605469 -12.699219 L -8.847656 -15.867188 C -8.027344 -16.808594 -7.375 -17.453125 -6.886719 -17.808594 C -6.398438 -18.164062 -5.894531 -18.402344 -5.371094 -18.527344 C -4.722656 -18.671875 -4.042969 -18.636719 -3.335938 -18.421875 C -2.628906 -18.210938 -1.96875 -17.839844 -1.359375 -17.308594 C -0.746094 -16.777344 -0.285156 -16.171875 0.0351562 -15.492188 C 0.351562 -14.8125 0.480469 -14.144531 0.421875 -13.484375 C 0.371094 -12.949219 0.203125 -12.417969 -0.0859375 -11.890625 C -0.371094 -11.359375 -0.921875 -10.625 -1.738281 -9.683594 L -2.097656 -9.269531 Z M -2.789062 -8.476562 "/></g></g></g><g fill="#f7e7be" fill-opacity="1"><g transform="translate(30.067814, 49.916139)"><g><path d="M -2.402344 -10.621094 L -2.011719 -10.9375 C -0.859375 -11.851562 -0.203125 -12.59375 -0.0390625 -13.164062 C 0.125 -13.730469 -0.0664062 -14.355469 -0.609375 -15.039062 C -1.195312 -15.773438 -1.8125 -16.132812 -2.457031 -16.113281 C -3.101562 -16.089844 -3.972656 -15.644531 -5.066406 -14.769531 L -5.460938 -14.457031 Z M -1.195312 -8.824219 L 3.570312 -2.84375 L 1.535156 -1.222656 L -9.117188 -14.589844 L -6.085938 -17.003906 C -5.195312 -17.710938 -4.460938 -18.203125 -3.878906 -18.476562 C -3.296875 -18.753906 -2.726562 -18.894531 -2.164062 -18.902344 C -1.496094 -18.910156 -0.84375 -18.746094 -0.210938 -18.417969 C 0.421875 -18.085938 0.980469 -17.613281 1.464844 -17.003906 C 2.320312 -15.933594 2.730469 -14.890625 2.695312 -13.871094 C 2.660156 -12.855469 2.183594 -11.882812 1.273438 -10.953125 L 10.71875 -8.539062 L 8.261719 -6.582031 L -0.949219 -9.019531 Z M -1.195312 -8.824219 "/></g></g></g><g fill="#f7e7be" fill-opacity="1"><g transform="translate(44.997334, 38.283978)"><g><path d="M 11.160156 -14.933594 C 10.78125 -15.710938 10.277344 -16.378906 9.652344 -16.9375 C 9.027344 -17.5 8.316406 -17.921875 7.519531 -18.207031 C 6.738281 -18.492188 5.9375 -18.613281 5.113281 -18.570312 C 4.289062 -18.527344 3.5 -18.320312 2.746094 -17.953125 C 1.988281 -17.582031 1.339844 -17.085938 0.800781 -16.46875 C 0.257812 -15.847656 -0.144531 -15.136719 -0.410156 -14.328125 C -0.675781 -13.53125 -0.78125 -12.714844 -0.71875 -11.878906 C -0.65625 -11.042969 -0.433594 -10.234375 -0.0507812 -9.449219 C 0.332031 -8.675781 0.828125 -8.007812 1.449219 -7.453125 C 2.066406 -6.898438 2.773438 -6.476562 3.574219 -6.191406 C 4.371094 -5.90625 5.179688 -5.785156 5.996094 -5.832031 C 6.816406 -5.878906 7.605469 -6.085938 8.367188 -6.460938 C 9.117188 -6.824219 9.757812 -7.316406 10.292969 -7.933594 C 10.824219 -8.550781 11.226562 -9.261719 11.5 -10.070312 C 11.765625 -10.875 11.867188 -11.695312 11.8125 -12.53125 C 11.753906 -13.363281 11.535156 -14.164062 11.160156 -14.933594 Z M 13.761719 -16.207031 C 14.296875 -15.117188 14.59375 -13.984375 14.660156 -12.8125 C 14.726562 -11.640625 14.554688 -10.484375 14.144531 -9.339844 C 13.730469 -8.191406 13.121094 -7.167969 12.328125 -6.277344 C 11.535156 -5.386719 10.59375 -4.675781 9.5 -4.140625 C 8.398438 -3.601562 7.242188 -3.289062 6.039062 -3.207031 C 4.835938 -3.125 3.664062 -3.273438 2.527344 -3.652344 C 1.371094 -4.03125 0.355469 -4.605469 -0.523438 -5.371094 C -1.398438 -6.136719 -2.109375 -7.074219 -2.648438 -8.179688 C -3.1875 -9.277344 -3.488281 -10.410156 -3.558594 -11.578125 C -3.628906 -12.75 -3.460938 -13.910156 -3.054688 -15.0625 C -2.644531 -16.207031 -2.039062 -17.222656 -1.242188 -18.105469 C -0.445312 -18.992188 0.507812 -19.703125 1.621094 -20.25 C 2.726562 -20.789062 3.871094 -21.101562 5.054688 -21.1875 C 6.238281 -21.273438 7.410156 -21.125 8.5625 -20.746094 C 9.726562 -20.355469 10.75 -19.769531 11.636719 -18.996094 C 12.523438 -18.21875 13.230469 -17.289062 13.761719 -16.207031 Z M 13.761719 -16.207031 "/></g></g></g><g fill="#f7e7be" fill-opacity="1"><g transform="translate(68.750447, 27.567199)"><g><path d="M 4.085938 -3.476562 L 6.363281 -3.980469 C 7.617188 -4.257812 8.539062 -4.550781 9.128906 -4.855469 C 9.71875 -5.160156 10.203125 -5.5625 10.578125 -6.058594 C 11.089844 -6.738281 11.414062 -7.515625 11.550781 -8.386719 C 11.691406 -9.257812 11.640625 -10.226562 11.40625 -11.289062 C 11.171875 -12.351562 10.804688 -13.25 10.3125 -13.984375 C 9.820312 -14.714844 9.199219 -15.28125 8.449219 -15.679688 C 7.890625 -15.972656 7.265625 -16.128906 6.570312 -16.148438 C 5.875 -16.171875 4.828125 -16.027344 3.429688 -15.71875 L 2.449219 -15.5 L 1.472656 -15.285156 Z M 1.914062 -0.425781 L -1.777344 -17.109375 L 1.878906 -17.921875 C 4.257812 -18.445312 5.957031 -18.699219 6.980469 -18.671875 C 8 -18.648438 8.9375 -18.433594 9.792969 -18.035156 C 10.921875 -17.511719 11.863281 -16.726562 12.617188 -15.683594 C 13.371094 -14.636719 13.910156 -13.375 14.238281 -11.890625 C 14.566406 -10.410156 14.609375 -9.042969 14.363281 -7.789062 C 14.117188 -6.535156 13.597656 -5.429688 12.796875 -4.472656 C 12.191406 -3.746094 11.449219 -3.164062 10.570312 -2.71875 C 9.695312 -2.273438 8.269531 -1.832031 6.304688 -1.394531 L 5.574219 -1.234375 Z M 1.914062 -0.425781 "/></g></g></g><g fill="#f7e7be" fill-opacity="1"><g transform="translate(91.481692, 23.156614)"><g><path d="M 1.996094 -17.078125 L 4.738281 -17.0625 L 4.675781 -6.683594 C 4.667969 -5.144531 5.015625 -3.984375 5.722656 -3.203125 C 6.429688 -2.425781 7.492188 -2.03125 8.90625 -2.023438 C 10.316406 -2.015625 11.378906 -2.394531 12.097656 -3.164062 C 12.8125 -3.933594 13.175781 -5.089844 13.1875 -6.632812 L 13.25 -17.007812 L 16.027344 -16.992188 L 15.960938 -6.359375 C 15.949219 -4.046875 15.355469 -2.320312 14.179688 -1.179688 C 13.003906 -0.0390625 11.242188 0.523438 8.890625 0.511719 C 6.542969 0.496094 4.789062 -0.0859375 3.636719 -1.238281 C 2.484375 -2.390625 1.917969 -4.125 1.929688 -6.445312 Z M 1.996094 -17.078125 "/></g></g></g><g fill="#f7e7be" fill-opacity="1"><g transform="translate(114.730663, 23.942517)"><g><path d="M 18.195312 -9.0625 C 17.578125 -9.890625 16.882812 -10.566406 16.105469 -11.089844 C 15.328125 -11.613281 14.46875 -11.984375 13.53125 -12.203125 C 11.710938 -12.625 10.09375 -12.382812 8.683594 -11.480469 C 7.269531 -10.578125 6.351562 -9.199219 5.917969 -7.339844 C 5.503906 -5.542969 5.714844 -3.933594 6.554688 -2.507812 C 7.394531 -1.082031 8.660156 -0.171875 10.351562 0.21875 C 11.335938 0.445312 12.316406 0.488281 13.285156 0.347656 C 14.257812 0.203125 15.234375 -0.125 16.21875 -0.640625 L 15.507812 2.421875 C 14.660156 2.773438 13.777344 2.980469 12.859375 3.039062 C 11.945312 3.101562 10.984375 3.011719 9.984375 2.78125 C 8.710938 2.484375 7.582031 2.003906 6.597656 1.335938 C 5.613281 0.671875 4.808594 -0.164062 4.175781 -1.164062 C 3.550781 -2.148438 3.144531 -3.230469 2.957031 -4.414062 C 2.773438 -5.59375 2.820312 -6.796875 3.105469 -8.015625 C 3.386719 -9.238281 3.871094 -10.332031 4.554688 -11.304688 C 5.238281 -12.277344 6.089844 -13.074219 7.105469 -13.691406 C 8.121094 -14.320312 9.210938 -14.71875 10.378906 -14.894531 C 11.542969 -15.066406 12.75 -15.007812 13.992188 -14.71875 C 14.972656 -14.492188 15.871094 -14.136719 16.691406 -13.644531 C 17.511719 -13.15625 18.273438 -12.527344 18.972656 -11.757812 Z M 18.195312 -9.0625 "/></g></g></g><g fill="#f7e7be" fill-opacity="1"><g transform="translate(136.746673, 29.86376)"><g><path d="M 12.882812 -10.347656 L 6.820312 3.078125 L 4.289062 1.9375 L 10.347656 -11.492188 L 6.210938 -13.359375 L 7.179688 -15.507812 L 17.96875 -10.640625 L 17 -8.488281 Z M 12.882812 -10.347656 "/></g></g></g><g fill="#f7e7be" fill-opacity="1"><g transform="translate(152.8626, 37.290074)"><g><path d="M 18.398438 3.011719 C 18.914062 2.316406 19.273438 1.5625 19.484375 0.75 C 19.691406 -0.0625 19.738281 -0.890625 19.625 -1.730469 C 19.515625 -2.554688 19.253906 -3.320312 18.835938 -4.03125 C 18.417969 -4.742188 17.871094 -5.347656 17.195312 -5.847656 C 16.519531 -6.347656 15.78125 -6.691406 14.980469 -6.886719 C 14.179688 -7.082031 13.363281 -7.109375 12.523438 -6.972656 C 11.695312 -6.84375 10.921875 -6.558594 10.207031 -6.117188 C 9.496094 -5.675781 8.878906 -5.105469 8.363281 -4.402344 C 7.847656 -3.707031 7.488281 -2.957031 7.28125 -2.152344 C 7.074219 -1.347656 7.027344 -0.527344 7.140625 0.3125 C 7.257812 1.152344 7.523438 1.925781 7.941406 2.628906 C 8.359375 3.335938 8.910156 3.941406 9.589844 4.445312 C 10.261719 4.9375 10.992188 5.28125 11.785156 5.472656 C 12.578125 5.660156 13.398438 5.6875 14.242188 5.558594 C 15.078125 5.421875 15.851562 5.132812 16.566406 4.699219 C 17.277344 4.261719 17.890625 3.703125 18.398438 3.011719 Z M 20.726562 4.734375 C 20.007812 5.710938 19.140625 6.496094 18.132812 7.097656 C 17.121094 7.695312 16.015625 8.078125 14.8125 8.242188 C 13.597656 8.402344 12.414062 8.335938 11.257812 8.042969 C 10.101562 7.75 9.035156 7.242188 8.058594 6.519531 C 7.070312 5.789062 6.261719 4.910156 5.632812 3.878906 C 5.003906 2.847656 4.597656 1.742188 4.40625 0.558594 C 4.210938 -0.644531 4.25 -1.808594 4.523438 -2.941406 C 4.800781 -4.074219 5.304688 -5.132812 6.035156 -6.125 C 6.757812 -7.105469 7.625 -7.898438 8.632812 -8.5 C 9.636719 -9.101562 10.746094 -9.488281 11.953125 -9.660156 C 13.160156 -9.824219 14.339844 -9.753906 15.492188 -9.457031 C 16.644531 -9.15625 17.71875 -8.636719 18.714844 -7.902344 C 19.703125 -7.171875 20.507812 -6.300781 21.128906 -5.289062 C 21.75 -4.277344 22.160156 -3.171875 22.359375 -1.972656 C 22.546875 -0.761719 22.5 0.417969 22.222656 1.5625 C 21.941406 2.707031 21.445312 3.761719 20.726562 4.734375 Z M 20.726562 4.734375 "/></g></g></g><g fill="#f7e7be" fill-opacity="1"><g transform="translate(173.310833, 53.648083)"><g><path d="M 3.222656 -1.511719 L 5.453125 -0.515625 C 5.019531 0.144531 4.832031 0.816406 4.898438 1.5 C 4.964844 2.1875 5.285156 2.859375 5.859375 3.515625 C 6.402344 4.136719 7.007812 4.480469 7.671875 4.542969 C 8.339844 4.609375 8.960938 4.386719 9.542969 3.878906 C 10.296875 3.21875 10.425781 2.003906 9.921875 0.230469 C 9.855469 -0.0195312 9.800781 -0.210938 9.761719 -0.339844 C 9.214844 -2.363281 9.015625 -3.855469 9.160156 -4.816406 C 9.308594 -5.777344 9.789062 -6.609375 10.597656 -7.316406 C 11.644531 -8.234375 12.804688 -8.621094 14.078125 -8.476562 C 15.351562 -8.332031 16.492188 -7.683594 17.5 -6.527344 C 18.332031 -5.578125 18.839844 -4.625 19.03125 -3.664062 C 19.222656 -2.707031 19.085938 -1.804688 18.613281 -0.960938 L 16.339844 -1.859375 C 16.519531 -2.46875 16.570312 -3.011719 16.488281 -3.480469 C 16.40625 -3.953125 16.191406 -4.386719 15.84375 -4.785156 C 15.351562 -5.351562 14.816406 -5.667969 14.234375 -5.742188 C 13.652344 -5.820312 13.113281 -5.640625 12.621094 -5.210938 C 11.847656 -4.535156 11.761719 -3.179688 12.363281 -1.140625 C 12.40625 -0.984375 12.445312 -0.859375 12.46875 -0.769531 C 12.996094 1.011719 13.183594 2.386719 13.039062 3.351562 C 12.894531 4.316406 12.402344 5.164062 11.566406 5.894531 C 10.347656 6.960938 9.042969 7.421875 7.652344 7.28125 C 6.265625 7.140625 5 6.417969 3.859375 5.109375 C 2.898438 4.011719 2.367188 2.894531 2.261719 1.753906 C 2.152344 0.613281 2.472656 -0.476562 3.222656 -1.511719 Z M 3.222656 -1.511719 "/></g></g></g></g></g></svg>