<svg xmlns="http://www.w3.org/2000/svg" xmlns:xlink="http://www.w3.org/1999/xlink" width="250" zoomAndPan="magnify" viewBox="0 0 187.5 187.499992" height="250" preserveAspectRatio="xMidYMid meet" version="1.0"><defs><g/><clipPath id="85b390b455"><path d="M 18.558594 18.558594 L 168.300781 18.558594 L 168.300781 168.300781 L 18.558594 168.300781 Z M 18.558594 18.558594 " clip-rule="nonzero"/></clipPath><clipPath id="8a7b4f04e8"><path d="M 93.429688 18.558594 C 52.078125 18.558594 18.558594 52.078125 18.558594 93.429688 C 18.558594 134.78125 52.078125 168.300781 93.429688 168.300781 C 134.78125 168.300781 168.300781 134.78125 168.300781 93.429688 C 168.300781 52.078125 134.78125 18.558594 93.429688 18.558594 Z M 93.429688 18.558594 " clip-rule="nonzero"/></clipPath><clipPath id="76ac2482a6"><path d="M 0.558594 0.558594 L 150.300781 0.558594 L 150.300781 150.300781 L 0.558594 150.300781 Z M 0.558594 0.558594 " clip-rule="nonzero"/></clipPath><clipPath id="b17cc6de90"><path d="M 75.429688 0.558594 C 34.078125 0.558594 0.558594 34.078125 0.558594 75.429688 C 0.558594 116.78125 34.078125 150.300781 75.429688 150.300781 C 116.78125 150.300781 150.300781 116.78125 150.300781 75.429688 C 150.300781 34.078125 116.78125 0.558594 75.429688 0.558594 Z M 75.429688 0.558594 " clip-rule="nonzero"/></clipPath><clipPath id="be5599d3f6"><rect x="0" width="151" y="0" height="151"/></clipPath><clipPath id="9432ca1c14"><path d="M 24.65625 24.65625 L 162.195312 24.65625 L 162.195312 162.195312 L 24.65625 162.195312 Z M 24.65625 24.65625 " clip-rule="nonzero"/></clipPath><clipPath id="1bc153a074"><path d="M 93.425781 24.65625 C 55.445312 24.65625 24.65625 55.445312 24.65625 93.425781 C 24.65625 131.40625 55.445312 162.195312 93.425781 162.195312 C 131.40625 162.195312 162.195312 131.40625 162.195312 93.425781 C 162.195312 55.445312 131.40625 24.65625 93.425781 24.65625 Z M 93.425781 24.65625 " clip-rule="nonzero"/></clipPath><clipPath id="b85979e66f"><path d="M 48.804688 48.082031 L 139.640625 48.082031 L 139.640625 138.917969 L 48.804688 138.917969 Z M 48.804688 48.082031 " clip-rule="nonzero"/></clipPath><clipPath id="913b39353c"><path d="M 94.222656 48.082031 C 69.140625 48.082031 48.804688 68.417969 48.804688 93.5 C 48.804688 118.582031 69.140625 138.917969 94.222656 138.917969 C 119.304688 138.917969 139.640625 118.582031 139.640625 93.5 C 139.640625 68.417969 119.304688 48.082031 94.222656 48.082031 Z M 94.222656 48.082031 " clip-rule="nonzero"/></clipPath><clipPath id="ccddd34c0d"><path d="M 0.804688 0.0820312 L 91.640625 0.0820312 L 91.640625 90.917969 L 0.804688 90.917969 Z M 0.804688 0.0820312 " clip-rule="nonzero"/></clipPath><clipPath id="b751d75937"><path d="M 46.222656 0.0820312 C 21.140625 0.0820312 0.804688 20.417969 0.804688 45.5 C 0.804688 70.582031 21.140625 90.917969 46.222656 90.917969 C 71.304688 90.917969 91.640625 70.582031 91.640625 45.5 C 91.640625 20.417969 71.304688 0.0820312 46.222656 0.0820312 Z M 46.222656 0.0820312 " clip-rule="nonzero"/></clipPath><clipPath id="01dfd45a8a"><rect x="0" width="92" y="0" height="91"/></clipPath><clipPath id="9ce3a100fd"><rect x="0" width="88" y="0" height="30"/></clipPath><clipPath id="6c86511c64"><path d="M 51.203125 50.480469 L 137.222656 50.480469 L 137.222656 136.5 L 51.203125 136.5 Z M 51.203125 50.480469 " clip-rule="nonzero"/></clipPath><clipPath id="33f6be67c6"><path d="M 94.21875 50.480469 C 70.460938 50.480469 51.203125 69.738281 51.203125 93.496094 C 51.203125 117.253906 70.460938 136.511719 94.21875 136.511719 C 117.976562 136.511719 137.234375 117.253906 137.234375 93.496094 C 137.234375 69.738281 117.976562 50.480469 94.21875 50.480469 Z M 94.21875 50.480469 " clip-rule="nonzero"/></clipPath><linearGradient x1="0.000000638717" gradientTransform="matrix(1.797119, 0, 0, 1.797119, -0.00000114785, -0.00000118811)" y1="32" x2="63.991303" gradientUnits="userSpaceOnUse" y2="32" id="169807efa4"><stop stop-opacity="1" stop-color="rgb(0%, 29.019165%, 67.83905%)" offset="0"/><stop stop-opacity="1" stop-color="rgb(0.309753%, 29.071045%, 67.926025%)" offset="0.00390625"/><stop stop-opacity="1" stop-color="rgb(0.621033%, 29.122925%, 68.014526%)" offset="0.0078125"/><stop stop-opacity="1" stop-color="rgb(0.932312%, 29.174805%, 68.101501%)" offset="0.0117188"/><stop stop-opacity="1" stop-color="rgb(1.243591%, 29.22821%, 68.188477%)" offset="0.015625"/><stop stop-opacity="1" stop-color="rgb(1.553345%, 29.28009%, 68.275452%)" offset="0.0195312"/><stop stop-opacity="1" stop-color="rgb(1.864624%, 29.33197%, 68.363953%)" offset="0.0234375"/><stop stop-opacity="1" stop-color="rgb(2.175903%, 29.38385%, 68.450928%)" offset="0.0273438"/><stop stop-opacity="1" stop-color="rgb(2.487183%, 29.43573%, 68.537903%)" offset="0.03125"/><stop stop-opacity="1" stop-color="rgb(2.796936%, 29.48761%, 68.624878%)" offset="0.0351562"/><stop stop-opacity="1" stop-color="rgb(3.108215%, 29.53949%, 68.711853%)" offset="0.0390625"/><stop stop-opacity="1" stop-color="rgb(3.419495%, 29.59137%, 68.798828%)" offset="0.0429688"/><stop stop-opacity="1" stop-color="rgb(3.730774%, 29.64325%, 68.887329%)" offset="0.046875"/><stop stop-opacity="1" stop-color="rgb(4.040527%, 29.695129%, 68.974304%)" offset="0.0507812"/><stop stop-opacity="1" stop-color="rgb(4.351807%, 29.748535%, 69.061279%)" offset="0.0546875"/><stop stop-opacity="1" stop-color="rgb(4.663086%, 29.800415%, 69.148254%)" offset="0.0585938"/><stop stop-opacity="1" stop-color="rgb(4.974365%, 29.852295%, 69.236755%)" offset="0.0625"/><stop stop-opacity="1" stop-color="rgb(5.284119%, 29.904175%, 69.32373%)" offset="0.0664062"/><stop stop-opacity="1" stop-color="rgb(5.595398%, 29.956055%, 69.410706%)" offset="0.0703125"/><stop stop-opacity="1" stop-color="rgb(5.906677%, 30.007935%, 69.497681%)" offset="0.0742188"/><stop stop-opacity="1" stop-color="rgb(6.217957%, 30.059814%, 69.586182%)" offset="0.078125"/><stop stop-opacity="1" stop-color="rgb(6.529236%, 30.111694%, 69.673157%)" offset="0.0820312"/><stop stop-opacity="1" stop-color="rgb(6.840515%, 30.1651%, 69.760132%)" offset="0.0859375"/><stop stop-opacity="1" stop-color="rgb(7.150269%, 30.21698%, 69.847107%)" offset="0.0898438"/><stop stop-opacity="1" stop-color="rgb(7.461548%, 30.26886%, 69.935608%)" offset="0.09375"/><stop stop-opacity="1" stop-color="rgb(7.772827%, 30.32074%, 70.022583%)" offset="0.0976562"/><stop stop-opacity="1" stop-color="rgb(8.084106%, 30.37262%, 70.109558%)" offset="0.101562"/><stop stop-opacity="1" stop-color="rgb(8.39386%, 30.4245%, 70.196533%)" offset="0.105469"/><stop stop-opacity="1" stop-color="rgb(8.705139%, 30.476379%, 70.285034%)" offset="0.109375"/><stop stop-opacity="1" stop-color="rgb(9.016418%, 30.528259%, 70.372009%)" offset="0.113281"/><stop stop-opacity="1" stop-color="rgb(9.327698%, 30.581665%, 70.458984%)" offset="0.117188"/><stop stop-opacity="1" stop-color="rgb(9.637451%, 30.633545%, 70.545959%)" offset="0.121094"/><stop stop-opacity="1" stop-color="rgb(9.94873%, 30.685425%, 70.63446%)" offset="0.125"/><stop stop-opacity="1" stop-color="rgb(10.26001%, 30.737305%, 70.721436%)" offset="0.128906"/><stop stop-opacity="1" stop-color="rgb(10.571289%, 30.789185%, 70.808411%)" offset="0.132812"/><stop stop-opacity="1" stop-color="rgb(10.881042%, 30.841064%, 70.895386%)" offset="0.136719"/><stop stop-opacity="1" stop-color="rgb(11.192322%, 30.892944%, 70.983887%)" offset="0.140625"/><stop stop-opacity="1" stop-color="rgb(11.503601%, 30.944824%, 71.070862%)" offset="0.144531"/><stop stop-opacity="1" stop-color="rgb(11.81488%, 30.99823%, 71.157837%)" offset="0.148438"/><stop stop-opacity="1" stop-color="rgb(12.124634%, 31.05011%, 71.244812%)" offset="0.152344"/><stop stop-opacity="1" stop-color="rgb(12.435913%, 31.10199%, 71.331787%)" offset="0.15625"/><stop stop-opacity="1" stop-color="rgb(12.747192%, 31.15387%, 71.418762%)" offset="0.160156"/><stop stop-opacity="1" stop-color="rgb(13.058472%, 31.20575%, 71.507263%)" offset="0.164062"/><stop stop-opacity="1" stop-color="rgb(13.369751%, 31.257629%, 71.594238%)" offset="0.167969"/><stop stop-opacity="1" stop-color="rgb(13.68103%, 31.309509%, 71.681213%)" offset="0.171875"/><stop stop-opacity="1" stop-color="rgb(13.990784%, 31.361389%, 71.768188%)" offset="0.175781"/><stop stop-opacity="1" stop-color="rgb(14.302063%, 31.414795%, 71.856689%)" offset="0.179688"/><stop stop-opacity="1" stop-color="rgb(14.613342%, 31.466675%, 71.943665%)" offset="0.183594"/><stop stop-opacity="1" stop-color="rgb(14.924622%, 31.518555%, 72.03064%)" offset="0.1875"/><stop stop-opacity="1" stop-color="rgb(15.234375%, 31.570435%, 72.117615%)" offset="0.191406"/><stop stop-opacity="1" stop-color="rgb(15.545654%, 31.622314%, 72.206116%)" offset="0.195312"/><stop stop-opacity="1" stop-color="rgb(15.856934%, 31.674194%, 72.293091%)" offset="0.199219"/><stop stop-opacity="1" stop-color="rgb(16.168213%, 31.726074%, 72.380066%)" offset="0.203125"/><stop stop-opacity="1" stop-color="rgb(16.477966%, 31.777954%, 72.467041%)" offset="0.207031"/><stop stop-opacity="1" stop-color="rgb(16.789246%, 31.83136%, 72.555542%)" offset="0.210938"/><stop stop-opacity="1" stop-color="rgb(17.100525%, 31.88324%, 72.642517%)" offset="0.214844"/><stop stop-opacity="1" stop-color="rgb(17.411804%, 31.93512%, 72.729492%)" offset="0.21875"/><stop stop-opacity="1" stop-color="rgb(17.721558%, 31.987%, 72.816467%)" offset="0.222656"/><stop stop-opacity="1" stop-color="rgb(18.032837%, 32.038879%, 72.904968%)" offset="0.226562"/><stop stop-opacity="1" stop-color="rgb(18.344116%, 32.090759%, 72.991943%)" offset="0.230469"/><stop stop-opacity="1" stop-color="rgb(18.655396%, 32.142639%, 73.078918%)" offset="0.234375"/><stop stop-opacity="1" stop-color="rgb(18.965149%, 32.194519%, 73.165894%)" offset="0.238281"/><stop stop-opacity="1" stop-color="rgb(19.276428%, 32.246399%, 73.254395%)" offset="0.242187"/><stop stop-opacity="1" stop-color="rgb(19.587708%, 32.298279%, 73.34137%)" offset="0.246094"/><stop stop-opacity="1" stop-color="rgb(19.898987%, 32.351685%, 73.428345%)" offset="0.25"/><stop stop-opacity="1" stop-color="rgb(20.210266%, 32.403564%, 73.51532%)" offset="0.253906"/><stop stop-opacity="1" stop-color="rgb(20.521545%, 32.455444%, 73.603821%)" offset="0.257812"/><stop stop-opacity="1" stop-color="rgb(20.831299%, 32.507324%, 73.690796%)" offset="0.261719"/><stop stop-opacity="1" stop-color="rgb(21.142578%, 32.559204%, 73.777771%)" offset="0.265625"/><stop stop-opacity="1" stop-color="rgb(21.453857%, 32.611084%, 73.864746%)" offset="0.269531"/><stop stop-opacity="1" stop-color="rgb(21.765137%, 32.662964%, 73.951721%)" offset="0.273438"/><stop stop-opacity="1" stop-color="rgb(22.07489%, 32.714844%, 74.038696%)" offset="0.277344"/><stop stop-opacity="1" stop-color="rgb(22.386169%, 32.76825%, 74.127197%)" offset="0.28125"/><stop stop-opacity="1" stop-color="rgb(22.697449%, 32.820129%, 74.214172%)" offset="0.285156"/><stop stop-opacity="1" stop-color="rgb(23.008728%, 32.872009%, 74.301147%)" offset="0.289062"/><stop stop-opacity="1" stop-color="rgb(23.318481%, 32.923889%, 74.388123%)" offset="0.292969"/><stop stop-opacity="1" stop-color="rgb(23.629761%, 32.975769%, 74.476624%)" offset="0.296875"/><stop stop-opacity="1" stop-color="rgb(23.94104%, 33.027649%, 74.563599%)" offset="0.300781"/><stop stop-opacity="1" stop-color="rgb(24.252319%, 33.079529%, 74.650574%)" offset="0.304688"/><stop stop-opacity="1" stop-color="rgb(24.562073%, 33.131409%, 74.737549%)" offset="0.308594"/><stop stop-opacity="1" stop-color="rgb(24.873352%, 33.184814%, 74.82605%)" offset="0.3125"/><stop stop-opacity="1" stop-color="rgb(25.184631%, 33.236694%, 74.913025%)" offset="0.316406"/><stop stop-opacity="1" stop-color="rgb(25.495911%, 33.288574%, 75%)" offset="0.320312"/><stop stop-opacity="1" stop-color="rgb(25.80719%, 33.340454%, 75.086975%)" offset="0.324219"/><stop stop-opacity="1" stop-color="rgb(26.118469%, 33.392334%, 75.175476%)" offset="0.328125"/><stop stop-opacity="1" stop-color="rgb(26.428223%, 33.444214%, 75.262451%)" offset="0.332031"/><stop stop-opacity="1" stop-color="rgb(26.739502%, 33.496094%, 75.349426%)" offset="0.335938"/><stop stop-opacity="1" stop-color="rgb(27.050781%, 33.547974%, 75.436401%)" offset="0.339844"/><stop stop-opacity="1" stop-color="rgb(27.362061%, 33.601379%, 75.524902%)" offset="0.34375"/><stop stop-opacity="1" stop-color="rgb(27.671814%, 33.653259%, 75.611877%)" offset="0.347656"/><stop stop-opacity="1" stop-color="rgb(27.983093%, 33.705139%, 75.698853%)" offset="0.351562"/><stop stop-opacity="1" stop-color="rgb(28.294373%, 33.757019%, 75.785828%)" offset="0.355469"/><stop stop-opacity="1" stop-color="rgb(28.605652%, 33.808899%, 75.874329%)" offset="0.359375"/><stop stop-opacity="1" stop-color="rgb(28.915405%, 33.860779%, 75.961304%)" offset="0.363281"/><stop stop-opacity="1" stop-color="rgb(29.226685%, 33.912659%, 76.048279%)" offset="0.367188"/><stop stop-opacity="1" stop-color="rgb(29.537964%, 33.964539%, 76.135254%)" offset="0.371094"/><stop stop-opacity="1" stop-color="rgb(29.849243%, 34.017944%, 76.223755%)" offset="0.375"/><stop stop-opacity="1" stop-color="rgb(30.158997%, 34.069824%, 76.31073%)" offset="0.378906"/><stop stop-opacity="1" stop-color="rgb(30.470276%, 34.121704%, 76.397705%)" offset="0.382812"/><stop stop-opacity="1" stop-color="rgb(30.781555%, 34.173584%, 76.48468%)" offset="0.386719"/><stop stop-opacity="1" stop-color="rgb(31.092834%, 34.225464%, 76.573181%)" offset="0.390625"/><stop stop-opacity="1" stop-color="rgb(31.402588%, 34.277344%, 76.660156%)" offset="0.394531"/><stop stop-opacity="1" stop-color="rgb(31.713867%, 34.329224%, 76.747131%)" offset="0.398438"/><stop stop-opacity="1" stop-color="rgb(32.025146%, 34.381104%, 76.834106%)" offset="0.402344"/><stop stop-opacity="1" stop-color="rgb(32.336426%, 34.434509%, 76.921082%)" offset="0.40625"/><stop stop-opacity="1" stop-color="rgb(32.647705%, 34.486389%, 77.008057%)" offset="0.410156"/><stop stop-opacity="1" stop-color="rgb(32.958984%, 34.538269%, 77.096558%)" offset="0.414062"/><stop stop-opacity="1" stop-color="rgb(33.268738%, 34.590149%, 77.183533%)" offset="0.417969"/><stop stop-opacity="1" stop-color="rgb(33.580017%, 34.642029%, 77.270508%)" offset="0.421875"/><stop stop-opacity="1" stop-color="rgb(33.891296%, 34.693909%, 77.357483%)" offset="0.425781"/><stop stop-opacity="1" stop-color="rgb(34.202576%, 34.745789%, 77.445984%)" offset="0.429688"/><stop stop-opacity="1" stop-color="rgb(34.512329%, 34.797668%, 77.532959%)" offset="0.433594"/><stop stop-opacity="1" stop-color="rgb(34.823608%, 34.851074%, 77.619934%)" offset="0.4375"/><stop stop-opacity="1" stop-color="rgb(35.134888%, 34.902954%, 77.706909%)" offset="0.441406"/><stop stop-opacity="1" stop-color="rgb(35.446167%, 34.954834%, 77.79541%)" offset="0.445312"/><stop stop-opacity="1" stop-color="rgb(35.75592%, 35.006714%, 77.882385%)" offset="0.449219"/><stop stop-opacity="1" stop-color="rgb(36.0672%, 35.058594%, 77.96936%)" offset="0.453125"/><stop stop-opacity="1" stop-color="rgb(36.378479%, 35.110474%, 78.056335%)" offset="0.457031"/><stop stop-opacity="1" stop-color="rgb(36.689758%, 35.162354%, 78.144836%)" offset="0.460938"/><stop stop-opacity="1" stop-color="rgb(36.999512%, 35.214233%, 78.231812%)" offset="0.464844"/><stop stop-opacity="1" stop-color="rgb(37.310791%, 35.266113%, 78.318787%)" offset="0.46875"/><stop stop-opacity="1" stop-color="rgb(37.62207%, 35.317993%, 78.405762%)" offset="0.472656"/><stop stop-opacity="1" stop-color="rgb(37.93335%, 35.371399%, 78.494263%)" offset="0.476562"/><stop stop-opacity="1" stop-color="rgb(38.243103%, 35.423279%, 78.581238%)" offset="0.480469"/><stop stop-opacity="1" stop-color="rgb(38.554382%, 35.475159%, 78.668213%)" offset="0.484375"/><stop stop-opacity="1" stop-color="rgb(38.865662%, 35.527039%, 78.755188%)" offset="0.488281"/><stop stop-opacity="1" stop-color="rgb(39.176941%, 35.578918%, 78.843689%)" offset="0.492188"/><stop stop-opacity="1" stop-color="rgb(39.48822%, 35.630798%, 78.930664%)" offset="0.496094"/><stop stop-opacity="1" stop-color="rgb(39.7995%, 35.682678%, 79.017639%)" offset="0.5"/><stop stop-opacity="1" stop-color="rgb(40.109253%, 35.734558%, 79.104614%)" offset="0.503906"/><stop stop-opacity="1" stop-color="rgb(40.420532%, 35.787964%, 79.193115%)" offset="0.507812"/><stop stop-opacity="1" stop-color="rgb(40.731812%, 35.839844%, 79.28009%)" offset="0.511719"/><stop stop-opacity="1" stop-color="rgb(41.043091%, 35.891724%, 79.367065%)" offset="0.515625"/><stop stop-opacity="1" stop-color="rgb(41.352844%, 35.943604%, 79.454041%)" offset="0.519531"/><stop stop-opacity="1" stop-color="rgb(41.664124%, 35.995483%, 79.541016%)" offset="0.523438"/><stop stop-opacity="1" stop-color="rgb(41.975403%, 36.047363%, 79.627991%)" offset="0.527344"/><stop stop-opacity="1" stop-color="rgb(42.286682%, 36.099243%, 79.716492%)" offset="0.53125"/><stop stop-opacity="1" stop-color="rgb(42.596436%, 36.151123%, 79.803467%)" offset="0.535156"/><stop stop-opacity="1" stop-color="rgb(42.907715%, 36.204529%, 79.890442%)" offset="0.539062"/><stop stop-opacity="1" stop-color="rgb(43.218994%, 36.256409%, 79.977417%)" offset="0.542969"/><stop stop-opacity="1" stop-color="rgb(43.530273%, 36.308289%, 80.065918%)" offset="0.546875"/><stop stop-opacity="1" stop-color="rgb(43.840027%, 36.360168%, 80.152893%)" offset="0.550781"/><stop stop-opacity="1" stop-color="rgb(44.151306%, 36.412048%, 80.239868%)" offset="0.554687"/><stop stop-opacity="1" stop-color="rgb(44.462585%, 36.463928%, 80.326843%)" offset="0.558594"/><stop stop-opacity="1" stop-color="rgb(44.773865%, 36.515808%, 80.415344%)" offset="0.5625"/><stop stop-opacity="1" stop-color="rgb(45.083618%, 36.567688%, 80.502319%)" offset="0.566406"/><stop stop-opacity="1" stop-color="rgb(45.394897%, 36.621094%, 80.589294%)" offset="0.570312"/><stop stop-opacity="1" stop-color="rgb(45.706177%, 36.672974%, 80.67627%)" offset="0.574219"/><stop stop-opacity="1" stop-color="rgb(46.017456%, 36.724854%, 80.764771%)" offset="0.578125"/><stop stop-opacity="1" stop-color="rgb(46.328735%, 36.776733%, 80.851746%)" offset="0.582031"/><stop stop-opacity="1" stop-color="rgb(46.640015%, 36.828613%, 80.938721%)" offset="0.585937"/><stop stop-opacity="1" stop-color="rgb(46.949768%, 36.880493%, 81.025696%)" offset="0.589844"/><stop stop-opacity="1" stop-color="rgb(47.261047%, 36.932373%, 81.114197%)" offset="0.59375"/><stop stop-opacity="1" stop-color="rgb(47.572327%, 36.984253%, 81.201172%)" offset="0.597656"/><stop stop-opacity="1" stop-color="rgb(47.883606%, 37.037659%, 81.288147%)" offset="0.601562"/><stop stop-opacity="1" stop-color="rgb(48.193359%, 37.089539%, 81.375122%)" offset="0.605469"/><stop stop-opacity="1" stop-color="rgb(48.504639%, 37.141418%, 81.463623%)" offset="0.609375"/><stop stop-opacity="1" stop-color="rgb(48.815918%, 37.193298%, 81.550598%)" offset="0.613281"/><stop stop-opacity="1" stop-color="rgb(49.127197%, 37.245178%, 81.637573%)" offset="0.617188"/><stop stop-opacity="1" stop-color="rgb(49.436951%, 37.297058%, 81.724548%)" offset="0.621094"/><stop stop-opacity="1" stop-color="rgb(49.74823%, 37.348938%, 81.813049%)" offset="0.625"/><stop stop-opacity="1" stop-color="rgb(50.059509%, 37.400818%, 81.900024%)" offset="0.628906"/><stop stop-opacity="1" stop-color="rgb(50.370789%, 37.454224%, 81.987%)" offset="0.632812"/><stop stop-opacity="1" stop-color="rgb(50.680542%, 37.506104%, 82.073975%)" offset="0.636719"/><stop stop-opacity="1" stop-color="rgb(50.991821%, 37.557983%, 82.16095%)" offset="0.640625"/><stop stop-opacity="1" stop-color="rgb(51.303101%, 37.609863%, 82.247925%)" offset="0.644531"/><stop stop-opacity="1" stop-color="rgb(51.61438%, 37.661743%, 82.336426%)" offset="0.648438"/><stop stop-opacity="1" stop-color="rgb(51.925659%, 37.713623%, 82.423401%)" offset="0.652344"/><stop stop-opacity="1" stop-color="rgb(52.236938%, 37.765503%, 82.510376%)" offset="0.65625"/><stop stop-opacity="1" stop-color="rgb(52.546692%, 37.817383%, 82.597351%)" offset="0.660156"/><stop stop-opacity="1" stop-color="rgb(52.857971%, 37.869263%, 82.685852%)" offset="0.664063"/><stop stop-opacity="1" stop-color="rgb(53.16925%, 37.921143%, 82.772827%)" offset="0.667969"/><stop stop-opacity="1" stop-color="rgb(53.48053%, 37.974548%, 82.859802%)" offset="0.671875"/><stop stop-opacity="1" stop-color="rgb(53.790283%, 38.026428%, 82.946777%)" offset="0.675781"/><stop stop-opacity="1" stop-color="rgb(54.101562%, 38.078308%, 83.035278%)" offset="0.679688"/><stop stop-opacity="1" stop-color="rgb(54.412842%, 38.130188%, 83.122253%)" offset="0.683594"/><stop stop-opacity="1" stop-color="rgb(54.724121%, 38.182068%, 83.209229%)" offset="0.6875"/><stop stop-opacity="1" stop-color="rgb(55.033875%, 38.233948%, 83.296204%)" offset="0.691406"/><stop stop-opacity="1" stop-color="rgb(55.345154%, 38.285828%, 83.384705%)" offset="0.695312"/><stop stop-opacity="1" stop-color="rgb(55.656433%, 38.337708%, 83.47168%)" offset="0.699219"/><stop stop-opacity="1" stop-color="rgb(55.967712%, 38.391113%, 83.558655%)" offset="0.703125"/><stop stop-opacity="1" stop-color="rgb(56.277466%, 38.442993%, 83.64563%)" offset="0.707031"/><stop stop-opacity="1" stop-color="rgb(56.588745%, 38.494873%, 83.734131%)" offset="0.710937"/><stop stop-opacity="1" stop-color="rgb(56.900024%, 38.546753%, 83.821106%)" offset="0.714844"/><stop stop-opacity="1" stop-color="rgb(57.211304%, 38.598633%, 83.908081%)" offset="0.71875"/><stop stop-opacity="1" stop-color="rgb(57.521057%, 38.650513%, 83.995056%)" offset="0.722656"/><stop stop-opacity="1" stop-color="rgb(57.832336%, 38.702393%, 84.083557%)" offset="0.726562"/><stop stop-opacity="1" stop-color="rgb(58.143616%, 38.754272%, 84.170532%)" offset="0.730469"/><stop stop-opacity="1" stop-color="rgb(58.454895%, 38.807678%, 84.257507%)" offset="0.734375"/><stop stop-opacity="1" stop-color="rgb(58.766174%, 38.859558%, 84.344482%)" offset="0.738281"/><stop stop-opacity="1" stop-color="rgb(59.077454%, 38.911438%, 84.432983%)" offset="0.742188"/><stop stop-opacity="1" stop-color="rgb(59.387207%, 38.963318%, 84.519958%)" offset="0.746094"/><stop stop-opacity="1" stop-color="rgb(59.698486%, 39.015198%, 84.606934%)" offset="0.75"/><stop stop-opacity="1" stop-color="rgb(60.009766%, 39.067078%, 84.693909%)" offset="0.753906"/><stop stop-opacity="1" stop-color="rgb(60.321045%, 39.118958%, 84.780884%)" offset="0.757812"/><stop stop-opacity="1" stop-color="rgb(60.630798%, 39.170837%, 84.867859%)" offset="0.761719"/><stop stop-opacity="1" stop-color="rgb(60.942078%, 39.224243%, 84.95636%)" offset="0.765625"/><stop stop-opacity="1" stop-color="rgb(61.253357%, 39.276123%, 85.043335%)" offset="0.769531"/><stop stop-opacity="1" stop-color="rgb(61.564636%, 39.328003%, 85.13031%)" offset="0.773438"/><stop stop-opacity="1" stop-color="rgb(61.87439%, 39.379883%, 85.217285%)" offset="0.777344"/><stop stop-opacity="1" stop-color="rgb(62.185669%, 39.431763%, 85.305786%)" offset="0.78125"/><stop stop-opacity="1" stop-color="rgb(62.496948%, 39.483643%, 85.392761%)" offset="0.785156"/><stop stop-opacity="1" stop-color="rgb(62.808228%, 39.535522%, 85.479736%)" offset="0.789063"/><stop stop-opacity="1" stop-color="rgb(63.117981%, 39.587402%, 85.566711%)" offset="0.792969"/><stop stop-opacity="1" stop-color="rgb(63.42926%, 39.640808%, 85.655212%)" offset="0.796875"/><stop stop-opacity="1" stop-color="rgb(63.74054%, 39.692688%, 85.742188%)" offset="0.800781"/><stop stop-opacity="1" stop-color="rgb(64.051819%, 39.744568%, 85.829163%)" offset="0.804688"/><stop stop-opacity="1" stop-color="rgb(64.361572%, 39.796448%, 85.916138%)" offset="0.808594"/><stop stop-opacity="1" stop-color="rgb(64.672852%, 39.848328%, 86.004639%)" offset="0.8125"/><stop stop-opacity="1" stop-color="rgb(64.984131%, 39.900208%, 86.091614%)" offset="0.816406"/><stop stop-opacity="1" stop-color="rgb(65.29541%, 39.952087%, 86.178589%)" offset="0.820313"/><stop stop-opacity="1" stop-color="rgb(65.606689%, 40.003967%, 86.265564%)" offset="0.824219"/><stop stop-opacity="1" stop-color="rgb(65.917969%, 40.057373%, 86.354065%)" offset="0.828125"/><stop stop-opacity="1" stop-color="rgb(66.227722%, 40.109253%, 86.44104%)" offset="0.832031"/><stop stop-opacity="1" stop-color="rgb(66.539001%, 40.161133%, 86.528015%)" offset="0.835938"/><stop stop-opacity="1" stop-color="rgb(66.850281%, 40.213013%, 86.61499%)" offset="0.839844"/><stop stop-opacity="1" stop-color="rgb(67.16156%, 40.264893%, 86.703491%)" offset="0.84375"/><stop stop-opacity="1" stop-color="rgb(67.471313%, 40.316772%, 86.790466%)" offset="0.847656"/><stop stop-opacity="1" stop-color="rgb(67.782593%, 40.368652%, 86.877441%)" offset="0.851562"/><stop stop-opacity="1" stop-color="rgb(68.093872%, 40.420532%, 86.964417%)" offset="0.855469"/><stop stop-opacity="1" stop-color="rgb(68.405151%, 40.472412%, 87.052917%)" offset="0.859375"/><stop stop-opacity="1" stop-color="rgb(68.714905%, 40.524292%, 87.139893%)" offset="0.863281"/><stop stop-opacity="1" stop-color="rgb(69.026184%, 40.577698%, 87.226868%)" offset="0.867187"/><stop stop-opacity="1" stop-color="rgb(69.337463%, 40.629578%, 87.313843%)" offset="0.871094"/><stop stop-opacity="1" stop-color="rgb(69.648743%, 40.681458%, 87.400818%)" offset="0.875"/><stop stop-opacity="1" stop-color="rgb(69.958496%, 40.733337%, 87.487793%)" offset="0.878906"/><stop stop-opacity="1" stop-color="rgb(70.269775%, 40.785217%, 87.576294%)" offset="0.882812"/><stop stop-opacity="1" stop-color="rgb(70.581055%, 40.837097%, 87.663269%)" offset="0.886719"/><stop stop-opacity="1" stop-color="rgb(70.892334%, 40.888977%, 87.750244%)" offset="0.890625"/><stop stop-opacity="1" stop-color="rgb(71.202087%, 40.940857%, 87.837219%)" offset="0.894531"/><stop stop-opacity="1" stop-color="rgb(71.513367%, 40.994263%, 87.92572%)" offset="0.898437"/><stop stop-opacity="1" stop-color="rgb(71.824646%, 41.046143%, 88.012695%)" offset="0.902344"/><stop stop-opacity="1" stop-color="rgb(72.135925%, 41.098022%, 88.09967%)" offset="0.90625"/><stop stop-opacity="1" stop-color="rgb(72.447205%, 41.149902%, 88.186646%)" offset="0.910156"/><stop stop-opacity="1" stop-color="rgb(72.758484%, 41.201782%, 88.275146%)" offset="0.914062"/><stop stop-opacity="1" stop-color="rgb(73.068237%, 41.253662%, 88.362122%)" offset="0.917969"/><stop stop-opacity="1" stop-color="rgb(73.379517%, 41.305542%, 88.449097%)" offset="0.921875"/><stop stop-opacity="1" stop-color="rgb(73.690796%, 41.357422%, 88.536072%)" offset="0.925781"/><stop stop-opacity="1" stop-color="rgb(74.002075%, 41.410828%, 88.624573%)" offset="0.929688"/><stop stop-opacity="1" stop-color="rgb(74.311829%, 41.462708%, 88.711548%)" offset="0.933594"/><stop stop-opacity="1" stop-color="rgb(74.623108%, 41.514587%, 88.798523%)" offset="0.9375"/><stop stop-opacity="1" stop-color="rgb(74.934387%, 41.566467%, 88.885498%)" offset="0.941406"/><stop stop-opacity="1" stop-color="rgb(75.245667%, 41.618347%, 88.973999%)" offset="0.945312"/><stop stop-opacity="1" stop-color="rgb(75.55542%, 41.670227%, 89.060974%)" offset="0.949219"/><stop stop-opacity="1" stop-color="rgb(75.866699%, 41.722107%, 89.147949%)" offset="0.953125"/><stop stop-opacity="1" stop-color="rgb(76.177979%, 41.773987%, 89.234924%)" offset="0.957031"/><stop stop-opacity="1" stop-color="rgb(76.489258%, 41.827393%, 89.323425%)" offset="0.960938"/><stop stop-opacity="1" stop-color="rgb(76.799011%, 41.879272%, 89.4104%)" offset="0.964844"/><stop stop-opacity="1" stop-color="rgb(77.110291%, 41.931152%, 89.497375%)" offset="0.96875"/><stop stop-opacity="1" stop-color="rgb(77.42157%, 41.983032%, 89.584351%)" offset="0.972656"/><stop stop-opacity="1" stop-color="rgb(77.732849%, 42.034912%, 89.672852%)" offset="0.976563"/><stop stop-opacity="1" stop-color="rgb(78.044128%, 42.086792%, 89.759827%)" offset="0.980469"/><stop stop-opacity="1" stop-color="rgb(78.355408%, 42.138672%, 89.846802%)" offset="0.984375"/><stop stop-opacity="1" stop-color="rgb(78.665161%, 42.190552%, 89.933777%)" offset="0.988281"/><stop stop-opacity="1" stop-color="rgb(78.97644%, 42.243958%, 90.022278%)" offset="0.992188"/><stop stop-opacity="1" stop-color="rgb(79.28772%, 42.295837%, 90.109253%)" offset="0.996094"/><stop stop-opacity="1" stop-color="rgb(79.598999%, 42.347717%, 90.196228%)" offset="1"/></linearGradient><clipPath id="7f0867543b"><path d="M 56.824219 56.03125 L 131.625 56.03125 L 131.625 130.828125 L 56.824219 130.828125 Z M 56.824219 56.03125 " clip-rule="nonzero"/></clipPath></defs><g clip-path="url(#85b390b455)"><g clip-path="url(#8a7b4f04e8)"><g transform="matrix(1, 0, 0, 1, 18, 18)"><g clip-path="url(#be5599d3f6)"><g clip-path="url(#76ac2482a6)"><g clip-path="url(#b17cc6de90)"><path fill="#c700a1" d="M 0.558594 0.558594 L 150.300781 0.558594 L 150.300781 150.300781 L 0.558594 150.300781 Z M 0.558594 0.558594 " fill-opacity="1" fill-rule="nonzero"/></g></g></g></g></g></g><g clip-path="url(#9432ca1c14)"><g clip-path="url(#1bc153a074)"><path stroke-linecap="butt" transform="matrix(0.748005, 0, 0, 0.748005, 24.657042, 24.657029)" fill="none" stroke-linejoin="miter" d="M 91.936171 -0.00104159 C 41.1605 -0.00104159 -0.0010591 41.160517 -0.0010591 91.936188 C -0.0010591 142.711859 41.1605 183.873418 91.936171 183.873418 C 142.711842 183.873418 183.873401 142.711859 183.873401 91.936188 C 183.873401 41.160517 142.711842 -0.00104159 91.936171 -0.00104159 Z M 91.936171 -0.00104159 " stroke="#214e6b" stroke-width="4" stroke-opacity="1" stroke-miterlimit="4"/></g></g><g clip-path="url(#b85979e66f)"><g clip-path="url(#913b39353c)"><g transform="matrix(1, 0, 0, 1, 48, 48)"><g clip-path="url(#01dfd45a8a)"><g clip-path="url(#ccddd34c0d)"><g clip-path="url(#b751d75937)"><path fill="#f7e7be" d="M 0.804688 0.0820312 L 91.640625 0.0820312 L 91.640625 90.917969 L 0.804688 90.917969 Z M 0.804688 0.0820312 " fill-opacity="1" fill-rule="nonzero"/></g></g></g></g></g></g><g transform="matrix(1, 0, 0, 1, 49, 29)"><g clip-path="url(#9ce3a100fd)"><g fill="#f3f6c8" fill-opacity="1"><g transform="translate(8.150275, 26.678486)"><g><path d="M -1.402344 -5.246094 L -1.210938 -5.410156 C -0.65625 -5.890625 -0.34375 -6.273438 -0.273438 -6.558594 C -0.203125 -6.84375 -0.308594 -7.152344 -0.59375 -7.480469 C -0.898438 -7.835938 -1.210938 -8.003906 -1.53125 -7.980469 C -1.855469 -7.957031 -2.277344 -7.71875 -2.808594 -7.261719 L -2.996094 -7.097656 Z M -0.765625 -4.375 L 1.722656 -1.484375 L 0.742188 -0.636719 L -4.824219 -7.09375 L -3.359375 -8.355469 C -2.929688 -8.726562 -2.574219 -8.984375 -2.289062 -9.132812 C -2.003906 -9.28125 -1.722656 -9.363281 -1.441406 -9.378906 C -1.109375 -9.394531 -0.78125 -9.324219 -0.457031 -9.171875 C -0.136719 -9.019531 0.152344 -8.796875 0.40625 -8.5 C 0.851562 -7.984375 1.074219 -7.472656 1.078125 -6.964844 C 1.078125 -6.457031 0.859375 -5.960938 0.421875 -5.484375 L 5.175781 -4.460938 L 3.992188 -3.4375 L -0.644531 -4.476562 Z M -0.765625 -4.375 "/></g></g></g><g fill="#f3f6c8" fill-opacity="1"><g transform="translate(15.561552, 20.656975)"><g><path d="M 0.84375 -0.492188 L -3.460938 -7.851562 L 0.644531 -10.25 L 1.238281 -9.238281 L -1.671875 -7.535156 L -0.589844 -5.691406 L 2.316406 -7.394531 L 2.933594 -6.34375 L 0.0234375 -4.640625 L 1.414062 -2.265625 L 4.324219 -3.964844 L 4.949219 -2.894531 Z M 0.84375 -0.492188 "/></g></g></g><g fill="#f3f6c8" fill-opacity="1"><g transform="translate(23.556488, 16.176223)"><g><path d="M 5.300781 -8.636719 C 4.820312 -8.828125 4.347656 -8.929688 3.882812 -8.945312 C 3.414062 -8.960938 2.953125 -8.890625 2.5 -8.734375 C 1.617188 -8.433594 0.996094 -7.90625 0.640625 -7.148438 C 0.28125 -6.394531 0.257812 -5.566406 0.566406 -4.667969 C 0.863281 -3.796875 1.378906 -3.171875 2.109375 -2.792969 C 2.839844 -2.410156 3.617188 -2.359375 4.433594 -2.640625 C 4.914062 -2.804688 5.339844 -3.046875 5.710938 -3.363281 C 6.085938 -3.679688 6.410156 -4.078125 6.691406 -4.554688 L 7.199219 -3.074219 C 6.933594 -2.699219 6.613281 -2.378906 6.242188 -2.113281 C 5.871094 -1.84375 5.441406 -1.628906 4.957031 -1.460938 C 4.339844 -1.25 3.738281 -1.15625 3.144531 -1.175781 C 2.550781 -1.199219 1.988281 -1.339844 1.457031 -1.597656 C 0.933594 -1.847656 0.476562 -2.199219 0.0859375 -2.648438 C -0.304688 -3.097656 -0.601562 -3.621094 -0.804688 -4.210938 C -1.007812 -4.800781 -1.09375 -5.394531 -1.058594 -5.984375 C -1.027344 -6.578125 -0.878906 -7.136719 -0.613281 -7.667969 C -0.347656 -8.203125 0.0078125 -8.660156 0.457031 -9.039062 C 0.902344 -9.421875 1.425781 -9.714844 2.03125 -9.921875 C 2.503906 -10.085938 2.976562 -10.171875 3.453125 -10.179688 C 3.933594 -10.191406 4.417969 -10.125 4.917969 -9.984375 Z M 5.300781 -8.636719 "/></g></g></g><g fill="#f3f6c8" fill-opacity="1"><g transform="translate(34.323529, 12.783941)"><g><path d="M 0.0117188 -8.574219 L 1.371094 -8.722656 L 1.933594 -3.578125 C 2.015625 -2.816406 2.257812 -2.261719 2.652344 -1.914062 C 3.046875 -1.570312 3.59375 -1.4375 4.296875 -1.511719 C 4.996094 -1.589844 5.5 -1.839844 5.8125 -2.261719 C 6.121094 -2.683594 6.234375 -3.277344 6.152344 -4.039062 L 5.589844 -9.183594 L 6.964844 -9.335938 L 7.542969 -4.0625 C 7.667969 -2.917969 7.472656 -2.027344 6.957031 -1.394531 C 6.441406 -0.765625 5.597656 -0.382812 4.433594 -0.257812 C 3.269531 -0.128906 2.367188 -0.316406 1.730469 -0.820312 C 1.09375 -1.324219 0.714844 -2.152344 0.585938 -3.300781 Z M 0.0117188 -8.574219 "/></g></g></g><g fill="#f3f6c8" fill-opacity="1"><g transform="translate(45.944333, 11.912383)"><g><path d="M 2.820312 -4.640625 L 3.070312 -4.617188 C 3.800781 -4.546875 4.292969 -4.585938 4.546875 -4.734375 C 4.804688 -4.878906 4.953125 -5.171875 4.992188 -5.601562 C 5.039062 -6.070312 4.941406 -6.410156 4.703125 -6.628906 C 4.464844 -6.84375 4 -6.984375 3.300781 -7.050781 L 3.054688 -7.074219 Z M 2.628906 -3.578125 L 2.265625 0.21875 L 0.972656 0.09375 L 1.789062 -8.390625 L 3.710938 -8.207031 C 4.277344 -8.152344 4.710938 -8.074219 5.011719 -7.96875 C 5.316406 -7.867188 5.570312 -7.71875 5.777344 -7.527344 C 6.019531 -7.296875 6.195312 -7.015625 6.308594 -6.675781 C 6.417969 -6.335938 6.457031 -5.976562 6.417969 -5.589844 C 6.355469 -4.910156 6.140625 -4.390625 5.773438 -4.039062 C 5.410156 -3.6875 4.902344 -3.503906 4.253906 -3.488281 L 6.804688 0.652344 L 5.246094 0.503906 L 2.785156 -3.5625 Z M 2.628906 -3.578125 "/></g></g></g><g fill="#f3f6c8" fill-opacity="1"><g transform="translate(55.41415, 13.091827)"><g><path d="M 0.941406 -1.503906 L 2.144531 -1.691406 C 2.140625 -1.296875 2.246094 -0.964844 2.457031 -0.695312 C 2.671875 -0.425781 2.988281 -0.234375 3.40625 -0.113281 C 3.800781 0 4.148438 -0.0195312 4.441406 -0.171875 C 4.738281 -0.324219 4.941406 -0.585938 5.046875 -0.957031 C 5.183594 -1.4375 4.910156 -1.980469 4.21875 -2.585938 C 4.121094 -2.675781 4.046875 -2.742188 3.996094 -2.785156 C 3.21875 -3.484375 2.734375 -4.054688 2.535156 -4.496094 C 2.335938 -4.9375 2.3125 -5.417969 2.457031 -5.933594 C 2.648438 -6.601562 3.03125 -7.074219 3.605469 -7.359375 C 4.175781 -7.644531 4.828125 -7.679688 5.566406 -7.46875 C 6.167969 -7.296875 6.640625 -7.035156 6.980469 -6.683594 C 7.320312 -6.335938 7.507812 -5.917969 7.539062 -5.4375 L 6.34375 -5.199219 C 6.253906 -5.503906 6.125 -5.746094 5.964844 -5.917969 C 5.804688 -6.09375 5.59375 -6.21875 5.34375 -6.292969 C 4.984375 -6.394531 4.671875 -6.382812 4.40625 -6.257812 C 4.144531 -6.132812 3.96875 -5.910156 3.875 -5.597656 C 3.734375 -5.105469 4.066406 -4.515625 4.871094 -3.824219 C 4.929688 -3.769531 4.980469 -3.726562 5.015625 -3.695312 C 5.71875 -3.089844 6.167969 -2.566406 6.367188 -2.125 C 6.570312 -1.683594 6.59375 -1.195312 6.4375 -0.660156 C 6.214844 0.117188 5.796875 0.664062 5.175781 0.980469 C 4.554688 1.296875 3.832031 1.335938 3 1.097656 C 2.300781 0.894531 1.773438 0.570312 1.421875 0.125 C 1.066406 -0.324219 0.90625 -0.867188 0.941406 -1.503906 Z M 0.941406 -1.503906 "/></g></g></g><g fill="#f3f6c8" fill-opacity="1"><g transform="translate(64.336571, 15.749111)"><g><path d="M 9.296875 0.203125 C 9.5 -0.175781 9.625 -0.574219 9.671875 -0.988281 C 9.71875 -1.40625 9.683594 -1.816406 9.570312 -2.222656 C 9.457031 -2.621094 9.273438 -2.984375 9.019531 -3.304688 C 8.761719 -3.625 8.449219 -3.886719 8.082031 -4.085938 C 7.714844 -4.285156 7.324219 -4.40625 6.914062 -4.445312 C 6.507812 -4.484375 6.101562 -4.441406 5.699219 -4.316406 C 5.296875 -4.195312 4.933594 -4 4.613281 -3.730469 C 4.292969 -3.464844 4.027344 -3.140625 3.820312 -2.757812 C 3.617188 -2.378906 3.492188 -1.984375 3.445312 -1.570312 C 3.398438 -1.160156 3.433594 -0.75 3.546875 -0.34375 C 3.664062 0.0625 3.847656 0.425781 4.105469 0.746094 C 4.359375 1.0625 4.671875 1.324219 5.046875 1.523438 C 5.410156 1.722656 5.796875 1.839844 6.203125 1.878906 C 6.605469 1.917969 7.011719 1.875 7.417969 1.75 C 7.824219 1.625 8.183594 1.429688 8.507812 1.164062 C 8.828125 0.898438 9.09375 0.578125 9.296875 0.203125 Z M 10.566406 0.890625 C 10.277344 1.421875 9.90625 1.871094 9.449219 2.238281 C 8.992188 2.605469 8.472656 2.871094 7.886719 3.035156 C 7.300781 3.199219 6.710938 3.25 6.121094 3.183594 C 5.527344 3.121094 4.964844 2.945312 4.433594 2.65625 C 3.894531 2.363281 3.433594 1.988281 3.050781 1.523438 C 2.671875 1.058594 2.390625 0.539062 2.214844 -0.03125 C 2.035156 -0.613281 1.972656 -1.191406 2.027344 -1.769531 C 2.085938 -2.347656 2.261719 -2.90625 2.550781 -3.445312 C 2.839844 -3.980469 3.214844 -4.433594 3.667969 -4.800781 C 4.125 -5.167969 4.644531 -5.433594 5.230469 -5.601562 C 5.8125 -5.769531 6.398438 -5.816406 6.988281 -5.75 C 7.578125 -5.683594 8.144531 -5.5 8.6875 -5.207031 C 9.226562 -4.914062 9.6875 -4.542969 10.0625 -4.085938 C 10.441406 -3.628906 10.722656 -3.113281 10.902344 -2.535156 C 11.078125 -1.949219 11.140625 -1.363281 11.082031 -0.777344 C 11.023438 -0.195312 10.851562 0.363281 10.566406 0.890625 Z M 10.566406 0.890625 "/></g></g></g><g fill="#f3f6c8" fill-opacity="1"><g transform="translate(75.5744, 22.39886)"><g><path d="M 1.484375 -0.972656 L 2.65625 -0.636719 C 2.488281 -0.28125 2.445312 0.0664062 2.523438 0.398438 C 2.605469 0.734375 2.808594 1.042969 3.140625 1.328125 C 3.449219 1.59375 3.773438 1.722656 4.105469 1.707031 C 4.4375 1.691406 4.730469 1.539062 4.980469 1.25 C 5.308594 0.871094 5.285156 0.261719 4.914062 -0.578125 C 4.863281 -0.699219 4.824219 -0.789062 4.796875 -0.851562 C 4.382812 -1.808594 4.183594 -2.53125 4.1875 -3.015625 C 4.195312 -3.503906 4.371094 -3.945312 4.722656 -4.351562 C 5.175781 -4.878906 5.722656 -5.148438 6.359375 -5.167969 C 7 -5.183594 7.605469 -4.945312 8.1875 -4.445312 C 8.660156 -4.035156 8.980469 -3.597656 9.140625 -3.136719 C 9.304688 -2.679688 9.296875 -2.222656 9.125 -1.773438 L 7.9375 -2.058594 C 7.984375 -2.371094 7.972656 -2.640625 7.898438 -2.871094 C 7.824219 -3.097656 7.6875 -3.296875 7.488281 -3.46875 C 7.207031 -3.710938 6.921875 -3.832031 6.628906 -3.828125 C 6.335938 -3.824219 6.082031 -3.699219 5.867188 -3.453125 C 5.535156 -3.066406 5.585938 -2.390625 6.023438 -1.425781 C 6.058594 -1.351562 6.085938 -1.292969 6.105469 -1.25 C 6.488281 -0.40625 6.675781 0.257812 6.671875 0.746094 C 6.667969 1.230469 6.484375 1.683594 6.121094 2.101562 C 5.59375 2.714844 4.984375 3.035156 4.285156 3.0625 C 3.589844 3.089844 2.917969 2.820312 2.261719 2.253906 C 1.710938 1.777344 1.371094 1.265625 1.238281 0.707031 C 1.105469 0.152344 1.1875 -0.40625 1.484375 -0.972656 Z M 1.484375 -0.972656 "/></g></g></g></g></g><g clip-path="url(#6c86511c64)"><g clip-path="url(#33f6be67c6)"><path stroke-linecap="butt" transform="matrix(0.748005, 0, 0, 0.748005, 51.202137, 50.479368)" fill="none" stroke-linejoin="miter" d="M 57.508437 0.00147147 C 25.746879 0.00147147 0.00132131 25.747029 0.00132131 57.508587 C 0.00132131 89.270146 25.746879 115.015703 57.508437 115.015703 C 89.269996 115.015703 115.015553 89.270146 115.015553 57.508587 C 115.015553 25.747029 89.269996 0.00147147 57.508437 0.00147147 Z M 57.508437 0.00147147 " stroke="url(#169807efa4)" stroke-width="3" stroke-miterlimit="4"/></g></g><g clip-path="url(#7f0867543b)"><path fill="#214e6b" d="M 108.335938 77.425781 C 104.570312 74.097656 99.632812 72.058594 94.222656 72.058594 C 82.4375 72.058594 72.851562 81.644531 72.851562 93.429688 C 72.851562 105.214844 82.4375 114.800781 94.222656 114.800781 C 106.011719 114.800781 115.59375 105.214844 115.59375 93.429688 C 115.59375 88.019531 113.554688 83.082031 110.226562 79.316406 L 113.058594 76.484375 C 117.113281 80.980469 119.601562 86.914062 119.601562 93.429688 C 119.601562 107.421875 108.21875 118.808594 94.222656 118.808594 C 80.230469 118.808594 68.84375 107.421875 68.84375 93.429688 C 68.84375 79.4375 80.230469 68.050781 94.222656 68.050781 C 100.742188 68.050781 106.671875 70.539062 111.171875 74.59375 Z M 103.621094 82.144531 C 101.070312 80.019531 97.792969 78.738281 94.222656 78.738281 C 86.121094 78.738281 79.53125 85.328125 79.53125 93.429688 C 79.53125 101.53125 86.121094 108.121094 94.222656 108.121094 C 102.328125 108.121094 108.917969 101.53125 108.917969 93.429688 C 108.917969 89.859375 107.632812 86.585938 105.507812 84.03125 L 108.34375 81.199219 C 111.1875 84.480469 112.921875 88.753906 112.921875 93.429688 C 112.921875 103.738281 104.535156 112.128906 94.222656 112.128906 C 83.914062 112.128906 75.523438 103.738281 75.523438 93.429688 C 75.523438 83.121094 83.914062 74.730469 94.222656 74.730469 C 98.898438 74.730469 103.167969 76.46875 106.453125 79.3125 Z M 98.863281 86.902344 C 97.546875 85.96875 95.949219 85.414062 94.222656 85.414062 C 89.804688 85.414062 86.210938 89.011719 86.210938 93.429688 C 86.210938 97.847656 89.804688 101.445312 94.222656 101.445312 C 98.644531 101.445312 102.238281 97.847656 102.238281 93.429688 C 102.238281 91.703125 101.683594 90.105469 100.75 88.796875 L 103.605469 85.9375 C 105.253906 87.992188 106.246094 90.597656 106.246094 93.429688 C 106.246094 100.0625 100.851562 105.449219 94.222656 105.449219 C 87.597656 105.449219 82.203125 100.0625 82.203125 93.429688 C 82.203125 86.796875 87.597656 81.40625 94.222656 81.40625 C 97.054688 81.40625 99.660156 82.398438 101.714844 84.042969 Z M 99.566406 93.429688 C 99.566406 96.378906 97.171875 98.773438 94.222656 98.773438 C 91.277344 98.773438 88.878906 96.378906 88.878906 93.429688 C 88.878906 90.480469 91.277344 88.085938 94.222656 88.085938 C 95.210938 88.085938 96.128906 88.375 96.921875 88.84375 L 93.277344 92.484375 L 95.167969 94.375 L 98.808594 90.730469 C 99.28125 91.53125 99.566406 92.445312 99.566406 93.429688 Z M 131.625 96.101562 L 127.371094 96.101562 C 126.691406 96.101562 126.125 96.605469 126.039062 97.28125 C 125.679688 100.304688 124.898438 103.242188 123.714844 106.015625 C 123.449219 106.636719 123.6875 107.355469 124.273438 107.695312 L 127.949219 109.816406 L 125.277344 114.441406 L 121.59375 112.316406 C 121.011719 111.984375 120.269531 112.136719 119.863281 112.671875 C 118.042969 115.09375 115.890625 117.25 113.464844 119.070312 C 112.929688 119.476562 112.777344 120.21875 113.113281 120.800781 L 115.234375 124.484375 L 110.613281 127.15625 L 108.488281 123.484375 C 108.15625 122.898438 107.433594 122.660156 106.808594 122.917969 C 104.039062 124.105469 101.101562 124.886719 98.074219 125.246094 C 97.402344 125.332031 96.894531 125.898438 96.894531 126.570312 L 96.894531 130.828125 L 91.550781 130.828125 L 91.550781 126.570312 C 91.550781 125.898438 91.046875 125.332031 90.371094 125.246094 C 87.347656 124.886719 84.410156 124.105469 81.636719 122.917969 C 81.015625 122.652344 80.296875 122.894531 79.957031 123.484375 L 77.835938 127.15625 L 73.210938 124.484375 L 75.335938 120.800781 C 75.667969 120.21875 75.519531 119.476562 74.980469 119.070312 C 72.554688 117.25 70.40625 115.09375 68.582031 112.671875 C 68.175781 112.136719 67.4375 111.976562 66.851562 112.316406 L 63.167969 114.441406 L 60.496094 109.816406 L 64.167969 107.695312 C 64.757812 107.355469 65 106.636719 64.734375 106.015625 C 63.546875 103.242188 62.765625 100.304688 62.40625 97.28125 C 62.324219 96.605469 61.753906 96.101562 61.082031 96.101562 L 56.824219 96.101562 L 56.824219 90.757812 L 61.082031 90.757812 C 61.753906 90.757812 62.324219 90.253906 62.40625 89.578125 C 62.765625 86.550781 63.546875 83.613281 64.734375 80.84375 C 65 80.222656 64.757812 79.503906 64.167969 79.164062 L 60.496094 77.039062 L 63.167969 72.417969 L 66.851562 74.542969 C 67.4375 74.878906 68.183594 74.722656 68.582031 74.1875 C 70.40625 71.765625 72.554688 69.609375 74.980469 67.789062 C 75.519531 67.382812 75.667969 66.640625 75.335938 66.058594 L 73.210938 62.375 L 77.835938 59.703125 L 79.957031 63.382812 C 80.296875 63.964844 81.015625 64.199219 81.636719 63.9375 C 84.410156 62.753906 87.347656 61.972656 90.371094 61.613281 C 91.046875 61.527344 91.550781 60.960938 91.550781 60.28125 L 91.550781 56.03125 L 96.894531 56.03125 L 96.894531 60.28125 C 96.894531 60.960938 97.402344 61.527344 98.074219 61.613281 C 101.101562 61.972656 104.039062 62.753906 106.808594 63.9375 C 107.429688 64.207031 108.148438 63.964844 108.488281 63.382812 L 110.613281 59.703125 L 115.234375 62.375 L 113.113281 66.058594 C 112.777344 66.640625 112.929688 67.382812 113.464844 67.789062 C 114.320312 68.433594 115.128906 69.132812 115.914062 69.851562 L 113.058594 72.703125 C 108.078125 68.171875 101.476562 65.378906 94.222656 65.378906 C 78.757812 65.378906 66.171875 77.964844 66.171875 93.429688 C 66.171875 108.894531 78.757812 121.480469 94.222656 121.480469 C 109.6875 121.480469 122.273438 108.894531 122.273438 93.429688 C 122.273438 86.175781 119.480469 79.578125 114.949219 74.59375 L 117.800781 71.738281 C 118.523438 72.523438 119.222656 73.332031 119.863281 74.1875 C 120.269531 74.722656 121.011719 74.875 121.59375 74.542969 L 125.277344 72.417969 L 127.949219 77.039062 L 124.273438 79.164062 C 123.6875 79.503906 123.449219 80.222656 123.714844 80.84375 C 124.898438 83.613281 125.679688 86.550781 126.039062 89.578125 C 126.125 90.253906 126.691406 90.757812 127.371094 90.757812 L 131.625 90.757812 Z M 122.273438 60.589844 L 124.945312 57.917969 L 124.945312 60.820312 L 122.273438 63.492188 Z M 129.734375 62.707031 L 127.0625 65.378906 L 124.164062 65.378906 L 126.832031 62.707031 L 129.734375 62.707031 " fill-opacity="1" fill-rule="nonzero"/></g></svg>