<svg xmlns="http://www.w3.org/2000/svg" xmlns:xlink="http://www.w3.org/1999/xlink" width="500" zoomAndPan="magnify" viewBox="0 0 375 374.999991" height="500" preserveAspectRatio="xMidYMid meet" version="1.0"><defs><g/><clipPath id="4da1071499"><path d="M 37.214844 37.214844 L 337.5 37.214844 L 337.5 337.5 L 37.214844 337.5 Z M 37.214844 37.214844 " clip-rule="nonzero"/></clipPath><clipPath id="53cce960a0"><path d="M 187.359375 37.214844 C 104.4375 37.214844 37.214844 104.4375 37.214844 187.359375 C 37.214844 270.277344 104.4375 337.5 187.359375 337.5 C 270.277344 337.5 337.5 270.277344 337.5 187.359375 C 337.5 104.4375 270.277344 37.214844 187.359375 37.214844 Z M 187.359375 37.214844 " clip-rule="nonzero"/></clipPath><clipPath id="99ee6d81c6"><path d="M 0.214844 0.214844 L 300.5 0.214844 L 300.5 300.5 L 0.214844 300.5 Z M 0.214844 0.214844 " clip-rule="nonzero"/></clipPath><clipPath id="371cf98ea5"><path d="M 150.359375 0.214844 C 67.4375 0.214844 0.214844 67.4375 0.214844 150.359375 C 0.214844 233.277344 67.4375 300.5 150.359375 300.5 C 233.277344 300.5 300.5 233.277344 300.5 150.359375 C 300.5 67.4375 233.277344 0.214844 150.359375 0.214844 Z M 150.359375 0.214844 " clip-rule="nonzero"/></clipPath><clipPath id="6f5e233702"><rect x="0" width="301" y="0" height="301"/></clipPath><clipPath id="0b6e0e72b3"><path d="M 49.445312 49.445312 L 325.257812 49.445312 L 325.257812 325.257812 L 49.445312 325.257812 Z M 49.445312 49.445312 " clip-rule="nonzero"/></clipPath><clipPath id="bd07d0905e"><path d="M 187.351562 49.445312 C 111.1875 49.445312 49.445312 111.1875 49.445312 187.351562 C 49.445312 263.515625 111.1875 325.257812 187.351562 325.257812 C 263.515625 325.257812 325.257812 263.515625 325.257812 187.351562 C 325.257812 111.1875 263.515625 49.445312 187.351562 49.445312 Z M 187.351562 49.445312 " clip-rule="nonzero"/></clipPath><clipPath id="bc37ba846f"><path d="M 97.875 96.28125 L 280.027344 96.28125 L 280.027344 278.433594 L 97.875 278.433594 Z M 97.875 96.28125 " clip-rule="nonzero"/></clipPath><clipPath id="6e63f92e6d"><path d="M 188.949219 96.28125 C 138.648438 96.28125 97.875 137.058594 97.875 187.359375 C 97.875 237.65625 138.648438 278.433594 188.949219 278.433594 C 239.25 278.433594 280.027344 237.65625 280.027344 187.359375 C 280.027344 137.058594 239.25 96.28125 188.949219 96.28125 Z M 188.949219 96.28125 " clip-rule="nonzero"/></clipPath><clipPath id="c1cdddb775"><path d="M 0.875 0.28125 L 183.027344 0.28125 L 183.027344 182.433594 L 0.875 182.433594 Z M 0.875 0.28125 " clip-rule="nonzero"/></clipPath><clipPath id="c3a757f209"><path d="M 91.949219 0.28125 C 41.648438 0.28125 0.875 41.058594 0.875 91.359375 C 0.875 141.65625 41.648438 182.433594 91.949219 182.433594 C 142.25 182.433594 183.027344 141.65625 183.027344 91.359375 C 183.027344 41.058594 142.25 0.28125 91.949219 0.28125 Z M 91.949219 0.28125 " clip-rule="nonzero"/></clipPath><clipPath id="289ba59644"><rect x="0" width="184" y="0" height="183"/></clipPath><clipPath id="15a76f8c7e"><path d="M 102.675781 101.085938 L 275.175781 101.085938 L 275.175781 273.585938 L 102.675781 273.585938 Z M 102.675781 101.085938 " clip-rule="nonzero"/></clipPath><clipPath id="22a88ea482"><path d="M 188.945312 101.085938 C 141.300781 101.085938 102.675781 139.707031 102.675781 187.351562 C 102.675781 234.996094 141.300781 273.621094 188.945312 273.621094 C 236.589844 273.621094 275.210938 234.996094 275.210938 187.351562 C 275.210938 139.707031 236.589844 101.085938 188.945312 101.085938 Z M 188.945312 101.085938 " clip-rule="nonzero"/></clipPath><clipPath id="d26c5c1556"><path d="M 133.96875 166 L 235 166 L 235 243.164062 L 133.96875 243.164062 Z M 133.96875 166 " clip-rule="nonzero"/></clipPath><clipPath id="3e47f2f673"><path d="M 166 133.664062 L 226 133.664062 L 226 193 L 166 193 Z M 166 133.664062 " clip-rule="nonzero"/></clipPath><clipPath id="b8ce6d8172"><rect x="0" width="199" y="0" height="68"/></clipPath></defs><g clip-path="url(#4da1071499)"><g clip-path="url(#53cce960a0)"><g transform="matrix(1, 0, 0, 1, 37, 37)"><g clip-path="url(#6f5e233702)"><g clip-path="url(#99ee6d81c6)"><g clip-path="url(#371cf98ea5)"><path fill="#d52a44" d="M 0.214844 0.214844 L 300.5 0.214844 L 300.5 300.5 L 0.214844 300.5 Z M 0.214844 0.214844 " fill-opacity="1" fill-rule="nonzero"/></g></g></g></g></g></g><g clip-path="url(#0b6e0e72b3)"><g clip-path="url(#bd07d0905e)"><path stroke-linecap="butt" transform="matrix(0.75, 0, 0, 0.75, 49.445586, 49.445582)" fill="none" stroke-linejoin="miter" d="M 183.874647 -0.000358737 C 82.322557 -0.000358737 -0.000364737 82.322563 -0.000364737 183.874653 C -0.000364737 285.426743 82.322557 367.749665 183.874647 367.749665 C 285.426737 367.749665 367.749659 285.426743 367.749659 183.874653 C 367.749659 82.322563 285.426737 -0.000358737 183.874647 -0.000358737 Z M 183.874647 -0.000358737 " stroke="#e4cf90" stroke-width="4" stroke-opacity="1" stroke-miterlimit="4"/></g></g><g clip-path="url(#bc37ba846f)"><g clip-path="url(#6e63f92e6d)"><g transform="matrix(1, 0, 0, 1, 97, 96)"><g clip-path="url(#289ba59644)"><g clip-path="url(#c1cdddb775)"><g clip-path="url(#c3a757f209)"><path fill="#e4cf90" d="M 0.875 0.28125 L 183.027344 0.28125 L 183.027344 182.433594 L 0.875 182.433594 Z M 0.875 0.28125 " fill-opacity="1" fill-rule="nonzero"/></g></g></g></g></g></g><g clip-path="url(#15a76f8c7e)"><g clip-path="url(#22a88ea482)"><path stroke-linecap="butt" transform="matrix(0.75, 0, 0, 0.75, 102.67735, 101.085404)" fill="none" stroke-linejoin="miter" d="M 115.023958 0.000711651 C 51.497912 0.000711651 -0.00209134 51.495507 -0.00209134 115.021553 C -0.00209134 178.547598 51.497912 230.047602 115.023958 230.047602 C 178.550004 230.047602 230.044799 178.547598 230.044799 115.021553 C 230.044799 51.495507 178.550004 0.000711651 115.023958 0.000711651 Z M 115.023958 0.000711651 " stroke="#1b5072" stroke-width="3" stroke-opacity="1" stroke-miterlimit="4"/></g></g><g clip-path="url(#d26c5c1556)"><path fill="#f2f2f2" d="M 141.269531 166.523438 L 227.0625 166.523438 C 227.539062 166.523438 228.015625 166.570312 228.484375 166.664062 C 228.957031 166.757812 229.410156 166.894531 229.855469 167.078125 C 230.296875 167.261719 230.71875 167.488281 231.117188 167.753906 C 231.515625 168.019531 231.882812 168.320312 232.222656 168.660156 C 232.5625 169 232.863281 169.367188 233.132812 169.765625 C 233.398438 170.164062 233.621094 170.585938 233.804688 171.027344 C 233.988281 171.472656 234.128906 171.925781 234.222656 172.398438 C 234.316406 172.867188 234.363281 173.339844 234.363281 173.820312 L 234.363281 235.851562 C 234.363281 236.328125 234.316406 236.804688 234.222656 237.273438 C 234.128906 237.742188 233.988281 238.199219 233.804688 238.640625 C 233.621094 239.085938 233.398438 239.503906 233.132812 239.902344 C 232.863281 240.300781 232.5625 240.671875 232.222656 241.011719 C 231.882812 241.347656 231.515625 241.652344 231.117188 241.917969 C 230.71875 242.183594 230.296875 242.410156 229.855469 242.589844 C 229.410156 242.773438 228.957031 242.914062 228.484375 243.007812 C 228.015625 243.101562 227.539062 243.148438 227.0625 243.148438 L 141.269531 243.148438 C 140.789062 243.148438 140.316406 243.101562 139.84375 243.007812 C 139.375 242.914062 138.917969 242.773438 138.476562 242.589844 C 138.03125 242.410156 137.613281 242.183594 137.214844 241.917969 C 136.816406 241.652344 136.445312 241.347656 136.105469 241.011719 C 135.769531 240.671875 135.464844 240.300781 135.199219 239.902344 C 134.933594 239.503906 134.707031 239.085938 134.523438 238.640625 C 134.339844 238.199219 134.203125 237.742188 134.109375 237.273438 C 134.015625 236.804688 133.96875 236.328125 133.96875 235.851562 L 133.96875 173.820312 C 133.96875 173.339844 134.015625 172.867188 134.109375 172.398438 C 134.203125 171.925781 134.339844 171.472656 134.523438 171.027344 C 134.707031 170.585938 134.933594 170.164062 135.199219 169.765625 C 135.464844 169.367188 135.769531 169 136.105469 168.660156 C 136.445312 168.320312 136.816406 168.019531 137.214844 167.753906 C 137.613281 167.488281 138.03125 167.261719 138.476562 167.078125 C 138.917969 166.894531 139.375 166.757812 139.84375 166.664062 C 140.316406 166.570312 140.789062 166.523438 141.269531 166.523438 Z M 141.269531 166.523438 " fill-opacity="1" fill-rule="nonzero"/></g><path fill="#5b0624" d="M 226.183594 185.277344 L 219.796875 178.890625 C 219.082031 178.179688 217.933594 178.179688 217.222656 178.890625 L 212.074219 184.039062 C 211.363281 184.75 211.363281 185.898438 212.074219 186.609375 L 218.464844 192.996094 C 218.828125 193.359375 219.285156 193.523438 219.757812 193.523438 C 220.234375 193.523438 220.691406 193.339844 221.054688 192.996094 L 226.203125 187.851562 C 226.914062 187.140625 226.914062 185.988281 226.203125 185.277344 Z M 226.183594 185.277344 " fill-opacity="1" fill-rule="nonzero"/><g clip-path="url(#3e47f2f673)"><path fill="#f0b61b" d="M 225.234375 162.875 C 225.234375 163.832031 225.1875 164.785156 225.09375 165.734375 C 225 166.6875 224.859375 167.632812 224.675781 168.570312 C 224.488281 169.507812 224.253906 170.433594 223.976562 171.347656 C 223.699219 172.261719 223.378906 173.160156 223.011719 174.046875 C 222.644531 174.929688 222.238281 175.792969 221.785156 176.632812 C 221.335938 177.476562 220.84375 178.296875 220.3125 179.089844 C 219.78125 179.886719 219.210938 180.652344 218.605469 181.390625 C 218 182.132812 217.359375 182.839844 216.679688 183.515625 C 216.003906 184.191406 215.296875 184.832031 214.558594 185.4375 C 213.816406 186.046875 213.050781 186.613281 212.253906 187.144531 C 211.460938 187.675781 210.640625 188.167969 209.796875 188.617188 C 208.953125 189.070312 208.089844 189.476562 207.207031 189.84375 C 206.324219 190.207031 205.421875 190.53125 204.507812 190.808594 C 203.59375 191.085938 202.664062 191.316406 201.726562 191.503906 C 200.789062 191.691406 199.84375 191.832031 198.894531 191.925781 C 197.941406 192.019531 196.988281 192.066406 196.03125 192.066406 C 195.074219 192.066406 194.121094 192.019531 193.167969 191.925781 C 192.214844 191.832031 191.269531 191.691406 190.332031 191.503906 C 189.394531 191.316406 188.46875 191.085938 187.550781 190.808594 C 186.636719 190.53125 185.738281 190.207031 184.855469 189.84375 C 183.96875 189.476562 183.105469 189.070312 182.261719 188.617188 C 181.417969 188.167969 180.601562 187.675781 179.804688 187.144531 C 179.007812 186.613281 178.242188 186.046875 177.503906 185.4375 C 176.761719 184.832031 176.054688 184.191406 175.378906 183.515625 C 174.703125 182.839844 174.0625 182.132812 173.453125 181.390625 C 172.847656 180.652344 172.277344 179.886719 171.746094 179.089844 C 171.214844 178.296875 170.722656 177.476562 170.273438 176.632812 C 169.824219 175.792969 169.414062 174.929688 169.046875 174.046875 C 168.683594 173.160156 168.359375 172.261719 168.082031 171.347656 C 167.804688 170.433594 167.574219 169.507812 167.386719 168.570312 C 167.199219 167.632812 167.058594 166.6875 166.964844 165.734375 C 166.871094 164.785156 166.824219 163.832031 166.824219 162.875 C 166.824219 161.917969 166.871094 160.964844 166.964844 160.011719 C 167.058594 159.0625 167.199219 158.117188 167.386719 157.179688 C 167.574219 156.242188 167.804688 155.316406 168.082031 154.402344 C 168.359375 153.484375 168.683594 152.585938 169.046875 151.703125 C 169.414062 150.820312 169.824219 149.957031 170.273438 149.113281 C 170.722656 148.269531 171.214844 147.453125 171.746094 146.65625 C 172.277344 145.863281 172.847656 145.09375 173.453125 144.355469 C 174.0625 143.617188 174.703125 142.910156 175.378906 142.234375 C 176.054688 141.558594 176.761719 140.917969 177.503906 140.308594 C 178.242188 139.703125 179.007812 139.136719 179.804688 138.605469 C 180.601562 138.074219 181.417969 137.582031 182.261719 137.132812 C 183.105469 136.679688 183.96875 136.273438 184.855469 135.90625 C 185.738281 135.539062 186.636719 135.21875 187.550781 134.941406 C 188.46875 134.664062 189.394531 134.433594 190.332031 134.246094 C 191.269531 134.058594 192.214844 133.917969 193.167969 133.824219 C 194.121094 133.730469 195.074219 133.683594 196.03125 133.683594 C 196.988281 133.683594 197.941406 133.730469 198.894531 133.824219 C 199.84375 133.917969 200.789062 134.058594 201.726562 134.246094 C 202.664062 134.433594 203.59375 134.664062 204.507812 134.941406 C 205.421875 135.21875 206.324219 135.539062 207.207031 135.90625 C 208.089844 136.273438 208.953125 136.679688 209.796875 137.132812 C 210.640625 137.582031 211.460938 138.074219 212.253906 138.605469 C 213.050781 139.136719 213.816406 139.703125 214.558594 140.308594 C 215.296875 140.917969 216.003906 141.558594 216.679688 142.234375 C 217.359375 142.910156 218 143.617188 218.605469 144.355469 C 219.210938 145.09375 219.78125 145.863281 220.3125 146.65625 C 220.84375 147.453125 221.335938 148.269531 221.785156 149.113281 C 222.238281 149.957031 222.644531 150.820312 223.011719 151.703125 C 223.378906 152.585938 223.699219 153.484375 223.976562 154.402344 C 224.253906 155.316406 224.488281 156.242188 224.675781 157.179688 C 224.859375 158.117188 225 159.0625 225.09375 160.011719 C 225.1875 160.964844 225.234375 161.917969 225.234375 162.875 Z M 225.234375 162.875 " fill-opacity="1" fill-rule="nonzero"/></g><path fill="#ffffff" d="M 217.933594 162.875 C 217.933594 163.589844 217.898438 164.308594 217.828125 165.019531 C 217.757812 165.734375 217.652344 166.441406 217.511719 167.144531 C 217.375 167.847656 217.199219 168.542969 216.992188 169.230469 C 216.78125 169.914062 216.542969 170.589844 216.265625 171.253906 C 215.992188 171.914062 215.6875 172.5625 215.347656 173.195312 C 215.007812 173.828125 214.640625 174.441406 214.242188 175.039062 C 213.84375 175.632812 213.417969 176.207031 212.960938 176.761719 C 212.507812 177.316406 212.027344 177.847656 211.519531 178.355469 C 211.011719 178.863281 210.480469 179.34375 209.925781 179.796875 C 209.371094 180.253906 208.796875 180.679688 208.199219 181.078125 C 207.601562 181.476562 206.988281 181.84375 206.355469 182.183594 C 205.722656 182.519531 205.074219 182.824219 204.414062 183.101562 C 203.75 183.375 203.074219 183.617188 202.386719 183.824219 C 201.703125 184.03125 201.007812 184.207031 200.304688 184.347656 C 199.601562 184.484375 198.890625 184.589844 198.175781 184.660156 C 197.464844 184.730469 196.746094 184.765625 196.03125 184.765625 C 195.3125 184.765625 194.597656 184.730469 193.882812 184.660156 C 193.167969 184.589844 192.460938 184.484375 191.757812 184.347656 C 191.054688 184.207031 190.359375 184.03125 189.671875 183.824219 C 188.984375 183.617188 188.308594 183.375 187.648438 183.101562 C 186.984375 182.824219 186.335938 182.519531 185.703125 182.183594 C 185.070312 181.84375 184.457031 181.476562 183.859375 181.078125 C 183.265625 180.679688 182.6875 180.253906 182.132812 179.796875 C 181.578125 179.34375 181.046875 178.863281 180.542969 178.355469 C 180.035156 177.847656 179.554688 177.316406 179.097656 176.761719 C 178.644531 176.207031 178.214844 175.632812 177.816406 175.039062 C 177.417969 174.441406 177.050781 173.828125 176.710938 173.195312 C 176.375 172.5625 176.066406 171.914062 175.792969 171.253906 C 175.519531 170.589844 175.277344 169.914062 175.070312 169.230469 C 174.859375 168.542969 174.6875 167.847656 174.546875 167.144531 C 174.40625 166.441406 174.300781 165.734375 174.230469 165.019531 C 174.160156 164.308594 174.125 163.589844 174.125 162.875 C 174.125 162.15625 174.160156 161.441406 174.230469 160.730469 C 174.300781 160.015625 174.40625 159.304688 174.546875 158.601562 C 174.6875 157.898438 174.859375 157.207031 175.070312 156.519531 C 175.277344 155.832031 175.519531 155.160156 175.792969 154.496094 C 176.066406 153.835938 176.375 153.1875 176.710938 152.554688 C 177.050781 151.921875 177.417969 151.308594 177.816406 150.710938 C 178.214844 150.117188 178.644531 149.539062 179.097656 148.984375 C 179.554688 148.433594 180.035156 147.902344 180.542969 147.394531 C 181.046875 146.886719 181.578125 146.40625 182.132812 145.953125 C 182.6875 145.496094 183.265625 145.070312 183.859375 144.671875 C 184.457031 144.273438 185.070312 143.90625 185.703125 143.566406 C 186.335938 143.230469 186.984375 142.921875 187.648438 142.648438 C 188.308594 142.375 188.984375 142.132812 189.671875 141.925781 C 190.359375 141.714844 191.054688 141.542969 191.757812 141.402344 C 192.460938 141.261719 193.167969 141.15625 193.882812 141.085938 C 194.597656 141.015625 195.3125 140.980469 196.03125 140.980469 C 196.746094 140.980469 197.464844 141.015625 198.175781 141.085938 C 198.890625 141.15625 199.601562 141.261719 200.304688 141.402344 C 201.007812 141.542969 201.703125 141.714844 202.386719 141.925781 C 203.074219 142.132812 203.75 142.375 204.414062 142.648438 C 205.074219 142.921875 205.722656 143.230469 206.355469 143.566406 C 206.988281 143.90625 207.601562 144.273438 208.199219 144.671875 C 208.796875 145.070312 209.371094 145.496094 209.925781 145.953125 C 210.480469 146.40625 211.011719 146.886719 211.519531 147.394531 C 212.027344 147.902344 212.507812 148.433594 212.960938 148.984375 C 213.417969 149.539062 213.84375 150.117188 214.242188 150.710938 C 214.640625 151.308594 215.007812 151.921875 215.347656 152.554688 C 215.6875 153.1875 215.992188 153.835938 216.265625 154.496094 C 216.542969 155.160156 216.78125 155.832031 216.992188 156.519531 C 217.199219 157.207031 217.375 157.898438 217.511719 158.601562 C 217.652344 159.304688 217.757812 160.015625 217.828125 160.730469 C 217.898438 161.441406 217.933594 162.15625 217.933594 162.875 Z M 217.933594 162.875 " fill-opacity="1" fill-rule="nonzero"/><path fill="#5b0624" d="M 186.996094 173.730469 C 186.519531 173.730469 186.0625 173.546875 185.699219 173.199219 C 182.941406 170.445312 181.425781 166.777344 181.425781 162.875 C 181.425781 154.828125 187.980469 148.28125 196.03125 148.28125 C 204.078125 148.28125 210.632812 154.828125 210.632812 162.875 C 210.632812 166.777344 209.117188 170.445312 206.363281 173.199219 C 205.648438 173.910156 204.5 173.910156 203.789062 173.199219 C 203.074219 172.488281 203.074219 171.339844 203.789062 170.628906 C 205.851562 168.566406 207 165.8125 207 162.894531 C 207 156.855469 202.089844 151.945312 196.046875 151.945312 C 190.007812 151.945312 185.097656 156.855469 185.097656 162.894531 C 185.097656 165.8125 186.226562 168.566406 188.308594 170.628906 C 189.019531 171.339844 189.019531 172.488281 188.308594 173.199219 C 187.945312 173.566406 187.488281 173.730469 187.011719 173.730469 Z M 186.996094 173.730469 " fill-opacity="1" fill-rule="nonzero"/><path fill="#ed2d60" d="M 241.152344 196.605469 L 227.992188 183.472656 C 227.28125 182.761719 226.128906 182.761719 225.417969 183.472656 L 216.65625 192.230469 C 215.945312 192.941406 215.945312 194.089844 216.65625 194.800781 L 229.796875 207.953125 C 231.367188 209.503906 233.414062 210.289062 235.476562 210.289062 C 237.539062 210.289062 239.582031 209.503906 241.152344 207.953125 C 244.253906 204.816406 244.253906 199.726562 241.152344 196.589844 Z M 241.152344 196.605469 " fill-opacity="1" fill-rule="nonzero"/><path fill="#5b0624" d="M 196.03125 164.699219 C 195.554688 164.699219 195.097656 164.515625 194.734375 164.167969 C 194.023438 163.457031 194.023438 162.308594 194.734375 161.597656 L 198.382812 157.949219 C 199.097656 157.238281 200.246094 157.238281 200.957031 157.949219 C 201.671875 158.660156 201.671875 159.808594 200.957031 160.519531 L 197.308594 164.167969 C 196.941406 164.535156 196.488281 164.699219 196.011719 164.699219 Z M 196.03125 164.699219 " fill-opacity="1" fill-rule="nonzero"/><path fill="#ed2d60" d="M 144.921875 175.644531 L 157.699219 175.644531 C 157.941406 175.644531 158.171875 175.691406 158.398438 175.785156 C 158.621094 175.875 158.816406 176.007812 158.988281 176.179688 C 159.160156 176.351562 159.292969 176.546875 159.382812 176.769531 C 159.476562 176.996094 159.523438 177.226562 159.523438 177.46875 L 159.523438 232.199219 C 159.523438 232.441406 159.476562 232.675781 159.382812 232.898438 C 159.292969 233.121094 159.160156 233.320312 158.988281 233.492188 C 158.816406 233.660156 158.621094 233.792969 158.398438 233.886719 C 158.171875 233.980469 157.941406 234.023438 157.699219 234.023438 L 144.921875 234.023438 C 144.679688 234.023438 144.445312 233.980469 144.222656 233.886719 C 144 233.792969 143.800781 233.660156 143.628906 233.492188 C 143.457031 233.320312 143.328125 233.121094 143.234375 232.898438 C 143.140625 232.675781 143.09375 232.441406 143.09375 232.199219 L 143.09375 177.46875 C 143.09375 177.226562 143.140625 176.996094 143.234375 176.769531 C 143.328125 176.546875 143.457031 176.351562 143.628906 176.179688 C 143.800781 176.007812 144 175.875 144.222656 175.785156 C 144.445312 175.691406 144.679688 175.644531 144.921875 175.644531 Z M 144.921875 175.644531 " fill-opacity="1" fill-rule="nonzero"/><path fill="#f0b61b" d="M 166.824219 193.890625 L 179.601562 193.890625 C 179.84375 193.890625 180.078125 193.933594 180.300781 194.027344 C 180.523438 194.121094 180.722656 194.253906 180.894531 194.421875 C 181.0625 194.59375 181.195312 194.792969 181.289062 195.015625 C 181.382812 195.238281 181.425781 195.472656 181.425781 195.714844 L 181.425781 232.199219 C 181.425781 232.441406 181.382812 232.675781 181.289062 232.898438 C 181.195312 233.121094 181.0625 233.320312 180.894531 233.492188 C 180.722656 233.660156 180.523438 233.792969 180.300781 233.886719 C 180.078125 233.980469 179.84375 234.023438 179.601562 234.023438 L 166.824219 234.023438 C 166.582031 234.023438 166.351562 233.980469 166.125 233.886719 C 165.902344 233.792969 165.707031 233.660156 165.535156 233.492188 C 165.363281 233.320312 165.230469 233.121094 165.136719 232.898438 C 165.046875 232.675781 165 232.441406 165 232.199219 L 165 195.714844 C 165 195.472656 165.046875 195.238281 165.136719 195.015625 C 165.230469 194.792969 165.363281 194.59375 165.535156 194.421875 C 165.707031 194.253906 165.902344 194.121094 166.125 194.027344 C 166.351562 193.933594 166.582031 193.890625 166.824219 193.890625 Z M 166.824219 193.890625 " fill-opacity="1" fill-rule="nonzero"/><path fill="#ed2d60" d="M 188.730469 199.363281 L 201.507812 199.363281 C 201.75 199.363281 201.980469 199.410156 202.203125 199.5 C 202.429688 199.59375 202.625 199.726562 202.796875 199.894531 C 202.96875 200.066406 203.101562 200.265625 203.191406 200.488281 C 203.285156 200.710938 203.332031 200.945312 203.332031 201.1875 L 203.332031 232.199219 C 203.332031 232.441406 203.285156 232.675781 203.191406 232.898438 C 203.101562 233.121094 202.96875 233.320312 202.796875 233.492188 C 202.625 233.660156 202.429688 233.792969 202.203125 233.886719 C 201.980469 233.980469 201.75 234.023438 201.507812 234.023438 L 188.730469 234.023438 C 188.488281 234.023438 188.253906 233.980469 188.03125 233.886719 C 187.804688 233.792969 187.609375 233.660156 187.4375 233.492188 C 187.265625 233.320312 187.136719 233.121094 187.042969 232.898438 C 186.949219 232.675781 186.902344 232.441406 186.902344 232.199219 L 186.902344 201.1875 C 186.902344 200.945312 186.949219 200.710938 187.042969 200.488281 C 187.136719 200.265625 187.265625 200.066406 187.4375 199.894531 C 187.609375 199.726562 187.804688 199.59375 188.03125 199.5 C 188.253906 199.410156 188.488281 199.363281 188.730469 199.363281 Z M 188.730469 199.363281 " fill-opacity="1" fill-rule="nonzero"/><path fill="#f0b61b" d="M 210.632812 210.308594 L 223.410156 210.308594 C 223.652344 210.308594 223.886719 210.355469 224.109375 210.445312 C 224.332031 210.539062 224.53125 210.671875 224.699219 210.84375 C 224.871094 211.015625 225.003906 211.210938 225.097656 211.433594 C 225.1875 211.65625 225.234375 211.890625 225.234375 212.132812 L 225.234375 232.199219 C 225.234375 232.441406 225.1875 232.675781 225.097656 232.898438 C 225.003906 233.121094 224.871094 233.320312 224.699219 233.492188 C 224.53125 233.660156 224.332031 233.792969 224.109375 233.886719 C 223.886719 233.980469 223.652344 234.023438 223.410156 234.023438 L 210.632812 234.023438 C 210.390625 234.023438 210.15625 233.980469 209.933594 233.886719 C 209.710938 233.792969 209.511719 233.660156 209.34375 233.492188 C 209.171875 233.320312 209.039062 233.121094 208.945312 232.898438 C 208.855469 232.675781 208.808594 232.441406 208.808594 232.199219 L 208.808594 212.132812 C 208.808594 211.890625 208.855469 211.65625 208.945312 211.433594 C 209.039062 211.210938 209.171875 211.015625 209.34375 210.84375 C 209.511719 210.671875 209.710938 210.539062 209.933594 210.445312 C 210.15625 210.355469 210.390625 210.308594 210.632812 210.308594 Z M 210.632812 210.308594 " fill-opacity="1" fill-rule="nonzero"/><g transform="matrix(1, 0, 0, 1, 88, 59)"><g clip-path="url(#b8ce6d8172)"><g fill="#f7e7be" fill-opacity="1"><g transform="translate(17.573946, 63.055904)"><g><path d="M -6.152344 -15.335938 L 4.929688 -5.628906 L 3.101562 -3.539062 L -7.980469 -13.246094 L -10.972656 -9.832031 L -12.746094 -11.386719 L -4.949219 -20.289062 L -3.171875 -18.734375 Z M -6.152344 -15.335938 "/></g></g></g><g fill="#f7e7be" fill-opacity="1"><g transform="translate(29.528635, 49.837358)"><g><path d="M -8.871094 -14.730469 L -6.691406 -16.394531 L -0.390625 -8.148438 C 0.542969 -6.921875 1.53125 -6.21875 2.566406 -6.035156 C 3.601562 -5.851562 4.683594 -6.191406 5.808594 -7.050781 C 6.929688 -7.90625 7.535156 -8.855469 7.632812 -9.90625 C 7.726562 -10.953125 7.308594 -12.089844 6.371094 -13.3125 L 0.0742188 -21.5625 L 2.28125 -23.246094 L 8.738281 -14.796875 C 10.140625 -12.957031 10.726562 -11.230469 10.496094 -9.609375 C 10.261719 -7.988281 9.214844 -6.464844 7.347656 -5.039062 C 5.476562 -3.609375 3.734375 -3 2.121094 -3.207031 C 0.503906 -3.410156 -1.007812 -4.433594 -2.414062 -6.277344 Z M -8.871094 -14.730469 "/></g></g></g><g fill="#f7e7be" fill-opacity="1"><g transform="translate(48.830185, 36.325006)"><g/></g></g><g fill="#f7e7be" fill-opacity="1"><g transform="translate(60.699865, 30.518152)"><g><path d="M 2.40625 -16.347656 L 7.09375 -2.378906 L 4.460938 -1.496094 L -0.226562 -15.464844 L -4.53125 -14.019531 L -5.28125 -16.253906 L 5.941406 -20.019531 L 6.691406 -17.785156 Z M 2.40625 -16.347656 "/></g></g></g><g fill="#f7e7be" fill-opacity="1"><g transform="translate(77.761731, 25.181667)"><g><path d="M 4.625 -7.394531 L 9.347656 -8.027344 L 7.09375 -11.660156 C 6.960938 -11.890625 6.816406 -12.160156 6.664062 -12.46875 C 6.515625 -12.773438 6.359375 -13.113281 6.199219 -13.492188 C 6.15625 -13.109375 6.101562 -12.753906 6.042969 -12.417969 C 5.980469 -12.085938 5.914062 -11.773438 5.84375 -11.492188 Z M 13.132812 -1.761719 L 10.625 -5.867188 L 3.914062 -4.964844 L 2.535156 -0.339844 L -0.359375 0.046875 L 5.480469 -18.664062 L 16.035156 -2.152344 Z M 13.132812 -1.761719 "/></g></g></g><g fill="#f7e7be" fill-opacity="1"><g transform="translate(99.116671, 22.980597)"><g><path d="M 5.304688 -9.554688 L 6.363281 -9.488281 C 7.683594 -9.402344 8.628906 -9.523438 9.203125 -9.847656 C 9.773438 -10.175781 10.085938 -10.765625 10.140625 -11.621094 C 10.199219 -12.550781 9.988281 -13.222656 9.507812 -13.632812 C 9.027344 -14.039062 8.085938 -14.289062 6.679688 -14.378906 L 5.621094 -14.449219 Z M 4.820312 -2.019531 L 5.777344 -1.957031 C 6.746094 -1.894531 7.476562 -1.886719 7.960938 -1.933594 C 8.449219 -1.980469 8.835938 -2.089844 9.128906 -2.269531 C 9.484375 -2.472656 9.769531 -2.757812 9.980469 -3.125 C 10.191406 -3.492188 10.3125 -3.90625 10.339844 -4.367188 C 10.375 -4.910156 10.292969 -5.390625 10.09375 -5.808594 C 9.894531 -6.226562 9.59375 -6.5625 9.1875 -6.816406 C 8.933594 -6.964844 8.636719 -7.078125 8.304688 -7.164062 C 7.96875 -7.246094 7.523438 -7.308594 6.964844 -7.34375 L 6.125 -7.398438 L 5.171875 -7.457031 Z M 1.957031 0.125 L 3.054688 -16.929688 L 7.351562 -16.652344 C 8.578125 -16.574219 9.480469 -16.449219 10.058594 -16.28125 C 10.636719 -16.109375 11.121094 -15.863281 11.515625 -15.53125 C 12.015625 -15.109375 12.394531 -14.574219 12.644531 -13.925781 C 12.894531 -13.277344 12.996094 -12.574219 12.949219 -11.8125 C 12.890625 -10.90625 12.632812 -10.160156 12.171875 -9.578125 C 11.714844 -8.992188 11.078125 -8.609375 10.261719 -8.417969 C 11.246094 -8.199219 12 -7.695312 12.523438 -6.910156 C 13.042969 -6.125 13.269531 -5.160156 13.195312 -4.019531 C 13.152344 -3.328125 12.988281 -2.679688 12.707031 -2.074219 C 12.429688 -1.46875 12.050781 -0.960938 11.582031 -0.554688 C 11.085938 -0.109375 10.484375 0.1875 9.78125 0.335938 C 9.078125 0.484375 7.910156 0.507812 6.277344 0.402344 Z M 1.957031 0.125 "/></g></g></g><g fill="#f7e7be" fill-opacity="1"><g transform="translate(118.592381, 24.857883)"><g><path d="M 1.90625 0.46875 L 5.984375 -16.128906 L 8.683594 -15.464844 L 5.195312 -1.28125 L 11.226562 0.199219 L 10.632812 2.613281 Z M 1.90625 0.46875 "/></g></g></g><g fill="#f7e7be" fill-opacity="1"><g transform="translate(135.067823, 29.360648)"><g><path d="M 1.796875 0.789062 L 8.660156 -14.863281 L 17.394531 -11.03125 L 16.449219 -8.875 L 10.257812 -11.589844 L 8.535156 -7.664062 L 14.726562 -4.949219 L 13.746094 -2.714844 L 7.558594 -5.429688 L 5.339844 -0.375 L 11.527344 2.339844 L 10.53125 4.617188 Z M 1.796875 0.789062 "/></g></g></g><g fill="#f7e7be" fill-opacity="1"><g transform="translate(151.794517, 37.236908)"><g><path d="M 9.421875 -5.460938 L 9.839844 -5.179688 C 11.054688 -4.355469 11.960938 -3.949219 12.550781 -3.964844 C 13.144531 -3.976562 13.683594 -4.34375 14.171875 -5.066406 C 14.699219 -5.84375 14.859375 -6.539062 14.644531 -7.148438 C 14.433594 -7.757812 13.746094 -8.457031 12.585938 -9.242188 L 12.171875 -9.523438 Z M 8.066406 -3.773438 L 3.78125 2.558594 L 1.625 1.097656 L 11.207031 -13.050781 L 14.414062 -10.878906 C 15.355469 -10.242188 16.042969 -9.6875 16.480469 -9.214844 C 16.917969 -8.738281 17.222656 -8.234375 17.398438 -7.703125 C 17.605469 -7.066406 17.644531 -6.394531 17.515625 -5.691406 C 17.386719 -4.988281 17.105469 -4.316406 16.667969 -3.671875 C 15.902344 -2.539062 15.027344 -1.835938 14.042969 -1.566406 C 13.0625 -1.292969 11.992188 -1.457031 10.835938 -2.050781 L 11.347656 7.683594 L 8.75 5.921875 L 8.328125 -3.59375 Z M 8.066406 -3.773438 "/></g></g></g><g fill="#f7e7be" fill-opacity="1"><g transform="translate(167.352846, 48.015161)"><g><path d="M 17.582031 6.199219 C 18.210938 5.605469 18.699219 4.925781 19.046875 4.164062 C 19.394531 3.398438 19.585938 2.59375 19.621094 1.746094 C 19.660156 0.917969 19.539062 0.113281 19.25 -0.65625 C 18.964844 -1.429688 18.53125 -2.125 17.953125 -2.734375 C 17.375 -3.34375 16.710938 -3.816406 15.957031 -4.148438 C 15.203125 -4.480469 14.402344 -4.652344 13.554688 -4.664062 C 12.714844 -4.679688 11.902344 -4.535156 11.125 -4.226562 C 10.34375 -3.917969 9.640625 -3.464844 9.003906 -2.863281 C 8.378906 -2.269531 7.890625 -1.597656 7.546875 -0.839844 C 7.199219 -0.0859375 7.011719 0.714844 6.976562 1.5625 C 6.941406 2.410156 7.066406 3.21875 7.355469 3.984375 C 7.640625 4.753906 8.078125 5.445312 8.660156 6.0625 C 9.234375 6.664062 9.894531 7.132812 10.640625 7.457031 C 11.390625 7.785156 12.1875 7.957031 13.042969 7.972656 C 13.890625 7.984375 14.703125 7.839844 15.480469 7.535156 C 16.261719 7.234375 16.960938 6.789062 17.582031 6.199219 Z M 19.574219 8.300781 C 18.691406 9.136719 17.699219 9.761719 16.601562 10.171875 C 15.503906 10.585938 14.347656 10.765625 13.132812 10.71875 C 11.910156 10.660156 10.757812 10.386719 9.667969 9.894531 C 8.582031 9.402344 7.621094 8.714844 6.785156 7.832031 C 5.941406 6.941406 5.300781 5.933594 4.863281 4.808594 C 4.425781 3.683594 4.21875 2.523438 4.242188 1.324219 C 4.257812 0.105469 4.5 -1.035156 4.972656 -2.101562 C 5.441406 -3.167969 6.121094 -4.121094 7.015625 -4.96875 C 7.902344 -5.808594 8.894531 -6.433594 9.992188 -6.851562 C 11.085938 -7.265625 12.246094 -7.453125 13.464844 -7.40625 C 14.679688 -7.355469 15.832031 -7.082031 16.910156 -6.585938 C 17.992188 -6.089844 18.960938 -5.390625 19.808594 -4.492188 C 20.65625 -3.597656 21.296875 -2.597656 21.730469 -1.492188 C 22.164062 -0.390625 22.375 0.769531 22.355469 1.988281 C 22.328125 3.214844 22.078125 4.367188 21.601562 5.441406 C 21.125 6.519531 20.449219 7.472656 19.574219 8.300781 Z M 19.574219 8.300781 "/></g></g></g></g></g></svg>